<svg xmlns="http://www.w3.org/2000/svg" xmlns:xlink="http://www.w3.org/1999/xlink" contentStyleType="text/css" height="635px" preserveAspectRatio="none" style="width:951px;height:635px;background:#FFFFFF;" version="1.1" viewBox="0 0 951 635" width="951px" zoomAndPan="magnify"><title>Register a new book as librarian</title><defs/><g><text fill="#000000" font-family="sans-serif" font-size="14" font-weight="bold" lengthAdjust="spacing" textLength="214.7373" x="367.231" y="30.1074">Register a new book as librarian</text><rect fill="#FFFFFF" height="409.7832" style="stroke:#181818;stroke-width:1.0;" width="10" x="41.1172" y="133.2422"/><rect fill="#FFFFFF" height="386.4922" style="stroke:#181818;stroke-width:1.0;" width="10" x="216.4297" y="156.5332"/><rect fill="#FFFFFF" height="194.7461" style="stroke:#181818;stroke-width:1.0;" width="10" x="221.4297" y="339.2793"/><rect fill="#FFFFFF" height="314.9102" style="stroke:#181818;stroke-width:1.0;" width="10" x="468.3667" y="187.8242"/><rect fill="#FFFFFF" height="62.582" style="stroke:#181818;stroke-width:1.0;" width="10" x="624.8901" y="219.1152"/><rect fill="#FFFFFF" height="93.873" style="stroke:#181818;stroke-width:1.0;" width="10" x="624.8901" y="377.5703"/><rect fill="#FFFFFF" height="31.291" style="stroke:#181818;stroke-width:1.0;" width="10" x="777.6724" y="408.8613"/><rect fill="#FFFFFF" height="292.6191" style="stroke:#181818;stroke-width:1.0;" width="10" x="900.1201" y="250.4063"/><rect fill="none" height="50.582" style="stroke:#000000;stroke-width:1.5;" width="374.2505" x="175.2471" y="296.6973"/><line style="stroke:#181818;stroke-width:0.5;stroke-dasharray:5.0,5.0;" x1="46" x2="46" y1="123.2422" y2="552.0254"/><line style="stroke:#181818;stroke-width:0.5;stroke-dasharray:5.0,5.0;" x1="221.2471" x2="221.2471" y1="123.2422" y2="552.0254"/><line style="stroke:#181818;stroke-width:0.5;stroke-dasharray:5.0,5.0;" x1="473.2358" x2="473.2358" y1="123.2422" y2="552.0254"/><line style="stroke:#181818;stroke-width:0.5;stroke-dasharray:5.0,5.0;" x1="629.4766" x2="629.4766" y1="123.2422" y2="552.0254"/><line style="stroke:#181818;stroke-width:0.5;stroke-dasharray:5.0,5.0;" x1="782.3037" x2="782.3037" y1="123.2422" y2="552.0254"/><line style="stroke:#181818;stroke-width:0.5;stroke-dasharray:5.0,5.0;" x1="905.041" x2="905.041" y1="123.2422" y2="552.0254"/><text fill="#000000" font-family="sans-serif" font-size="14" lengthAdjust="spacing" textLength="76.2344" x="5" y="119.7285">HTTP Client</text><ellipse cx="46.1172" cy="53.1211" fill="#E2E2F0" rx="8" ry="8" style="stroke:#181818;stroke-width:0.5;"/><path d="M46.1172,61.1211 L46.1172,88.1211 M33.1172,69.1211 L59.1172,69.1211 M46.1172,88.1211 L33.1172,103.1211 M46.1172,88.1211 L59.1172,103.1211 " fill="none" style="stroke:#181818;stroke-width:0.5;"/><text fill="#000000" font-family="sans-serif" font-size="14" lengthAdjust="spacing" textLength="76.2344" x="5" y="566.1328">HTTP Client</text><ellipse cx="46.1172" cy="578.1465" fill="#E2E2F0" rx="8" ry="8" style="stroke:#181818;stroke-width:0.5;"/><path d="M46.1172,586.1465 L46.1172,613.1465 M33.1172,594.1465 L59.1172,594.1465 M46.1172,613.1465 L33.1172,628.1465 M46.1172,613.1465 L59.1172,628.1465 " fill="none" style="stroke:#181818;stroke-width:0.5;"/><rect fill="#E2E2F0" height="32.6211" rx="2.5" ry="2.5" style="stroke:#181818;stroke-width:0.5;" width="72.3652" x="185.2471" y="89.6211"/><text fill="#000000" font-family="sans-serif" font-size="14" lengthAdjust="spacing" textLength="58.3652" x="192.2471" y="111.7285">:BookAPI</text><rect fill="#E2E2F0" height="32.6211" rx="2.5" ry="2.5" style="stroke:#181818;stroke-width:0.5;" width="72.3652" x="185.2471" y="551.0254"/><text fill="#000000" font-family="sans-serif" font-size="14" lengthAdjust="spacing" textLength="58.3652" x="192.2471" y="573.1328">:BookAPI</text><rect fill="#E2E2F0" height="32.6211" rx="2.5" ry="2.5" style="stroke:#181818;stroke-width:0.5;" width="132.2617" x="407.2358" y="89.6211"/><text fill="#000000" font-family="sans-serif" font-size="14" lengthAdjust="spacing" textLength="118.2617" x="414.2358" y="111.7285">Ctrl:BookController</text><rect fill="#E2E2F0" height="32.6211" rx="2.5" ry="2.5" style="stroke:#181818;stroke-width:0.5;" width="132.2617" x="407.2358" y="551.0254"/><text fill="#000000" font-family="sans-serif" font-size="14" lengthAdjust="spacing" textLength="118.2617" x="414.2358" y="573.1328">Ctrl:BookController</text><rect fill="#E2E2F0" height="32.6211" rx="2.5" ry="2.5" style="stroke:#181818;stroke-width:0.5;" width="140.8271" x="559.4766" y="89.6211"/><text fill="#000000" font-family="sans-serif" font-size="14" lengthAdjust="spacing" textLength="126.8271" x="566.4766" y="111.7285">service:BookService</text><rect fill="#E2E2F0" height="32.6211" rx="2.5" ry="2.5" style="stroke:#181818;stroke-width:0.5;" width="140.8271" x="559.4766" y="551.0254"/><text fill="#000000" font-family="sans-serif" font-size="14" lengthAdjust="spacing" textLength="126.8271" x="566.4766" y="573.1328">service:BookService</text><rect fill="#E2E2F0" height="32.6211" rx="2.5" ry="2.5" style="stroke:#181818;stroke-width:0.5;" width="144.7373" x="710.3037" y="89.6211"/><text fill="#000000" font-family="sans-serif" font-size="14" lengthAdjust="spacing" textLength="130.7373" x="717.3037" y="111.7285">repo:BookRepository</text><rect fill="#E2E2F0" height="32.6211" rx="2.5" ry="2.5" style="stroke:#181818;stroke-width:0.5;" width="144.7373" x="710.3037" y="551.0254"/><text fill="#000000" font-family="sans-serif" font-size="14" lengthAdjust="spacing" textLength="130.7373" x="717.3037" y="573.1328">repo:BookRepository</text><rect fill="#E2E2F0" height="32.6211" rx="2.5" ry="2.5" style="stroke:#181818;stroke-width:0.5;" width="80.1582" x="865.041" y="89.6211"/><text fill="#000000" font-family="sans-serif" font-size="14" lengthAdjust="spacing" textLength="66.1582" x="872.041" y="111.7285">book:Book</text><rect fill="#E2E2F0" height="32.6211" rx="2.5" ry="2.5" style="stroke:#181818;stroke-width:0.5;" width="80.1582" x="865.041" y="551.0254"/><text fill="#000000" font-family="sans-serif" font-size="14" lengthAdjust="spacing" textLength="66.1582" x="872.041" y="573.1328">book:Book</text><rect fill="#FFFFFF" height="409.7832" style="stroke:#181818;stroke-width:1.0;" width="10" x="41.1172" y="133.2422"/><rect fill="#FFFFFF" height="386.4922" style="stroke:#181818;stroke-width:1.0;" width="10" x="216.4297" y="156.5332"/><rect fill="#FFFFFF" height="194.7461" style="stroke:#181818;stroke-width:1.0;" width="10" x="221.4297" y="339.2793"/><rect fill="#FFFFFF" height="314.9102" style="stroke:#181818;stroke-width:1.0;" width="10" x="468.3667" y="187.8242"/><rect fill="#FFFFFF" height="62.582" style="stroke:#181818;stroke-width:1.0;" width="10" x="624.8901" y="219.1152"/><rect fill="#FFFFFF" height="93.873" style="stroke:#181818;stroke-width:1.0;" width="10" x="624.8901" y="377.5703"/><rect fill="#FFFFFF" height="31.291" style="stroke:#181818;stroke-width:1.0;" width="10" x="777.6724" y="408.8613"/><rect fill="#FFFFFF" height="292.6191" style="stroke:#181818;stroke-width:1.0;" width="10" x="900.1201" y="250.4063"/><polygon fill="#181818" points="204.4297,152.5332,214.4297,156.5332,204.4297,160.5332,208.4297,156.5332" style="stroke:#181818;stroke-width:1.0;"/><line style="stroke:#181818;stroke-width:1.0;" x1="51.1172" x2="210.4297" y1="156.5332" y2="156.5332"/><text fill="#000000" font-family="sans-serif" font-size="13" font-weight="bold" lengthAdjust="spacing" textLength="7.23" x="58.1172" y="151.2705">1</text><text fill="#000000" font-family="sans-serif" font-size="13" lengthAdjust="spacing" textLength="125.0171" x="69.3472" y="151.2705">PUT /api/books/{isbn}</text><polygon fill="#181818" points="456.3667,183.8242,466.3667,187.8242,456.3667,191.8242,460.3667,187.8242" style="stroke:#181818;stroke-width:1.0;"/><line style="stroke:#181818;stroke-width:1.0;" x1="226.4297" x2="462.3667" y1="187.8242" y2="187.8242"/><text fill="#000000" font-family="sans-serif" font-size="13" font-weight="bold" lengthAdjust="spacing" textLength="7.23" x="233.4297" y="182.5615">2</text><text fill="#000000" font-family="sans-serif" font-size="13" lengthAdjust="spacing" textLength="211.707" x="244.6597" y="182.5615">registerBook(RegisterBookRequest);</text><polygon fill="#181818" points="612.8901,215.1152,622.8901,219.1152,612.8901,223.1152,616.8901,219.1152" style="stroke:#181818;stroke-width:1.0;"/><line style="stroke:#181818;stroke-width:1.0;" x1="478.3667" x2="618.8901" y1="219.1152" y2="219.1152"/><text fill="#000000" font-family="sans-serif" font-size="13" font-weight="bold" lengthAdjust="spacing" textLength="7.23" x="485.3667" y="213.8525">3</text><text fill="#000000" font-family="sans-serif" font-size="13" lengthAdjust="spacing" textLength="114.1499" x="496.5967" y="213.8525">create(title, isbn, ...)</text><polygon fill="#181818" points="888.1201,246.4063,898.1201,250.4063,888.1201,254.4063,892.1201,250.4063" style="stroke:#181818;stroke-width:1.0;"/><line style="stroke:#181818;stroke-width:1.0;" x1="634.8901" x2="894.1201" y1="250.4063" y2="250.4063"/><text fill="#000000" font-family="sans-serif" font-size="13" font-weight="bold" lengthAdjust="spacing" textLength="7.23" x="641.8901" y="245.1436">4</text><text fill="#000000" font-family="sans-serif" font-size="13" lengthAdjust="spacing" textLength="107.6499" x="653.1201" y="245.1436">Book(title, isbn, ...)</text><polygon fill="#181818" points="489.3667,277.6973,479.3667,281.6973,489.3667,285.6973,485.3667,281.6973" style="stroke:#181818;stroke-width:1.0;"/><line style="stroke:#181818;stroke-width:1.0;stroke-dasharray:2.0,2.0;" x1="483.3667" x2="628.8901" y1="281.6973" y2="281.6973"/><text fill="#000000" font-family="sans-serif" font-size="13" font-weight="bold" lengthAdjust="spacing" textLength="7.23" x="495.3667" y="276.4346">5</text><text fill="#000000" font-family="sans-serif" font-size="13" lengthAdjust="spacing" textLength="104.0635" x="506.5967" y="276.4346">Book or exception</text><path d="M175.2471,296.6973 L235.418,296.6973 L235.418,305.9883 L225.418,315.9883 L175.2471,315.9883 L175.2471,296.6973 " fill="#EEEEEE" style="stroke:#000000;stroke-width:1.5;"/><rect fill="none" height="50.582" style="stroke:#000000;stroke-width:1.5;" width="374.2505" x="175.2471" y="296.6973"/><text fill="#000000" font-family="sans-serif" font-size="13" font-weight="bold" lengthAdjust="spacing" textLength="15.1709" x="190.2471" y="311.7256">alt</text><text fill="#000000" font-family="sans-serif" font-size="11" font-weight="bold" lengthAdjust="spacing" textLength="128.353" x="250.418" y="310.5674">[If exception is returned]</text><polygon fill="#181818" points="242.4297,335.2793,232.4297,339.2793,242.4297,343.2793,238.4297,339.2793" style="stroke:#181818;stroke-width:1.0;"/><line style="stroke:#181818;stroke-width:1.0;" x1="236.4297" x2="467.3667" y1="339.2793" y2="339.2793"/><text fill="#000000" font-family="sans-serif" font-size="13" font-weight="bold" lengthAdjust="spacing" textLength="7.23" x="248.4297" y="334.0166">6</text><text fill="#000000" font-family="sans-serif" font-size="13" lengthAdjust="spacing" textLength="98.2808" x="259.6597" y="334.0166">Book is duplicate</text><polygon fill="#181818" points="612.8901,373.5703,622.8901,377.5703,612.8901,381.5703,616.8901,377.5703" style="stroke:#181818;stroke-width:1.0;"/><line style="stroke:#181818;stroke-width:1.0;" x1="478.3667" x2="618.8901" y1="377.5703" y2="377.5703"/><text fill="#000000" font-family="sans-serif" font-size="13" font-weight="bold" lengthAdjust="spacing" textLength="7.23" x="485.3667" y="372.3076">7</text><text fill="#000000" font-family="sans-serif" font-size="13" lengthAdjust="spacing" textLength="64.3081" x="496.5967" y="372.3076">save(book)</text><polygon fill="#181818" points="765.6724,404.8613,775.6724,408.8613,765.6724,412.8613,769.6724,408.8613" style="stroke:#181818;stroke-width:1.0;"/><line style="stroke:#181818;stroke-width:1.0;" x1="634.8901" x2="771.6724" y1="408.8613" y2="408.8613"/><text fill="#000000" font-family="sans-serif" font-size="13" font-weight="bold" lengthAdjust="spacing" textLength="7.23" x="641.8901" y="403.5986">8</text><text fill="#000000" font-family="sans-serif" font-size="13" lengthAdjust="spacing" textLength="64.3081" x="653.1201" y="403.5986">save(book)</text><polygon fill="#181818" points="645.8901,436.1523,635.8901,440.1523,645.8901,444.1523,641.8901,440.1523" style="stroke:#181818;stroke-width:1.0;"/><line style="stroke:#181818;stroke-width:1.0;stroke-dasharray:2.0,2.0;" x1="639.8901" x2="781.6724" y1="440.1523" y2="440.1523"/><text fill="#000000" font-family="sans-serif" font-size="13" font-weight="bold" lengthAdjust="spacing" textLength="7.23" x="651.8901" y="434.8896">9</text><text fill="#000000" font-family="sans-serif" font-size="13" lengthAdjust="spacing" textLength="104.0635" x="663.1201" y="434.8896">Book or exception</text><polygon fill="#181818" points="489.3667,467.4434,479.3667,471.4434,489.3667,475.4434,485.3667,471.4434" style="stroke:#181818;stroke-width:1.0;"/><line style="stroke:#181818;stroke-width:1.0;stroke-dasharray:2.0,2.0;" x1="483.3667" x2="628.8901" y1="471.4434" y2="471.4434"/><text fill="#000000" font-family="sans-serif" font-size="13" font-weight="bold" lengthAdjust="spacing" textLength="14.46" x="495.3667" y="466.1807">10</text><text fill="#000000" font-family="sans-serif" font-size="13" lengthAdjust="spacing" textLength="104.0635" x="513.8267" y="466.1807">Book or exception</text><polygon fill="#181818" points="242.4297,498.7344,232.4297,502.7344,242.4297,506.7344,238.4297,502.7344" style="stroke:#181818;stroke-width:1.0;"/><line style="stroke:#181818;stroke-width:1.0;stroke-dasharray:2.0,2.0;" x1="236.4297" x2="472.3667" y1="502.7344" y2="502.7344"/><text fill="#000000" font-family="sans-serif" font-size="13" font-weight="bold" lengthAdjust="spacing" textLength="14.46" x="248.4297" y="497.4717">11</text><text fill="#000000" font-family="sans-serif" font-size="13" lengthAdjust="spacing" textLength="28.1899" x="266.8896" y="497.4717">book</text><polygon fill="#181818" points="62.1172,530.0254,52.1172,534.0254,62.1172,538.0254,58.1172,534.0254" style="stroke:#181818;stroke-width:1.0;"/><line style="stroke:#181818;stroke-width:1.0;stroke-dasharray:2.0,2.0;" x1="56.1172" x2="215.4297" y1="534.0254" y2="534.0254"/><text fill="#000000" font-family="sans-serif" font-size="13" font-weight="bold" lengthAdjust="spacing" textLength="14.46" x="68.1172" y="528.7627">12</text><text fill="#000000" font-family="sans-serif" font-size="13" lengthAdjust="spacing" textLength="122.8525" x="86.5771" y="528.7627">201 - registered book</text><!--SRC=[ZP71JiCm38RlUGfh5pPfQu5ZaP36BkmsTUC1ijICY3GfYJkO4EzEd5RTAX2YXyfnllpwV_lgXQW9HPutHbfgQvCfL-S1trgq2XULbWSlQo5RSbAHFaf2S3QTRLllqGj1cWn2YGST23r8iFWEU-TUGGOmUk-brz8A4Tyx3vF7tMu3AwFHqeI9fNNsLBisY4PwqaetqGXCYeUeiDoi4xCzHUbw3Ap8cmIjd2NlZ46VMEwFoO3-g1KcUDlLdMfNZs6FZKja6OkWe-LJWlau9ZbY8jCz5obZDwDpAZ6KiBZlanImUTf1BXkTiqh8FtNOsoyXkci6Kppm_LHPVLfU74hUKA3PdH1C9ka-9YYFqS8qxMKEh3o7BCjceYSOPeqY_V_Y1XyCGjmUVYXiI3jUfo5OFvyxKI3QfTPRh0J4R_3LHquQ4QhQncWL7GgqrI_sWppYbCSoCipp7zrn8paS7luq-QyWdO4Bewm_R2BsXmKMS7jz0ujXArXrx3S0]--></g></svg>