<svg xmlns="http://www.w3.org/2000/svg" xmlns:xlink="http://www.w3.org/1999/xlink" contentStyleType="text/css" height="414px" preserveAspectRatio="none" style="width:357px;height:414px;background:#FFFFFF;" version="1.1" viewBox="0 0 357 414" width="357px" zoomAndPan="magnify"><title>Update a books data as librarian</title><defs/><g><text fill="#000000" font-family="sans-serif" font-size="14" font-weight="bold" lengthAdjust="spacing" textLength="215.5098" x="72.0784" y="30.1074">Update a books data as librarian</text><rect fill="#FFFFFF" height="189.0859" style="stroke:#181818;stroke-width:1.0;" width="10" x="58.4551" y="133.2422"/><rect fill="#FFFFFF" height="57.582" style="stroke:#181818;stroke-width:1.0;" width="10" x="241.7612" y="156.5332"/><rect fill="#FFFFFF" height="36.291" style="stroke:#181818;stroke-width:1.0;" width="10" x="241.7612" y="270.0371"/><rect fill="none" height="142.7949" style="stroke:#000000;stroke-width:1.5;" width="340.6665" x="10" y="171.5332"/><line style="stroke:#181818;stroke-width:0.5;stroke-dasharray:5.0,5.0;" x1="63" x2="63" y1="123.2422" y2="331.3281"/><line style="stroke:#181818;stroke-width:0.5;stroke-dasharray:5.0,5.0;" x1="246.7373" x2="246.7373" y1="123.2422" y2="331.3281"/><text fill="#000000" font-family="sans-serif" font-size="14" lengthAdjust="spacing" textLength="80.9102" x="20" y="119.7285">HTTP CLient</text><ellipse cx="63.4551" cy="53.1211" fill="#E2E2F0" rx="8" ry="8" style="stroke:#181818;stroke-width:0.5;"/><path d="M63.4551,61.1211 L63.4551,88.1211 M50.4551,69.1211 L76.4551,69.1211 M63.4551,88.1211 L50.4551,103.1211 M63.4551,88.1211 L76.4551,103.1211 " fill="none" style="stroke:#181818;stroke-width:0.5;"/><text fill="#000000" font-family="sans-serif" font-size="14" lengthAdjust="spacing" textLength="80.9102" x="20" y="345.4355">HTTP CLient</text><ellipse cx="63.4551" cy="357.4492" fill="#E2E2F0" rx="8" ry="8" style="stroke:#181818;stroke-width:0.5;"/><path d="M63.4551,365.4492 L63.4551,392.4492 M50.4551,373.4492 L76.4551,373.4492 M63.4551,392.4492 L50.4551,407.4492 M63.4551,392.4492 L76.4551,407.4492 " fill="none" style="stroke:#181818;stroke-width:0.5;"/><rect fill="#E2E2F0" height="32.6211" rx="2.5" ry="2.5" style="stroke:#181818;stroke-width:0.5;" width="84.0479" x="204.7373" y="89.6211"/><text fill="#000000" font-family="sans-serif" font-size="14" lengthAdjust="spacing" textLength="70.0479" x="211.7373" y="111.7285">:Book:book</text><rect fill="#E2E2F0" height="32.6211" rx="2.5" ry="2.5" style="stroke:#181818;stroke-width:0.5;" width="84.0479" x="204.7373" y="330.3281"/><text fill="#000000" font-family="sans-serif" font-size="14" lengthAdjust="spacing" textLength="70.0479" x="211.7373" y="352.4355">:Book:book</text><rect fill="#FFFFFF" height="189.0859" style="stroke:#181818;stroke-width:1.0;" width="10" x="58.4551" y="133.2422"/><rect fill="#FFFFFF" height="57.582" style="stroke:#181818;stroke-width:1.0;" width="10" x="241.7612" y="156.5332"/><rect fill="#FFFFFF" height="36.291" style="stroke:#181818;stroke-width:1.0;" width="10" x="241.7612" y="270.0371"/><polygon fill="#181818" points="229.7612,152.5332,239.7612,156.5332,229.7612,160.5332,233.7612,156.5332" style="stroke:#181818;stroke-width:1.0;"/><line style="stroke:#181818;stroke-width:1.0;" x1="68.4551" x2="235.7612" y1="156.5332" y2="156.5332"/><text fill="#000000" font-family="sans-serif" font-size="13" font-weight="bold" lengthAdjust="spacing" textLength="7.23" x="75.4551" y="151.2705">1</text><text fill="#000000" font-family="sans-serif" font-size="13" lengthAdjust="spacing" textLength="143.0762" x="86.6851" y="151.2705">PATCH /api/books/{isbn}</text><path d="M10,171.5332 L70.1709,171.5332 L70.1709,180.8242 L60.1709,190.8242 L10,190.8242 L10,171.5332 " fill="#EEEEEE" style="stroke:#000000;stroke-width:1.5;"/><rect fill="none" height="142.7949" style="stroke:#000000;stroke-width:1.5;" width="340.6665" x="10" y="171.5332"/><text fill="#000000" font-family="sans-serif" font-size="13" font-weight="bold" lengthAdjust="spacing" textLength="15.1709" x="25" y="186.5615">alt</text><text fill="#000000" font-family="sans-serif" font-size="11" font-weight="bold" lengthAdjust="spacing" textLength="100.8584" x="85.1709" y="185.4033">[If there is an error]</text><polygon fill="#181818" points="79.4551,210.1152,69.4551,214.1152,79.4551,218.1152,75.4551,214.1152" style="stroke:#181818;stroke-width:1.0;"/><line style="stroke:#181818;stroke-width:1.0;stroke-dasharray:2.0,2.0;" x1="73.4551" x2="245.7612" y1="214.1152" y2="214.1152"/><text fill="#000000" font-family="sans-serif" font-size="13" font-weight="bold" lengthAdjust="spacing" textLength="7.23" x="85.4551" y="208.8525">2</text><text fill="#000000" font-family="sans-serif" font-size="13" lengthAdjust="spacing" textLength="111.2935" x="96.6851" y="208.8525">400/404/409 - error</text><line style="stroke:#000000;stroke-width:1.0;stroke-dasharray:2.0,2.0;" x1="10" x2="350.6665" y1="223.1152" y2="223.1152"/><text fill="#000000" font-family="sans-serif" font-size="11" font-weight="bold" lengthAdjust="spacing" textLength="51.9707" x="15" y="234.9854">[Success]</text><line style="stroke:#181818;stroke-width:1.0;" x1="246.7612" x2="293.7612" y1="257.0371" y2="257.0371"/><line style="stroke:#181818;stroke-width:1.0;" x1="293.7612" x2="293.7612" y1="257.0371" y2="270.0371"/><line style="stroke:#181818;stroke-width:1.0;" x1="252.7612" x2="293.7612" y1="270.0371" y2="270.0371"/><polygon fill="#181818" points="262.7612,266.0371,252.7612,270.0371,262.7612,274.0371,258.7612,270.0371" style="stroke:#181818;stroke-width:1.0;"/><text fill="#000000" font-family="sans-serif" font-size="13" font-weight="bold" lengthAdjust="spacing" textLength="7.23" x="258.7612" y="251.7744">3</text><text fill="#000000" font-family="sans-serif" font-size="13" lengthAdjust="spacing" textLength="68.6753" x="269.9912" y="251.7744">update data</text><polygon fill="#181818" points="79.4551,302.3281,69.4551,306.3281,79.4551,310.3281,75.4551,306.3281" style="stroke:#181818;stroke-width:1.0;"/><line style="stroke:#181818;stroke-width:1.0;stroke-dasharray:2.0,2.0;" x1="73.4551" x2="245.7612" y1="306.3281" y2="306.3281"/><text fill="#000000" font-family="sans-serif" font-size="13" font-weight="bold" lengthAdjust="spacing" textLength="7.23" x="85.4551" y="301.0654">4</text><text fill="#000000" font-family="sans-serif" font-size="13" lengthAdjust="spacing" textLength="112.0361" x="96.6851" y="301.0654">200 - updated book</text><!--SRC=[RP2nJiGm38PtFuLr2rD9XRhG0GbkEII64_GUm4qD5rsQXCHXGRmxIGeI0v4IoVB_Vx-TgxD8IADImPAJlDfhxLUL-3spqzmjXjuYhK1PF6an7oICthNQvNNc2216BECfBBL7E7j_ILWAGafepHmf6d80nUyZxWxJTCJzas4dkweufG895CLe4yeCk1iV2cAid2PuvYJGx5jyCq1ziRjhtH6FzzF-W8g2KIrVVPeqkoyWA_ZuYdBco6WIaaEEqKV0SgeLkyAeh167lbT3FvHxYzsFZ6rYVCbQSqf_FB-nULkwBViVygRl2sfJBUrdWDq2y0q0]--></g></svg>