<svg xmlns="http://www.w3.org/2000/svg" xmlns:xlink="http://www.w3.org/1999/xlink" contentStyleType="text/css" height="240px" preserveAspectRatio="none" style="width:608px;height:240px;background:#FFFFFF;" version="1.1" viewBox="0 0 608 240" width="608px" zoomAndPan="magnify"><defs/><g><!--cluster LMS--><g id="cluster_LMS"><rect fill="#ADD8E6" height="118" rx="2.5" ry="2.5" style="stroke:#000000;stroke-width:1.0;" width="585" x="7" y="7"/><text fill="#000000" font-family="sans-serif" font-size="12" font-style="italic" lengthAdjust="spacing" textLength="81.3691" x="258.8154" y="21.9492">&#171;Context (C4)&#187;</text><text fill="#000000" font-family="sans-serif" font-size="12" font-weight="bold" lengthAdjust="spacing" textLength="25.3301" x="286.835" y="37.9102">LMS</text></g><!--entity Auth--><g id="elem_Auth"><rect fill="#ADD8E6" height="51.9219" rx="2.5" ry="2.5" style="stroke:#000000;stroke-width:0.5;" width="112.0449" x="23" y="57"/><text fill="#000000" font-family="sans-serif" font-size="12" font-style="italic" lengthAdjust="spacing" textLength="92.0449" x="33" y="79.9492">&#171;Container (C4)&#187;</text><text fill="#000000" font-family="sans-serif" font-size="12" lengthAdjust="spacing" textLength="24.6855" x="66.6797" y="95.9102">Auth</text></g><!--entity Readers--><g id="elem_Readers"><rect fill="#ADD8E6" height="51.9219" rx="2.5" ry="2.5" style="stroke:#000000;stroke-width:0.5;" width="112.0449" x="170" y="57"/><text fill="#000000" font-family="sans-serif" font-size="12" font-style="italic" lengthAdjust="spacing" textLength="92.0449" x="180" y="79.9492">&#171;Container (C4)&#187;</text><text fill="#000000" font-family="sans-serif" font-size="12" lengthAdjust="spacing" textLength="45.3574" x="203.3438" y="95.9102">Readers</text></g><!--entity Lendings--><g id="elem_Lendings"><rect fill="#ADD8E6" height="51.9219" rx="2.5" ry="2.5" style="stroke:#000000;stroke-width:0.5;" width="112.0449" x="317" y="57"/><text fill="#000000" font-family="sans-serif" font-size="12" font-style="italic" lengthAdjust="spacing" textLength="92.0449" x="327" y="79.9492">&#171;Container (C4)&#187;</text><text fill="#000000" font-family="sans-serif" font-size="12" lengthAdjust="spacing" textLength="48.709" x="348.668" y="95.9102">Lendings</text></g><!--entity Books--><g id="elem_Books"><rect fill="#ADD8E6" height="51.9219" rx="2.5" ry="2.5" style="stroke:#000000;stroke-width:0.5;" width="112.0449" x="464" y="57"/><text fill="#000000" font-family="sans-serif" font-size="12" font-style="italic" lengthAdjust="spacing" textLength="92.0449" x="474" y="79.9492">&#171;Container (C4)&#187;</text><text fill="#000000" font-family="sans-serif" font-size="12" lengthAdjust="spacing" textLength="33.3516" x="503.3467" y="95.9102">Books</text></g><!--entity HTTP Auth API--><g id="elem_HTTP Auth API"><ellipse cx="57" cy="200" fill="#F1F1F1" rx="8" ry="8" style="stroke:#181818;stroke-width:0.5;"/><text fill="#000000" font-family="sans-serif" font-size="14" lengthAdjust="spacing" textLength="95.6963" x="9.1519" y="232.1074">HTTP Auth API</text></g><!--entity HTTP Readers API--><g id="elem_HTTP Readers API"><ellipse cx="214" cy="200" fill="#F1F1F1" rx="8" ry="8" style="stroke:#181818;stroke-width:0.5;"/><text fill="#000000" font-family="sans-serif" font-size="14" lengthAdjust="spacing" textLength="119.8135" x="154.0933" y="232.1074">HTTP Readers API</text></g><!--entity HTTP Lendings API--><g id="elem_HTTP Lendings API"><ellipse cx="385" cy="200" fill="#F1F1F1" rx="8" ry="8" style="stroke:#181818;stroke-width:0.5;"/><text fill="#000000" font-family="sans-serif" font-size="14" lengthAdjust="spacing" textLength="123.7236" x="323.1382" y="232.1074">HTTP Lendings API</text></g><!--entity HTTP Books API--><g id="elem_HTTP Books API"><ellipse cx="549" cy="200" fill="#F1F1F1" rx="8" ry="8" style="stroke:#181818;stroke-width:0.5;"/><text fill="#000000" font-family="sans-serif" font-size="14" lengthAdjust="spacing" textLength="105.8066" x="496.0967" y="232.1074">HTTP Books API</text></g><!--link Auth to HTTP Auth API--><g id="link_Auth_HTTP Auth API"><path d="M74.17,109.24 C69.21,135.16 63.6578,164.1779 60.4478,180.9679 " fill="none" id="Auth-to-HTTP Auth API" style="stroke:#000000;stroke-width:1.0;"/><ellipse cx="58.57" cy="190.79" fill="#FFFFFF" rx="6" ry="6" style="stroke:#000000;stroke-width:1.5;"/><path d="M66.8431,185.1726 A10,10 0 0 0 52.9526 182.5169" fill="#FFFFFF" style="stroke:#000000;stroke-width:1.5;"/></g><!--link Readers to HTTP Readers API--><g id="link_Readers_HTTP Readers API"><path d="M223.37,109.24 C220.66,135.16 217.6467,164.0539 215.8967,180.8439 " fill="none" id="Readers-to-HTTP Readers API" style="stroke:#000000;stroke-width:1.0;"/><ellipse cx="214.86" cy="190.79" fill="#FFFFFF" rx="6" ry="6" style="stroke:#000000;stroke-width:1.5;"/><path d="M222.626,184.4901 A10,10 0 0 0 208.5601 183.024" fill="#FFFFFF" style="stroke:#000000;stroke-width:1.5;"/></g><!--link Lendings to HTTP Lendings API--><g id="link_Lendings_HTTP Lendings API"><path d="M375.63,109.24 C378.34,135.16 381.3533,164.0539 383.1033,180.8439 " fill="none" id="Lendings-to-HTTP Lendings API" style="stroke:#000000;stroke-width:1.0;"/><ellipse cx="384.14" cy="190.79" fill="#FFFFFF" rx="6" ry="6" style="stroke:#000000;stroke-width:1.5;"/><path d="M390.4399,183.024 A10,10 0 0 0 376.374 184.4901" fill="#FFFFFF" style="stroke:#000000;stroke-width:1.5;"/></g><!--link Books to HTTP Books API--><g id="link_Books_HTTP Books API"><path d="M526.36,109.24 C532.9,135.16 540.257,164.303 544.487,181.093 " fill="none" id="Books-to-HTTP Books API" style="stroke:#000000;stroke-width:1.0;"/><ellipse cx="546.93" cy="190.79" fill="#FFFFFF" rx="6" ry="6" style="stroke:#000000;stroke-width:1.5;"/><path d="M552.0593,182.2057 A10,10 0 0 0 538.3457 185.6607" fill="#FFFFFF" style="stroke:#000000;stroke-width:1.5;"/></g><!--SRC=[bP1BRy8m48Jl_XLRzq8FIBIggXuGKWZfGqeB2hbNRho4AC6BZ15zYFzUDp74ZOGgVFFiDvvPNqXS50eXYS8qU7sCexTm6ayJk0mca_leZctAGgs55Yl8QBKcXShCpMU5e34pGkKLUiXHWsy6zen5LkQQjag6L97kXZGCQOcwcRzNrb2h3sHpYY-4wvlZtMVsp8jL94ybxfQ5mHCvVzuGMjFEFTA1sgru_3BdC1o6jWr-6EY5jrUZaNDvMB0rImuE5FPxTOlMxBxhI53OTflpJ34gMQZyJDUOgFpFOhTcRej-lpS0_fIcC_WL89WzSzRszSPESqHRpaCEecDS5G-ebMRAs0y0]--></g></svg>