<svg xmlns="http://www.w3.org/2000/svg" xmlns:xlink="http://www.w3.org/1999/xlink" contentStyleType="text/css" height="414px" preserveAspectRatio="none" style="width:459px;height:414px;background:#FFFFFF;" version="1.1" viewBox="0 0 459 414" width="459px" zoomAndPan="magnify"><title>GET books by authorNumber as Reader</title><defs/><g><text fill="#000000" font-family="sans-serif" font-size="14" font-weight="bold" lengthAdjust="spacing" textLength="265.2822" x="98.0454" y="30.1074">GET books by authorNumber as Reader</text><rect fill="#FFFFFF" height="189.0859" style="stroke:#181818;stroke-width:1.0;" width="10" x="56.1172" y="133.2422"/><rect fill="#FFFFFF" height="57.582" style="stroke:#181818;stroke-width:1.0;" width="10" x="328.3096" y="156.5332"/><rect fill="#FFFFFF" height="36.291" style="stroke:#181818;stroke-width:1.0;" width="10" x="328.3096" y="270.0371"/><rect fill="none" height="142.7949" style="stroke:#000000;stroke-width:1.5;" width="442.373" x="10" y="171.5332"/><line style="stroke:#181818;stroke-width:0.5;stroke-dasharray:5.0,5.0;" x1="61" x2="61" y1="123.2422" y2="331.3281"/><line style="stroke:#181818;stroke-width:0.5;stroke-dasharray:5.0,5.0;" x1="333.2856" x2="333.2856" y1="123.2422" y2="331.3281"/><text fill="#000000" font-family="sans-serif" font-size="14" lengthAdjust="spacing" textLength="76.2344" x="20" y="119.7285">HTTP Client</text><ellipse cx="61.1172" cy="53.1211" fill="#E2E2F0" rx="8" ry="8" style="stroke:#181818;stroke-width:0.5;"/><path d="M61.1172,61.1211 L61.1172,88.1211 M48.1172,69.1211 L74.1172,69.1211 M61.1172,88.1211 L48.1172,103.1211 M61.1172,88.1211 L74.1172,103.1211 " fill="none" style="stroke:#181818;stroke-width:0.5;"/><text fill="#000000" font-family="sans-serif" font-size="14" lengthAdjust="spacing" textLength="76.2344" x="20" y="345.4355">HTTP Client</text><ellipse cx="61.1172" cy="357.4492" fill="#E2E2F0" rx="8" ry="8" style="stroke:#181818;stroke-width:0.5;"/><path d="M61.1172,365.4492 L61.1172,392.4492 M48.1172,373.4492 L74.1172,373.4492 M61.1172,392.4492 L48.1172,407.4492 M61.1172,392.4492 L74.1172,407.4492 " fill="none" style="stroke:#181818;stroke-width:0.5;"/><rect fill="#E2E2F0" height="32.6211" rx="2.5" ry="2.5" style="stroke:#181818;stroke-width:0.5;" width="84.0479" x="291.2856" y="89.6211"/><text fill="#000000" font-family="sans-serif" font-size="14" lengthAdjust="spacing" textLength="70.0479" x="298.2856" y="111.7285">:Book:book</text><rect fill="#E2E2F0" height="32.6211" rx="2.5" ry="2.5" style="stroke:#181818;stroke-width:0.5;" width="84.0479" x="291.2856" y="330.3281"/><text fill="#000000" font-family="sans-serif" font-size="14" lengthAdjust="spacing" textLength="70.0479" x="298.2856" y="352.4355">:Book:book</text><rect fill="#FFFFFF" height="189.0859" style="stroke:#181818;stroke-width:1.0;" width="10" x="56.1172" y="133.2422"/><rect fill="#FFFFFF" height="57.582" style="stroke:#181818;stroke-width:1.0;" width="10" x="328.3096" y="156.5332"/><rect fill="#FFFFFF" height="36.291" style="stroke:#181818;stroke-width:1.0;" width="10" x="328.3096" y="270.0371"/><polygon fill="#181818" points="316.3096,152.5332,326.3096,156.5332,316.3096,160.5332,320.3096,156.5332" style="stroke:#181818;stroke-width:1.0;"/><line style="stroke:#181818;stroke-width:1.0;" x1="66.1172" x2="322.3096" y1="156.5332" y2="156.5332"/><text fill="#000000" font-family="sans-serif" font-size="13" font-weight="bold" lengthAdjust="spacing" textLength="7.23" x="73.1172" y="151.2705">1</text><text fill="#000000" font-family="sans-serif" font-size="13" lengthAdjust="spacing" textLength="231.9624" x="84.3472" y="151.2705">GET /api/authors/{authorNumber}/books</text><path d="M10,171.5332 L70.1709,171.5332 L70.1709,180.8242 L60.1709,190.8242 L10,190.8242 L10,171.5332 " fill="#EEEEEE" style="stroke:#000000;stroke-width:1.5;"/><rect fill="none" height="142.7949" style="stroke:#000000;stroke-width:1.5;" width="442.373" x="10" y="171.5332"/><text fill="#000000" font-family="sans-serif" font-size="13" font-weight="bold" lengthAdjust="spacing" textLength="15.1709" x="25" y="186.5615">alt</text><text fill="#000000" font-family="sans-serif" font-size="11" font-weight="bold" lengthAdjust="spacing" textLength="100.8584" x="85.1709" y="185.4033">[If there is an error]</text><polygon fill="#181818" points="77.1172,210.1152,67.1172,214.1152,77.1172,218.1152,73.1172,214.1152" style="stroke:#181818;stroke-width:1.0;"/><line style="stroke:#181818;stroke-width:1.0;stroke-dasharray:2.0,2.0;" x1="71.1172" x2="332.3096" y1="214.1152" y2="214.1152"/><text fill="#000000" font-family="sans-serif" font-size="13" font-weight="bold" lengthAdjust="spacing" textLength="7.23" x="83.1172" y="208.8525">2</text><text fill="#000000" font-family="sans-serif" font-size="13" lengthAdjust="spacing" textLength="111.2935" x="94.3472" y="208.8525">400/404/409 - error</text><line style="stroke:#000000;stroke-width:1.0;stroke-dasharray:2.0,2.0;" x1="10" x2="452.373" y1="223.1152" y2="223.1152"/><text fill="#000000" font-family="sans-serif" font-size="11" font-weight="bold" lengthAdjust="spacing" textLength="51.9707" x="15" y="234.9854">[Success]</text><line style="stroke:#181818;stroke-width:1.0;" x1="333.3096" x2="380.3096" y1="257.0371" y2="257.0371"/><line style="stroke:#181818;stroke-width:1.0;" x1="380.3096" x2="380.3096" y1="257.0371" y2="270.0371"/><line style="stroke:#181818;stroke-width:1.0;" x1="339.3096" x2="380.3096" y1="270.0371" y2="270.0371"/><polygon fill="#181818" points="349.3096,266.0371,339.3096,270.0371,349.3096,274.0371,345.3096,270.0371" style="stroke:#181818;stroke-width:1.0;"/><text fill="#000000" font-family="sans-serif" font-size="13" font-weight="bold" lengthAdjust="spacing" textLength="7.23" x="345.3096" y="251.7744">3</text><text fill="#000000" font-family="sans-serif" font-size="13" lengthAdjust="spacing" textLength="83.8335" x="356.5396" y="251.7744">Resquest data</text><polygon fill="#181818" points="77.1172,302.3281,67.1172,306.3281,77.1172,310.3281,73.1172,306.3281" style="stroke:#181818;stroke-width:1.0;"/><line style="stroke:#181818;stroke-width:1.0;stroke-dasharray:2.0,2.0;" x1="71.1172" x2="332.3096" y1="306.3281" y2="306.3281"/><text fill="#000000" font-family="sans-serif" font-size="13" font-weight="bold" lengthAdjust="spacing" textLength="7.23" x="83.1172" y="301.0654">4</text><text fill="#000000" font-family="sans-serif" font-size="13" lengthAdjust="spacing" textLength="185.0024" x="94.3472" y="301.0654">200 - ListResponse&lt;BookView&gt;</text><!--SRC=[RP31IiGm48RlUOfXBvvgYlHYaJqeeeA8QF4-JKSRJ9EOcIeYlhjfkWiz64X2ClzyVCd9A1AvrJewz39FxjI4IJDzpEGDLOF5juIJmba26h6VA0J1bxEVfvwIKcB54TnSTz27yCxGVqCkZo4zb00WmnFXi4Gp8YJOtNRT8rmvIrvsctB49DROc4LWrrvcMBiG3n4MLG2hmv6uxb3jIw8j6XgZrQi2wv-jowykYfdZ1EvUGKPA19O1FL1A8Id8Oo51LP0Bl8MchdLJDtcUGtK8acE2vzaOOjvq7Jtochymtmme-3_rhAupxTwov58CdkbYUVEBfQ-z8Z-eFm00]--></g></svg>