<svg xmlns="http://www.w3.org/2000/svg" xmlns:xlink="http://www.w3.org/1999/xlink" contentStyleType="text/css" height="808px" preserveAspectRatio="none" style="width:1711px;height:808px;background:#FFFFFF;" version="1.1" viewBox="0 0 1711 808" width="1711px" zoomAndPan="magnify"><title>GET books by authorNumber as Reader</title><defs/><g><text fill="#000000" font-family="sans-serif" font-size="14" font-weight="bold" lengthAdjust="spacing" textLength="265.2822" x="721.897" y="30.1074">GET books by authorNumber as Reader</text><rect fill="#FFFFFF" height="582.8691" style="stroke:#181818;stroke-width:1.0;" width="10" x="56.1172" y="133.2422"/><rect fill="#FFFFFF" height="495.6563" style="stroke:#181818;stroke-width:1.0;" width="10" x="328.3096" y="156.5332"/><rect fill="#FFFFFF" height="406.7832" style="stroke:#181818;stroke-width:1.0;" width="10" x="567.9702" y="187.8242"/><rect fill="#FFFFFF" height="93.873" style="stroke:#181818;stroke-width:1.0;" width="10" x="856.7554" y="219.1152"/><rect fill="#FFFFFF" height="93.873" style="stroke:#181818;stroke-width:1.0;" width="10" x="856.7554" y="344.2793"/><rect fill="#FFFFFF" height="31.291" style="stroke:#181818;stroke-width:1.0;" width="10" x="1109.4097" y="250.4063"/><rect fill="#FFFFFF" height="31.291" style="stroke:#181818;stroke-width:1.0;" width="10" x="1272.3159" y="375.5703"/><rect fill="#FFFFFF" height="31.291" style="stroke:#181818;stroke-width:1.0;" width="10" x="1442.2256" y="469.4434"/><rect fill="#FFFFFF" height="31.291" style="stroke:#181818;stroke-width:1.0;" width="10" x="1619.9214" y="532.0254"/><rect fill="none" height="98.5039" style="stroke:#000000;stroke-width:1.5;" width="369.4922" x="10" y="609.6074"/><line style="stroke:#181818;stroke-width:0.5;stroke-dasharray:5.0,5.0;" x1="61" x2="61" y1="123.2422" y2="725.1113"/><line style="stroke:#181818;stroke-width:0.5;stroke-dasharray:5.0,5.0;" x1="333.127" x2="333.127" y1="123.2422" y2="725.1113"/><line style="stroke:#181818;stroke-width:0.5;stroke-dasharray:5.0,5.0;" x1="572.6704" x2="572.6704" y1="123.2422" y2="725.1113"/><line style="stroke:#181818;stroke-width:0.5;stroke-dasharray:5.0,5.0;" x1="861.1729" x2="861.1729" y1="123.2422" y2="725.1113"/><line style="stroke:#181818;stroke-width:0.5;stroke-dasharray:5.0,5.0;" x1="1113.8721" x2="1113.8721" y1="123.2422" y2="725.1113"/><line style="stroke:#181818;stroke-width:0.5;stroke-dasharray:5.0,5.0;" x1="1276.9473" x2="1276.9473" y1="123.2422" y2="725.1113"/><line style="stroke:#181818;stroke-width:0.5;stroke-dasharray:5.0,5.0;" x1="1446.6846" x2="1446.6846" y1="123.2422" y2="725.1113"/><line style="stroke:#181818;stroke-width:0.5;stroke-dasharray:5.0,5.0;" x1="1624.7666" x2="1624.7666" y1="123.2422" y2="725.1113"/><text fill="#000000" font-family="sans-serif" font-size="14" lengthAdjust="spacing" textLength="76.2344" x="20" y="119.7285">HTTP Client</text><ellipse cx="61.1172" cy="53.1211" fill="#E2E2F0" rx="8" ry="8" style="stroke:#181818;stroke-width:0.5;"/><path d="M61.1172,61.1211 L61.1172,88.1211 M48.1172,69.1211 L74.1172,69.1211 M61.1172,88.1211 L48.1172,103.1211 M61.1172,88.1211 L74.1172,103.1211 " fill="none" style="stroke:#181818;stroke-width:0.5;"/><text fill="#000000" font-family="sans-serif" font-size="14" lengthAdjust="spacing" textLength="76.2344" x="20" y="739.2188">HTTP Client</text><ellipse cx="61.1172" cy="751.2324" fill="#E2E2F0" rx="8" ry="8" style="stroke:#181818;stroke-width:0.5;"/><path d="M61.1172,759.2324 L61.1172,786.2324 M48.1172,767.2324 L74.1172,767.2324 M61.1172,786.2324 L48.1172,801.2324 M61.1172,786.2324 L74.1172,801.2324 " fill="none" style="stroke:#181818;stroke-width:0.5;"/><rect fill="#E2E2F0" height="32.6211" rx="2.5" ry="2.5" style="stroke:#181818;stroke-width:0.5;" width="72.3652" x="297.127" y="89.6211"/><text fill="#000000" font-family="sans-serif" font-size="14" lengthAdjust="spacing" textLength="58.3652" x="304.127" y="111.7285">:BookAPI</text><rect fill="#E2E2F0" height="32.6211" rx="2.5" ry="2.5" style="stroke:#181818;stroke-width:0.5;" width="72.3652" x="297.127" y="724.1113"/><text fill="#000000" font-family="sans-serif" font-size="14" lengthAdjust="spacing" textLength="58.3652" x="304.127" y="746.2188">:BookAPI</text><rect fill="#E2E2F0" height="32.6211" rx="2.5" ry="2.5" style="stroke:#181818;stroke-width:0.5;" width="148.5996" x="498.6704" y="89.6211"/><text fill="#000000" font-family="sans-serif" font-size="14" lengthAdjust="spacing" textLength="134.5996" x="505.6704" y="111.7285">Ctrl:AuthorsController</text><rect fill="#E2E2F0" height="32.6211" rx="2.5" ry="2.5" style="stroke:#181818;stroke-width:0.5;" width="148.5996" x="498.6704" y="724.1113"/><text fill="#000000" font-family="sans-serif" font-size="14" lengthAdjust="spacing" textLength="134.5996" x="505.6704" y="746.2188">Ctrl:AuthorsController</text><rect fill="#E2E2F0" height="32.6211" rx="2.5" ry="2.5" style="stroke:#181818;stroke-width:0.5;" width="157.165" x="783.1729" y="89.6211"/><text fill="#000000" font-family="sans-serif" font-size="14" lengthAdjust="spacing" textLength="143.165" x="790.1729" y="111.7285">service:AuthorsService</text><rect fill="#E2E2F0" height="32.6211" rx="2.5" ry="2.5" style="stroke:#181818;stroke-width:0.5;" width="157.165" x="783.1729" y="724.1113"/><text fill="#000000" font-family="sans-serif" font-size="14" lengthAdjust="spacing" textLength="143.165" x="790.1729" y="746.2188">service:AuthorsService</text><rect fill="#E2E2F0" height="32.6211" rx="2.5" ry="2.5" style="stroke:#181818;stroke-width:0.5;" width="161.0752" x="1033.8721" y="89.6211"/><text fill="#000000" font-family="sans-serif" font-size="14" lengthAdjust="spacing" textLength="147.0752" x="1040.8721" y="111.7285">repo:AuthorsRepository</text><rect fill="#E2E2F0" height="32.6211" rx="2.5" ry="2.5" style="stroke:#181818;stroke-width:0.5;" width="161.0752" x="1033.8721" y="724.1113"/><text fill="#000000" font-family="sans-serif" font-size="14" lengthAdjust="spacing" textLength="147.0752" x="1040.8721" y="746.2188">repo:AuthorsRepository</text><rect fill="#E2E2F0" height="32.6211" rx="2.5" ry="2.5" style="stroke:#181818;stroke-width:0.5;" width="144.7373" x="1204.9473" y="89.6211"/><text fill="#000000" font-family="sans-serif" font-size="14" lengthAdjust="spacing" textLength="130.7373" x="1211.9473" y="111.7285">repo:BookRepository</text><rect fill="#E2E2F0" height="32.6211" rx="2.5" ry="2.5" style="stroke:#181818;stroke-width:0.5;" width="144.7373" x="1204.9473" y="724.1113"/><text fill="#000000" font-family="sans-serif" font-size="14" lengthAdjust="spacing" textLength="130.7373" x="1211.9473" y="746.2188">repo:BookRepository</text><rect fill="#E2E2F0" height="32.6211" rx="2.5" ry="2.5" style="stroke:#181818;stroke-width:0.5;" width="175.082" x="1359.6846" y="89.6211"/><text fill="#000000" font-family="sans-serif" font-size="14" lengthAdjust="spacing" textLength="161.082" x="1366.6846" y="111.7285">mapper:BookViewMapper</text><rect fill="#E2E2F0" height="32.6211" rx="2.5" ry="2.5" style="stroke:#181818;stroke-width:0.5;" width="175.082" x="1359.6846" y="724.1113"/><text fill="#000000" font-family="sans-serif" font-size="14" lengthAdjust="spacing" textLength="161.082" x="1366.6846" y="746.2188">mapper:BookViewMapper</text><rect fill="#E2E2F0" height="32.6211" rx="2.5" ry="2.5" style="stroke:#181818;stroke-width:0.5;" width="160.3096" x="1544.7666" y="89.6211"/><text fill="#000000" font-family="sans-serif" font-size="14" lengthAdjust="spacing" textLength="146.3096" x="1551.7666" y="111.7285">response:ListResponse</text><rect fill="#E2E2F0" height="32.6211" rx="2.5" ry="2.5" style="stroke:#181818;stroke-width:0.5;" width="160.3096" x="1544.7666" y="724.1113"/><text fill="#000000" font-family="sans-serif" font-size="14" lengthAdjust="spacing" textLength="146.3096" x="1551.7666" y="746.2188">response:ListResponse</text><rect fill="#FFFFFF" height="582.8691" style="stroke:#181818;stroke-width:1.0;" width="10" x="56.1172" y="133.2422"/><rect fill="#FFFFFF" height="495.6563" style="stroke:#181818;stroke-width:1.0;" width="10" x="328.3096" y="156.5332"/><rect fill="#FFFFFF" height="406.7832" style="stroke:#181818;stroke-width:1.0;" width="10" x="567.9702" y="187.8242"/><rect fill="#FFFFFF" height="93.873" style="stroke:#181818;stroke-width:1.0;" width="10" x="856.7554" y="219.1152"/><rect fill="#FFFFFF" height="93.873" style="stroke:#181818;stroke-width:1.0;" width="10" x="856.7554" y="344.2793"/><rect fill="#FFFFFF" height="31.291" style="stroke:#181818;stroke-width:1.0;" width="10" x="1109.4097" y="250.4063"/><rect fill="#FFFFFF" height="31.291" style="stroke:#181818;stroke-width:1.0;" width="10" x="1272.3159" y="375.5703"/><rect fill="#FFFFFF" height="31.291" style="stroke:#181818;stroke-width:1.0;" width="10" x="1442.2256" y="469.4434"/><rect fill="#FFFFFF" height="31.291" style="stroke:#181818;stroke-width:1.0;" width="10" x="1619.9214" y="532.0254"/><polygon fill="#181818" points="316.3096,152.5332,326.3096,156.5332,316.3096,160.5332,320.3096,156.5332" style="stroke:#181818;stroke-width:1.0;"/><line style="stroke:#181818;stroke-width:1.0;" x1="66.1172" x2="322.3096" y1="156.5332" y2="156.5332"/><text fill="#000000" font-family="sans-serif" font-size="13" font-weight="bold" lengthAdjust="spacing" textLength="7.23" x="73.1172" y="151.2705">1</text><text fill="#000000" font-family="sans-serif" font-size="13" lengthAdjust="spacing" textLength="231.9624" x="84.3472" y="151.2705">GET /api/authors/{authorNumber}/books</text><polygon fill="#181818" points="555.9702,183.8242,565.9702,187.8242,555.9702,191.8242,559.9702,187.8242" style="stroke:#181818;stroke-width:1.0;"/><line style="stroke:#181818;stroke-width:1.0;" x1="338.3096" x2="561.9702" y1="187.8242" y2="187.8242"/><text fill="#000000" font-family="sans-serif" font-size="13" font-weight="bold" lengthAdjust="spacing" textLength="7.23" x="345.3096" y="182.5615">2</text><text fill="#000000" font-family="sans-serif" font-size="13" lengthAdjust="spacing" textLength="199.4307" x="356.5396" y="182.5615">getBooksByAuthor(authorNumber)</text><polygon fill="#181818" points="844.7554,215.1152,854.7554,219.1152,844.7554,223.1152,848.7554,219.1152" style="stroke:#181818;stroke-width:1.0;"/><line style="stroke:#181818;stroke-width:1.0;" x1="577.9702" x2="850.7554" y1="219.1152" y2="219.1152"/><text fill="#000000" font-family="sans-serif" font-size="13" font-weight="bold" lengthAdjust="spacing" textLength="7.23" x="584.9702" y="213.8525">3</text><text fill="#000000" font-family="sans-serif" font-size="13" lengthAdjust="spacing" textLength="212.4243" x="596.2002" y="213.8525">findByAuthorNumber(authorNumber)</text><polygon fill="#181818" points="1097.4097,246.4063,1107.4097,250.4063,1097.4097,254.4063,1101.4097,250.4063" style="stroke:#181818;stroke-width:1.0;"/><line style="stroke:#181818;stroke-width:1.0;" x1="866.7554" x2="1103.4097" y1="250.4063" y2="250.4063"/><text fill="#000000" font-family="sans-serif" font-size="13" font-weight="bold" lengthAdjust="spacing" textLength="7.23" x="873.7554" y="245.1436">4</text><text fill="#000000" font-family="sans-serif" font-size="13" lengthAdjust="spacing" textLength="212.4243" x="884.9854" y="245.1436">findByAuthorNumber(authorNumber)</text><polygon fill="#181818" points="877.7554,277.6973,867.7554,281.6973,877.7554,285.6973,873.7554,281.6973" style="stroke:#181818;stroke-width:1.0;"/><line style="stroke:#181818;stroke-width:1.0;stroke-dasharray:2.0,2.0;" x1="871.7554" x2="1113.4097" y1="281.6973" y2="281.6973"/><text fill="#000000" font-family="sans-serif" font-size="13" font-weight="bold" lengthAdjust="spacing" textLength="7.23" x="883.7554" y="276.4346">5</text><text fill="#000000" font-family="sans-serif" font-size="13" lengthAdjust="spacing" textLength="171.2661" x="894.9854" y="276.4346">Author or NotFoundException</text><polygon fill="#181818" points="588.9702,308.9883,578.9702,312.9883,588.9702,316.9883,584.9702,312.9883" style="stroke:#181818;stroke-width:1.0;"/><line style="stroke:#181818;stroke-width:1.0;stroke-dasharray:2.0,2.0;" x1="582.9702" x2="860.7554" y1="312.9883" y2="312.9883"/><text fill="#000000" font-family="sans-serif" font-size="13" font-weight="bold" lengthAdjust="spacing" textLength="7.23" x="594.9702" y="307.7256">6</text><text fill="#000000" font-family="sans-serif" font-size="13" lengthAdjust="spacing" textLength="38.3018" x="606.2002" y="307.7256">Author</text><polygon fill="#181818" points="844.7554,340.2793,854.7554,344.2793,844.7554,348.2793,848.7554,344.2793" style="stroke:#181818;stroke-width:1.0;"/><line style="stroke:#181818;stroke-width:1.0;" x1="577.9702" x2="850.7554" y1="344.2793" y2="344.2793"/><text fill="#000000" font-family="sans-serif" font-size="13" font-weight="bold" lengthAdjust="spacing" textLength="7.23" x="584.9702" y="339.0166">7</text><text fill="#000000" font-family="sans-serif" font-size="13" lengthAdjust="spacing" textLength="248.5552" x="596.2002" y="339.0166">findBooksByAuthorNumber(authorNumber)</text><polygon fill="#181818" points="1260.3159,371.5703,1270.3159,375.5703,1260.3159,379.5703,1264.3159,375.5703" style="stroke:#181818;stroke-width:1.0;"/><line style="stroke:#181818;stroke-width:1.0;" x1="866.7554" x2="1266.3159" y1="375.5703" y2="375.5703"/><text fill="#000000" font-family="sans-serif" font-size="13" font-weight="bold" lengthAdjust="spacing" textLength="7.23" x="873.7554" y="370.3076">8</text><text fill="#000000" font-family="sans-serif" font-size="13" lengthAdjust="spacing" textLength="248.5552" x="884.9854" y="370.3076">findBooksByAuthorNumber(authorNumber)</text><polygon fill="#181818" points="877.7554,402.8613,867.7554,406.8613,877.7554,410.8613,873.7554,406.8613" style="stroke:#181818;stroke-width:1.0;"/><line style="stroke:#181818;stroke-width:1.0;stroke-dasharray:2.0,2.0;" x1="871.7554" x2="1276.3159" y1="406.8613" y2="406.8613"/><text fill="#000000" font-family="sans-serif" font-size="13" font-weight="bold" lengthAdjust="spacing" textLength="7.23" x="883.7554" y="401.5986">9</text><text fill="#000000" font-family="sans-serif" font-size="13" lengthAdjust="spacing" textLength="65.0444" x="894.9854" y="401.5986">List&lt;Book&gt;</text><polygon fill="#181818" points="588.9702,434.1523,578.9702,438.1523,588.9702,442.1523,584.9702,438.1523" style="stroke:#181818;stroke-width:1.0;"/><line style="stroke:#181818;stroke-width:1.0;stroke-dasharray:2.0,2.0;" x1="582.9702" x2="860.7554" y1="438.1523" y2="438.1523"/><text fill="#000000" font-family="sans-serif" font-size="13" font-weight="bold" lengthAdjust="spacing" textLength="14.46" x="594.9702" y="432.8896">10</text><text fill="#000000" font-family="sans-serif" font-size="13" lengthAdjust="spacing" textLength="65.0444" x="613.4302" y="432.8896">List&lt;Book&gt;</text><polygon fill="#181818" points="1430.2256,465.4434,1440.2256,469.4434,1430.2256,473.4434,1434.2256,469.4434" style="stroke:#181818;stroke-width:1.0;"/><line style="stroke:#181818;stroke-width:1.0;" x1="577.9702" x2="1436.2256" y1="469.4434" y2="469.4434"/><text fill="#000000" font-family="sans-serif" font-size="13" font-weight="bold" lengthAdjust="spacing" textLength="14.46" x="584.9702" y="464.1807">11</text><text fill="#000000" font-family="sans-serif" font-size="13" lengthAdjust="spacing" textLength="142.3525" x="603.4302" y="464.1807">toBookView(List&lt;Book&gt;)</text><polygon fill="#181818" points="588.9702,496.7344,578.9702,500.7344,588.9702,504.7344,584.9702,500.7344" style="stroke:#181818;stroke-width:1.0;"/><line style="stroke:#181818;stroke-width:1.0;stroke-dasharray:2.0,2.0;" x1="582.9702" x2="1446.2256" y1="500.7344" y2="500.7344"/><text fill="#000000" font-family="sans-serif" font-size="13" font-weight="bold" lengthAdjust="spacing" textLength="14.46" x="594.9702" y="495.4717">12</text><text fill="#000000" font-family="sans-serif" font-size="13" lengthAdjust="spacing" textLength="93.2217" x="613.4302" y="495.4717">List&lt;BookView&gt;</text><polygon fill="#181818" points="1607.9214,528.0254,1617.9214,532.0254,1607.9214,536.0254,1611.9214,532.0254" style="stroke:#181818;stroke-width:1.0;"/><line style="stroke:#181818;stroke-width:1.0;" x1="577.9702" x2="1613.9214" y1="532.0254" y2="532.0254"/><text fill="#000000" font-family="sans-serif" font-size="13" font-weight="bold" lengthAdjust="spacing" textLength="14.46" x="584.9702" y="526.7627">13</text><text fill="#000000" font-family="sans-serif" font-size="13" lengthAdjust="spacing" textLength="208.1079" x="603.4302" y="526.7627">new ListResponse(List&lt;BookView&gt;)</text><polygon fill="#181818" points="588.9702,559.3164,578.9702,563.3164,588.9702,567.3164,584.9702,563.3164" style="stroke:#181818;stroke-width:1.0;"/><line style="stroke:#181818;stroke-width:1.0;stroke-dasharray:2.0,2.0;" x1="582.9702" x2="1623.9214" y1="563.3164" y2="563.3164"/><text fill="#000000" font-family="sans-serif" font-size="13" font-weight="bold" lengthAdjust="spacing" textLength="14.46" x="594.9702" y="558.0537">14</text><text fill="#000000" font-family="sans-serif" font-size="13" lengthAdjust="spacing" textLength="151.7598" x="613.4302" y="558.0537">ListResponse&lt;BookView&gt;</text><polygon fill="#181818" points="349.3096,590.6074,339.3096,594.6074,349.3096,598.6074,345.3096,594.6074" style="stroke:#181818;stroke-width:1.0;"/><line style="stroke:#181818;stroke-width:1.0;stroke-dasharray:2.0,2.0;" x1="343.3096" x2="571.9702" y1="594.6074" y2="594.6074"/><text fill="#000000" font-family="sans-serif" font-size="13" font-weight="bold" lengthAdjust="spacing" textLength="14.46" x="355.3096" y="589.3447">15</text><text fill="#000000" font-family="sans-serif" font-size="13" lengthAdjust="spacing" textLength="151.7598" x="373.7695" y="589.3447">ListResponse&lt;BookView&gt;</text><path d="M10,609.6074 L70.1709,609.6074 L70.1709,618.8984 L60.1709,628.8984 L10,628.8984 L10,609.6074 " fill="#EEEEEE" style="stroke:#000000;stroke-width:1.5;"/><rect fill="none" height="98.5039" style="stroke:#000000;stroke-width:1.5;" width="369.4922" x="10" y="609.6074"/><text fill="#000000" font-family="sans-serif" font-size="13" font-weight="bold" lengthAdjust="spacing" textLength="15.1709" x="25" y="624.6357">alt</text><text fill="#000000" font-family="sans-serif" font-size="11" font-weight="bold" lengthAdjust="spacing" textLength="100.8584" x="85.1709" y="623.4775">[If there is an error]</text><polygon fill="#181818" points="77.1172,648.1895,67.1172,652.1895,77.1172,656.1895,73.1172,652.1895" style="stroke:#181818;stroke-width:1.0;"/><line style="stroke:#181818;stroke-width:1.0;stroke-dasharray:2.0,2.0;" x1="71.1172" x2="332.3096" y1="652.1895" y2="652.1895"/><text fill="#000000" font-family="sans-serif" font-size="13" font-weight="bold" lengthAdjust="spacing" textLength="14.46" x="83.1172" y="646.9268">16</text><text fill="#000000" font-family="sans-serif" font-size="13" lengthAdjust="spacing" textLength="111.2935" x="101.5771" y="646.9268">400/404/409 - error</text><line style="stroke:#000000;stroke-width:1.0;stroke-dasharray:2.0,2.0;" x1="10" x2="379.4922" y1="661.1895" y2="661.1895"/><text fill="#000000" font-family="sans-serif" font-size="11" font-weight="bold" lengthAdjust="spacing" textLength="51.9707" x="15" y="673.0596">[Success]</text><polygon fill="#181818" points="77.1172,696.1113,67.1172,700.1113,77.1172,704.1113,73.1172,700.1113" style="stroke:#181818;stroke-width:1.0;"/><line style="stroke:#181818;stroke-width:1.0;stroke-dasharray:2.0,2.0;" x1="71.1172" x2="332.3096" y1="700.1113" y2="700.1113"/><text fill="#000000" font-family="sans-serif" font-size="13" font-weight="bold" lengthAdjust="spacing" textLength="14.46" x="83.1172" y="694.8486">17</text><text fill="#000000" font-family="sans-serif" font-size="13" lengthAdjust="spacing" textLength="185.0024" x="101.5771" y="694.8486">200 - ListResponse&lt;BookView&gt;</text><!--SRC=[ZPDDRzim38Rl_XL4BaiFcOqXbmb3WJRejW9RKQJ1xehDDi9iIPFeTi6m_pvzn9Nb9bY210x9zw7u8R_R4MdBobAtN5BVjUzhrPKMV_KeQrmqWZyPtXMy9yLh4i-S49GCjkoxBPgY844jmfUR3MoL-cbXkmSNtYbp5mJ0BQoHDrxgKYW3iw-RpJsiMe6IPgEmveP4BRGh16RisYMxkhyz22pbuHMPbbs5O-nAIJAgRT44SJ9pnA9v5ZKEr4Cq0n9T1qzE6THgGDRklnMkXVs8IiuZe6zYGkMkdEcurcW2zKFWo_TWlbB9DJt9QYKjic_2qlfW16hi2DEF2npM4P-mk0m3Pc679TUYZFkpvP_n8l-MORyUi-IXD6W6JqY-H7kzZrEPZycBeaXQJsRpPl0eP3E0aPZWcJubI6CyEqT2OF6sa6Y2-zuf-gnwsTpyhb6JS5T-KiEa_nWzfy_nbCvhDhynvwR9gMFT-jlnoSik_zFSI3XfCB-M34WDddc2OYr9TZg_rxmvOto96KXyoJpp7Bueni6Z9mt1KoU-lWwdnBmbk7q4sg5141Qu13J6RH_S9xuS8OT_kHWigwfSLalt-mYBWn1RLzj3NzTexN7gGrKvzOaAK3R5Fm00]--></g></svg>