<svg xmlns="http://www.w3.org/2000/svg" xmlns:xlink="http://www.w3.org/1999/xlink" contentStyleType="text/css" height="351px" preserveAspectRatio="none" style="width:566px;height:351px;background:#FFFFFF;" version="1.1" viewBox="0 0 566 351" width="566px" zoomAndPan="magnify"><title>GET top 5 authors by most lent books as Reader</title><defs/><g><text fill="#000000" font-family="sans-serif" font-size="14" font-weight="bold" lengthAdjust="spacing" textLength="323.6201" x="120.6384" y="30.1074">GET top 5 authors by most lent books as Reader</text><rect fill="#FFFFFF" height="126.1641" style="stroke:#181818;stroke-width:1.0;" width="10" x="41.1172" y="133.2422"/><rect fill="#FFFFFF" height="93.873" style="stroke:#181818;stroke-width:1.0;" width="10" x="321.9341" y="156.5332"/><rect fill="#FFFFFF" height="31.291" style="stroke:#181818;stroke-width:1.0;" width="10" x="494.4111" y="187.8242"/><line style="stroke:#181818;stroke-width:0.5;stroke-dasharray:5.0,5.0;" x1="46" x2="46" y1="123.2422" y2="268.4063"/><line style="stroke:#181818;stroke-width:0.5;stroke-dasharray:5.0,5.0;" x1="326.9102" x2="326.9102" y1="123.2422" y2="268.4063"/><line style="stroke:#181818;stroke-width:0.5;stroke-dasharray:5.0,5.0;" x1="498.9253" x2="498.9253" y1="123.2422" y2="268.4063"/><text fill="#000000" font-family="sans-serif" font-size="14" lengthAdjust="spacing" textLength="76.2344" x="5" y="119.7285">HTTP Client</text><ellipse cx="46.1172" cy="53.1211" fill="#E2E2F0" rx="8" ry="8" style="stroke:#181818;stroke-width:0.5;"/><path d="M46.1172,61.1211 L46.1172,88.1211 M33.1172,69.1211 L59.1172,69.1211 M46.1172,88.1211 L33.1172,103.1211 M46.1172,88.1211 L59.1172,103.1211 " fill="none" style="stroke:#181818;stroke-width:0.5;"/><text fill="#000000" font-family="sans-serif" font-size="14" lengthAdjust="spacing" textLength="76.2344" x="5" y="282.5137">HTTP Client</text><ellipse cx="46.1172" cy="294.5273" fill="#E2E2F0" rx="8" ry="8" style="stroke:#181818;stroke-width:0.5;"/><path d="M46.1172,302.5273 L46.1172,329.5273 M33.1172,310.5273 L59.1172,310.5273 M46.1172,329.5273 L33.1172,344.5273 M46.1172,329.5273 L59.1172,344.5273 " fill="none" style="stroke:#181818;stroke-width:0.5;"/><rect fill="#E2E2F0" height="32.6211" rx="2.5" ry="2.5" style="stroke:#181818;stroke-width:0.5;" width="84.0479" x="284.9102" y="89.6211"/><text fill="#000000" font-family="sans-serif" font-size="14" lengthAdjust="spacing" textLength="70.0479" x="291.9102" y="111.7285">:Book:book</text><rect fill="#E2E2F0" height="32.6211" rx="2.5" ry="2.5" style="stroke:#181818;stroke-width:0.5;" width="84.0479" x="284.9102" y="267.4063"/><text fill="#000000" font-family="sans-serif" font-size="14" lengthAdjust="spacing" textLength="70.0479" x="291.9102" y="289.5137">:Book:book</text><rect fill="#E2E2F0" height="32.6211" rx="2.5" ry="2.5" style="stroke:#181818;stroke-width:0.5;" width="122.9717" x="437.9253" y="89.6211"/><text fill="#000000" font-family="sans-serif" font-size="14" lengthAdjust="spacing" textLength="108.9717" x="444.9253" y="111.7285">:Lendings:ledings</text><rect fill="#E2E2F0" height="32.6211" rx="2.5" ry="2.5" style="stroke:#181818;stroke-width:0.5;" width="122.9717" x="437.9253" y="267.4063"/><text fill="#000000" font-family="sans-serif" font-size="14" lengthAdjust="spacing" textLength="108.9717" x="444.9253" y="289.5137">:Lendings:ledings</text><rect fill="#FFFFFF" height="126.1641" style="stroke:#181818;stroke-width:1.0;" width="10" x="41.1172" y="133.2422"/><rect fill="#FFFFFF" height="93.873" style="stroke:#181818;stroke-width:1.0;" width="10" x="321.9341" y="156.5332"/><rect fill="#FFFFFF" height="31.291" style="stroke:#181818;stroke-width:1.0;" width="10" x="494.4111" y="187.8242"/><polygon fill="#181818" points="309.9341,152.5332,319.9341,156.5332,309.9341,160.5332,313.9341,156.5332" style="stroke:#181818;stroke-width:1.0;"/><line style="stroke:#181818;stroke-width:1.0;" x1="51.1172" x2="315.9341" y1="156.5332" y2="156.5332"/><text fill="#000000" font-family="sans-serif" font-size="13" font-weight="bold" lengthAdjust="spacing" textLength="7.23" x="58.1172" y="151.2705">1</text><text fill="#000000" font-family="sans-serif" font-size="13" lengthAdjust="spacing" textLength="127.1816" x="69.3472" y="151.2705">GET /api/authors/top5</text><polygon fill="#181818" points="482.4111,183.8242,492.4111,187.8242,482.4111,191.8242,486.4111,187.8242" style="stroke:#181818;stroke-width:1.0;"/><line style="stroke:#181818;stroke-width:1.0;" x1="331.9341" x2="488.4111" y1="187.8242" y2="187.8242"/><text fill="#000000" font-family="sans-serif" font-size="13" font-weight="bold" lengthAdjust="spacing" textLength="7.23" x="338.9341" y="182.5615">2</text><text fill="#000000" font-family="sans-serif" font-size="13" lengthAdjust="spacing" textLength="132.2471" x="350.1641" y="182.5615">GET /api/lendings/top5</text><polygon fill="#181818" points="342.9341,215.1152,332.9341,219.1152,342.9341,223.1152,338.9341,219.1152" style="stroke:#181818;stroke-width:1.0;"/><line style="stroke:#181818;stroke-width:1.0;stroke-dasharray:2.0,2.0;" x1="336.9341" x2="498.4111" y1="219.1152" y2="219.1152"/><text fill="#000000" font-family="sans-serif" font-size="13" font-weight="bold" lengthAdjust="spacing" textLength="7.23" x="348.9341" y="213.8525">3</text><text fill="#000000" font-family="sans-serif" font-size="13" lengthAdjust="spacing" textLength="93.9517" x="360.1641" y="213.8525">ListResponse&lt;&gt;</text><polygon fill="#181818" points="62.1172,246.4063,52.1172,250.4063,62.1172,254.4063,58.1172,250.4063" style="stroke:#181818;stroke-width:1.0;"/><line style="stroke:#181818;stroke-width:1.0;stroke-dasharray:2.0,2.0;" x1="56.1172" x2="325.9341" y1="250.4063" y2="250.4063"/><text fill="#000000" font-family="sans-serif" font-size="13" font-weight="bold" lengthAdjust="spacing" textLength="7.23" x="68.1172" y="245.1436">4</text><text fill="#000000" font-family="sans-serif" font-size="13" lengthAdjust="spacing" textLength="235.5869" x="79.3472" y="245.1436">200 - [ListResponse&lt;AuthorCountView&gt;]</text><!--SRC=[NOy_QyCm4CLtVOh3IoTN8P1554CQIZDaACLqAHra-qX499rgdVhdsrTMtE1sEedtk_VUtPoOGrHI1giz9sTlUt8oudj2tsCz67qSjHCwCUcUpOTc1FBbxvFhS1I23Lk4nuSMc09i86id6YDqt-0eCbZq31tHEOAEy8nwcBQo6urGxTls2NRMPAPQo46FR7eJSYUer7rULfF3Z4J-1npG3yOVex9OPk6swQkWubhyD_ioeMwAbohTfGv6pjLbFcGZ9crYPfy5PkUu2pVhK5_z3YPoVWNo4UyQ8SH2dv8Lh5ShgE7r3xWjuJjAdbyCVZPluWS0]--></g></svg>