<svg xmlns="http://www.w3.org/2000/svg" xmlns:xlink="http://www.w3.org/1999/xlink" contentStyleType="text/css" height="557px" preserveAspectRatio="none" style="width:1014px;height:557px;background:#FFFFFF;" version="1.1" viewBox="0 0 1014 557" width="1014px" zoomAndPan="magnify"><title>POST user login as anonymous user</title><defs/><g><text fill="#000000" font-family="sans-serif" font-size="14" font-weight="bold" lengthAdjust="spacing" textLength="244.2822" x="384.1379" y="30.1074">POST user login as anonymous user</text><rect fill="#FFFFFF" height="332.541" style="stroke:#181818;stroke-width:1.0;" width="10" x="56.1172" y="133.2422"/><rect fill="#FFFFFF" height="245.3281" style="stroke:#181818;stroke-width:1.0;" width="10" x="235.0605" y="156.5332"/><rect fill="#FFFFFF" height="156.4551" style="stroke:#181818;stroke-width:1.0;" width="10" x="384.4067" y="187.8242"/><rect fill="#FFFFFF" height="93.873" style="stroke:#181818;stroke-width:1.0;" width="10" x="624.7974" y="219.1152"/><rect fill="#FFFFFF" height="31.291" style="stroke:#181818;stroke-width:1.0;" width="10" x="932.3652" y="250.4063"/><rect fill="none" height="98.5039" style="stroke:#000000;stroke-width:1.5;" width="274.688" x="10" y="359.2793"/><line style="stroke:#181818;stroke-width:0.5;stroke-dasharray:5.0,5.0;" x1="61" x2="61" y1="123.2422" y2="474.7832"/><line style="stroke:#181818;stroke-width:0.5;stroke-dasharray:5.0,5.0;" x1="239.4331" x2="239.4331" y1="123.2422" y2="474.7832"/><line style="stroke:#181818;stroke-width:0.5;stroke-dasharray:5.0,5.0;" x1="388.4517" x2="388.4517" y1="123.2422" y2="474.7832"/><line style="stroke:#181818;stroke-width:0.5;stroke-dasharray:5.0,5.0;" x1="629.5596" x2="629.5596" y1="123.2422" y2="474.7832"/><line style="stroke:#181818;stroke-width:0.5;stroke-dasharray:5.0,5.0;" x1="937.1724" x2="937.1724" y1="123.2422" y2="474.7832"/><text fill="#000000" font-family="sans-serif" font-size="14" lengthAdjust="spacing" textLength="76.2344" x="20" y="119.7285">HTTP Client</text><ellipse cx="61.1172" cy="53.1211" fill="#E2E2F0" rx="8" ry="8" style="stroke:#181818;stroke-width:0.5;"/><path d="M61.1172,61.1211 L61.1172,88.1211 M48.1172,69.1211 L74.1172,69.1211 M61.1172,88.1211 L48.1172,103.1211 M61.1172,88.1211 L74.1172,103.1211 " fill="none" style="stroke:#181818;stroke-width:0.5;"/><text fill="#000000" font-family="sans-serif" font-size="14" lengthAdjust="spacing" textLength="76.2344" x="20" y="488.8906">HTTP Client</text><ellipse cx="61.1172" cy="500.9043" fill="#E2E2F0" rx="8" ry="8" style="stroke:#181818;stroke-width:0.5;"/><path d="M61.1172,508.9043 L61.1172,535.9043 M48.1172,516.9043 L74.1172,516.9043 M61.1172,535.9043 L48.1172,550.9043 M61.1172,535.9043 L74.1172,550.9043 " fill="none" style="stroke:#181818;stroke-width:0.5;"/><rect fill="#E2E2F0" height="32.6211" rx="2.5" ry="2.5" style="stroke:#181818;stroke-width:0.5;" width="69.2549" x="205.4331" y="89.6211"/><text fill="#000000" font-family="sans-serif" font-size="14" lengthAdjust="spacing" textLength="55.2549" x="212.4331" y="111.7285">:AuthAPI</text><rect fill="#E2E2F0" height="32.6211" rx="2.5" ry="2.5" style="stroke:#181818;stroke-width:0.5;" width="69.2549" x="205.4331" y="473.7832"/><text fill="#000000" font-family="sans-serif" font-size="14" lengthAdjust="spacing" textLength="55.2549" x="212.4331" y="495.8906">:AuthAPI</text><rect fill="#E2E2F0" height="32.6211" rx="2.5" ry="2.5" style="stroke:#181818;stroke-width:0.5;" width="129.9102" x="324.4517" y="89.6211"/><text fill="#000000" font-family="sans-serif" font-size="14" lengthAdjust="spacing" textLength="115.9102" x="331.4517" y="111.7285">Ctrl:UserController</text><rect fill="#E2E2F0" height="32.6211" rx="2.5" ry="2.5" style="stroke:#181818;stroke-width:0.5;" width="129.9102" x="324.4517" y="473.7832"/><text fill="#000000" font-family="sans-serif" font-size="14" lengthAdjust="spacing" textLength="115.9102" x="331.4517" y="495.8906">Ctrl:UserController</text><rect fill="#E2E2F0" height="32.6211" rx="2.5" ry="2.5" style="stroke:#181818;stroke-width:0.5;" width="138.4756" x="560.5596" y="89.6211"/><text fill="#000000" font-family="sans-serif" font-size="14" lengthAdjust="spacing" textLength="124.4756" x="567.5596" y="111.7285">service:UserService</text><rect fill="#E2E2F0" height="32.6211" rx="2.5" ry="2.5" style="stroke:#181818;stroke-width:0.5;" width="138.4756" x="560.5596" y="473.7832"/><text fill="#000000" font-family="sans-serif" font-size="14" lengthAdjust="spacing" textLength="124.4756" x="567.5596" y="495.8906">service:UserService</text><rect fill="#E2E2F0" height="32.6211" rx="2.5" ry="2.5" style="stroke:#181818;stroke-width:0.5;" width="142.3857" x="866.1724" y="89.6211"/><text fill="#000000" font-family="sans-serif" font-size="14" lengthAdjust="spacing" textLength="128.3857" x="873.1724" y="111.7285">repo:UserRepository</text><rect fill="#E2E2F0" height="32.6211" rx="2.5" ry="2.5" style="stroke:#181818;stroke-width:0.5;" width="142.3857" x="866.1724" y="473.7832"/><text fill="#000000" font-family="sans-serif" font-size="14" lengthAdjust="spacing" textLength="128.3857" x="873.1724" y="495.8906">repo:UserRepository</text><rect fill="#FFFFFF" height="332.541" style="stroke:#181818;stroke-width:1.0;" width="10" x="56.1172" y="133.2422"/><rect fill="#FFFFFF" height="245.3281" style="stroke:#181818;stroke-width:1.0;" width="10" x="235.0605" y="156.5332"/><rect fill="#FFFFFF" height="156.4551" style="stroke:#181818;stroke-width:1.0;" width="10" x="384.4067" y="187.8242"/><rect fill="#FFFFFF" height="93.873" style="stroke:#181818;stroke-width:1.0;" width="10" x="624.7974" y="219.1152"/><rect fill="#FFFFFF" height="31.291" style="stroke:#181818;stroke-width:1.0;" width="10" x="932.3652" y="250.4063"/><polygon fill="#181818" points="223.0605,152.5332,233.0605,156.5332,223.0605,160.5332,227.0605,156.5332" style="stroke:#181818;stroke-width:1.0;"/><line style="stroke:#181818;stroke-width:1.0;" x1="66.1172" x2="229.0605" y1="156.5332" y2="156.5332"/><text fill="#000000" font-family="sans-serif" font-size="13" font-weight="bold" lengthAdjust="spacing" textLength="7.23" x="73.1172" y="151.2705">1</text><text fill="#000000" font-family="sans-serif" font-size="13" lengthAdjust="spacing" textLength="128.6226" x="84.3472" y="151.2705">POST /api/public/login</text><polygon fill="#181818" points="372.4067,183.8242,382.4067,187.8242,372.4067,191.8242,376.4067,187.8242" style="stroke:#181818;stroke-width:1.0;"/><line style="stroke:#181818;stroke-width:1.0;" x1="245.0605" x2="378.4067" y1="187.8242" y2="187.8242"/><text fill="#000000" font-family="sans-serif" font-size="13" font-weight="bold" lengthAdjust="spacing" textLength="7.23" x="252.0605" y="182.5615">2</text><text fill="#000000" font-family="sans-serif" font-size="13" lengthAdjust="spacing" textLength="109.1162" x="263.2905" y="182.5615">login(requestBody)</text><polygon fill="#181818" points="612.7974,215.1152,622.7974,219.1152,612.7974,223.1152,616.7974,219.1152" style="stroke:#181818;stroke-width:1.0;"/><line style="stroke:#181818;stroke-width:1.0;" x1="394.4067" x2="618.7974" y1="219.1152" y2="219.1152"/><text fill="#000000" font-family="sans-serif" font-size="13" font-weight="bold" lengthAdjust="spacing" textLength="7.23" x="401.4067" y="213.8525">3</text><text fill="#000000" font-family="sans-serif" font-size="13" lengthAdjust="spacing" textLength="200.1606" x="412.6367" y="213.8525">authenticate(username, password)</text><polygon fill="#181818" points="920.3652,246.4063,930.3652,250.4063,920.3652,254.4063,924.3652,250.4063" style="stroke:#181818;stroke-width:1.0;"/><line style="stroke:#181818;stroke-width:1.0;" x1="634.7974" x2="926.3652" y1="250.4063" y2="250.4063"/><text fill="#000000" font-family="sans-serif" font-size="13" font-weight="bold" lengthAdjust="spacing" textLength="7.23" x="641.7974" y="245.1436">4</text><text fill="#000000" font-family="sans-serif" font-size="13" lengthAdjust="spacing" textLength="267.3379" x="653.0273" y="245.1436">validateUserCredentials(username, password)</text><polygon fill="#181818" points="645.7974,277.6973,635.7974,281.6973,645.7974,285.6973,641.7974,281.6973" style="stroke:#181818;stroke-width:1.0;"/><line style="stroke:#181818;stroke-width:1.0;stroke-dasharray:2.0,2.0;" x1="639.7974" x2="936.3652" y1="281.6973" y2="281.6973"/><text fill="#000000" font-family="sans-serif" font-size="13" font-weight="bold" lengthAdjust="spacing" textLength="7.23" x="651.7974" y="276.4346">5</text><text fill="#000000" font-family="sans-serif" font-size="13" lengthAdjust="spacing" textLength="100.4136" x="663.0273" y="276.4346">validUser or error</text><polygon fill="#181818" points="405.4067,308.9883,395.4067,312.9883,405.4067,316.9883,401.4067,312.9883" style="stroke:#181818;stroke-width:1.0;"/><line style="stroke:#181818;stroke-width:1.0;stroke-dasharray:2.0,2.0;" x1="399.4067" x2="628.7974" y1="312.9883" y2="312.9883"/><text fill="#000000" font-family="sans-serif" font-size="13" font-weight="bold" lengthAdjust="spacing" textLength="7.23" x="411.4067" y="307.7256">6</text><text fill="#000000" font-family="sans-serif" font-size="13" lengthAdjust="spacing" textLength="78.0317" x="422.6367" y="307.7256">token or error</text><polygon fill="#181818" points="256.0605,340.2793,246.0605,344.2793,256.0605,348.2793,252.0605,344.2793" style="stroke:#181818;stroke-width:1.0;"/><line style="stroke:#181818;stroke-width:1.0;stroke-dasharray:2.0,2.0;" x1="250.0605" x2="388.4067" y1="344.2793" y2="344.2793"/><text fill="#000000" font-family="sans-serif" font-size="13" font-weight="bold" lengthAdjust="spacing" textLength="7.23" x="262.0605" y="339.0166">7</text><text fill="#000000" font-family="sans-serif" font-size="13" lengthAdjust="spacing" textLength="78.0317" x="273.2905" y="339.0166">token or error</text><path d="M10,359.2793 L70.1709,359.2793 L70.1709,368.5703 L60.1709,378.5703 L10,378.5703 L10,359.2793 " fill="#EEEEEE" style="stroke:#000000;stroke-width:1.5;"/><rect fill="none" height="98.5039" style="stroke:#000000;stroke-width:1.5;" width="274.688" x="10" y="359.2793"/><text fill="#000000" font-family="sans-serif" font-size="13" font-weight="bold" lengthAdjust="spacing" textLength="15.1709" x="25" y="374.3076">alt</text><text fill="#000000" font-family="sans-serif" font-size="11" font-weight="bold" lengthAdjust="spacing" textLength="100.8584" x="85.1709" y="373.1494">[If there is an error]</text><polygon fill="#181818" points="77.1172,397.8613,67.1172,401.8613,77.1172,405.8613,73.1172,401.8613" style="stroke:#181818;stroke-width:1.0;"/><line style="stroke:#181818;stroke-width:1.0;stroke-dasharray:2.0,2.0;" x1="71.1172" x2="239.0605" y1="401.8613" y2="401.8613"/><text fill="#000000" font-family="sans-serif" font-size="13" font-weight="bold" lengthAdjust="spacing" textLength="7.23" x="83.1172" y="396.5986">8</text><text fill="#000000" font-family="sans-serif" font-size="13" lengthAdjust="spacing" textLength="133.7134" x="94.3472" y="396.5986">401/403 - unauthorized</text><line style="stroke:#000000;stroke-width:1.0;stroke-dasharray:2.0,2.0;" x1="10" x2="284.688" y1="410.8613" y2="410.8613"/><text fill="#000000" font-family="sans-serif" font-size="11" font-weight="bold" lengthAdjust="spacing" textLength="51.9707" x="15" y="422.7314">[Success]</text><polygon fill="#181818" points="77.1172,445.7832,67.1172,449.7832,77.1172,453.7832,73.1172,449.7832" style="stroke:#181818;stroke-width:1.0;"/><line style="stroke:#181818;stroke-width:1.0;stroke-dasharray:2.0,2.0;" x1="71.1172" x2="239.0605" y1="449.7832" y2="449.7832"/><text fill="#000000" font-family="sans-serif" font-size="13" font-weight="bold" lengthAdjust="spacing" textLength="7.23" x="83.1172" y="444.5205">9</text><text fill="#000000" font-family="sans-serif" font-size="13" lengthAdjust="spacing" textLength="65.0444" x="94.3472" y="444.5205">200 - token</text><!--SRC=[RLBBRi8m4BpxArPS2bBJqCSfXqgKIpaL0Vq0usp1gcExwpKL_VhQJWIb8eTeuvd9p4voisVseQbhRwJbs9axvRewu5T4gx1gjToHx8ICxAHYVP2Cu6nvjh7R8Wd1cWt2ycszWHYGmBYTjY03IEliiNCnb7CXqWiSmUXrird2t6YqFCgqzmnwIQoLzYa4Z9fPvFrikIZm2WDVmdCcqsJLt5acPmnIOURpIsRY7BJ2GbxtSs4EyoMPqBl2NAKXw9JrE0JmheJljoznHRv3zLpIDVtojVIwzd5hjAfB1q9aDBDAuhwOCULk0x-uzZWH8YEPCIHg83MxJyrebRp6kJShExm5BqFuTjHEnC3ipLDYE4YZsyGkZH2sMIrDk2hE2gZ- -XLrsIPz6oHoT7Ou9MVtYVPCw4EVjl-72caO5X-GzY04dV-30O5qzPKaRVPiu6bwNpzD7w62QFFgZlGFjW9DG5X7fJ24QxA7wJH9Yh50sufV]--></g></svg>