<svg xmlns="http://www.w3.org/2000/svg" xmlns:xlink="http://www.w3.org/1999/xlink" contentStyleType="text/css" height="495px" preserveAspectRatio="none" style="width:443px;height:495px;background:#FFFFFF;" version="1.1" viewBox="0 0 443 495" width="443px" zoomAndPan="magnify"><title>Update an author's data as librarian</title><defs/><g><text fill="#000000" font-family="sans-serif" font-size="14" font-weight="bold" lengthAdjust="spacing" textLength="237.501" x="103.8738" y="30.1074">Update an author's data as librarian</text><rect fill="#FFFFFF" height="270.2988" style="stroke:#181818;stroke-width:1.0;" width="10" x="66.1172" y="133.2422"/><rect fill="#FFFFFF" height="83.873" style="stroke:#181818;stroke-width:1.0;" width="10" x="317.3433" y="156.5332"/><rect fill="#FFFFFF" height="59.9219" style="stroke:#181818;stroke-width:1.0;" width="10" x="317.3433" y="327.6191"/><rect fill="none" height="224.0078" style="stroke:#000000;stroke-width:1.5;" width="426.2485" x="10" y="171.5332"/><rect fill="none" height="142.7949" style="stroke:#000000;stroke-width:1.5;" width="406.2485" x="20" y="197.8242"/><line style="stroke:#181818;stroke-width:0.5;stroke-dasharray:5.0,5.0;" x1="71" x2="71" y1="123.2422" y2="412.541"/><line style="stroke:#181818;stroke-width:0.5;stroke-dasharray:5.0,5.0;" x1="322.3193" x2="322.3193" y1="123.2422" y2="412.541"/><text fill="#000000" font-family="sans-serif" font-size="14" lengthAdjust="spacing" textLength="76.2344" x="30" y="119.7285">HTTP Client</text><ellipse cx="71.1172" cy="53.1211" fill="#E2E2F0" rx="8" ry="8" style="stroke:#181818;stroke-width:0.5;"/><path d="M71.1172,61.1211 L71.1172,88.1211 M58.1172,69.1211 L84.1172,69.1211 M71.1172,88.1211 L58.1172,103.1211 M71.1172,88.1211 L84.1172,103.1211 " fill="none" style="stroke:#181818;stroke-width:0.5;"/><text fill="#000000" font-family="sans-serif" font-size="14" lengthAdjust="spacing" textLength="76.2344" x="30" y="426.6484">HTTP Client</text><ellipse cx="71.1172" cy="438.6621" fill="#E2E2F0" rx="8" ry="8" style="stroke:#181818;stroke-width:0.5;"/><path d="M71.1172,446.6621 L71.1172,473.6621 M58.1172,454.6621 L84.1172,454.6621 M71.1172,473.6621 L58.1172,488.6621 M71.1172,473.6621 L84.1172,488.6621 " fill="none" style="stroke:#181818;stroke-width:0.5;"/><rect fill="#E2E2F0" height="32.6211" rx="2.5" ry="2.5" style="stroke:#181818;stroke-width:0.5;" width="84.0479" x="280.3193" y="89.6211"/><text fill="#000000" font-family="sans-serif" font-size="14" lengthAdjust="spacing" textLength="70.0479" x="287.3193" y="111.7285">:Book:book</text><rect fill="#E2E2F0" height="32.6211" rx="2.5" ry="2.5" style="stroke:#181818;stroke-width:0.5;" width="84.0479" x="280.3193" y="411.541"/><text fill="#000000" font-family="sans-serif" font-size="14" lengthAdjust="spacing" textLength="70.0479" x="287.3193" y="433.6484">:Book:book</text><rect fill="#FFFFFF" height="270.2988" style="stroke:#181818;stroke-width:1.0;" width="10" x="66.1172" y="133.2422"/><rect fill="#FFFFFF" height="83.873" style="stroke:#181818;stroke-width:1.0;" width="10" x="317.3433" y="156.5332"/><rect fill="#FFFFFF" height="59.9219" style="stroke:#181818;stroke-width:1.0;" width="10" x="317.3433" y="327.6191"/><polygon fill="#181818" points="305.3433,152.5332,315.3433,156.5332,305.3433,160.5332,309.3433,156.5332" style="stroke:#181818;stroke-width:1.0;"/><line style="stroke:#181818;stroke-width:1.0;" x1="76.1172" x2="311.3433" y1="156.5332" y2="156.5332"/><text fill="#000000" font-family="sans-serif" font-size="13" font-weight="bold" lengthAdjust="spacing" textLength="7.23" x="83.1172" y="151.2705">1</text><text fill="#000000" font-family="sans-serif" font-size="13" lengthAdjust="spacing" textLength="210.9961" x="94.3472" y="151.2705">PATCH /api/authors/{authorNumber}</text><path d="M10,171.5332 L70.1709,171.5332 L70.1709,180.8242 L60.1709,190.8242 L10,190.8242 L10,171.5332 " fill="#EEEEEE" style="stroke:#000000;stroke-width:1.5;"/><rect fill="none" height="224.0078" style="stroke:#000000;stroke-width:1.5;" width="426.2485" x="10" y="171.5332"/><text fill="#000000" font-family="sans-serif" font-size="13" font-weight="bold" lengthAdjust="spacing" textLength="15.1709" x="25" y="186.5615">alt</text><text fill="#000000" font-family="sans-serif" font-size="11" font-weight="bold" lengthAdjust="spacing" textLength="97.147" x="85.1709" y="185.4033">[If author is found]</text><path d="M20,197.8242 L80.1709,197.8242 L80.1709,207.1152 L70.1709,217.1152 L20,217.1152 L20,197.8242 " fill="#EEEEEE" style="stroke:#000000;stroke-width:1.5;"/><rect fill="none" height="142.7949" style="stroke:#000000;stroke-width:1.5;" width="406.2485" x="20" y="197.8242"/><text fill="#000000" font-family="sans-serif" font-size="13" font-weight="bold" lengthAdjust="spacing" textLength="15.1709" x="35" y="212.8525">alt</text><text fill="#000000" font-family="sans-serif" font-size="11" font-weight="bold" lengthAdjust="spacing" textLength="177.2407" x="95.1709" y="211.6943">[If there is an error during update]</text><polygon fill="#181818" points="87.1172,236.4063,77.1172,240.4063,87.1172,244.4063,83.1172,240.4063" style="stroke:#181818;stroke-width:1.0;"/><line style="stroke:#181818;stroke-width:1.0;stroke-dasharray:2.0,2.0;" x1="81.1172" x2="321.3433" y1="240.4063" y2="240.4063"/><text fill="#000000" font-family="sans-serif" font-size="13" font-weight="bold" lengthAdjust="spacing" textLength="7.23" x="93.1172" y="235.1436">2</text><text fill="#000000" font-family="sans-serif" font-size="13" lengthAdjust="spacing" textLength="85.9917" x="104.3472" y="235.1436">400/409 - error</text><line style="stroke:#000000;stroke-width:1.0;stroke-dasharray:2.0,2.0;" x1="20" x2="426.2485" y1="249.4063" y2="249.4063"/><text fill="#000000" font-family="sans-serif" font-size="11" font-weight="bold" lengthAdjust="spacing" textLength="51.9707" x="25" y="261.2764">[Success]</text><polygon fill="#181818" points="87.1172,284.3281,77.1172,288.3281,87.1172,292.3281,83.1172,288.3281" style="stroke:#181818;stroke-width:1.0;"/><line style="stroke:#181818;stroke-width:1.0;stroke-dasharray:2.0,2.0;" x1="81.1172" x2="321.3433" y1="288.3281" y2="288.3281"/><text fill="#000000" font-family="sans-serif" font-size="13" font-weight="bold" lengthAdjust="spacing" textLength="7.23" x="93.1172" y="283.0654">3</text><text fill="#000000" font-family="sans-serif" font-size="13" lengthAdjust="spacing" textLength="120.707" x="104.3472" y="283.0654">200 - author updated</text><line style="stroke:#181818;stroke-width:1.0;" x1="322.3433" x2="369.3433" y1="314.6191" y2="314.6191"/><line style="stroke:#181818;stroke-width:1.0;" x1="369.3433" x2="369.3433" y1="314.6191" y2="327.6191"/><line style="stroke:#181818;stroke-width:1.0;" x1="328.3433" x2="369.3433" y1="327.6191" y2="327.6191"/><polygon fill="#181818" points="338.3433,323.6191,328.3433,327.6191,338.3433,331.6191,334.3433,327.6191" style="stroke:#181818;stroke-width:1.0;"/><text fill="#000000" font-family="sans-serif" font-size="13" font-weight="bold" lengthAdjust="spacing" textLength="7.23" x="334.3433" y="309.3564">4</text><text fill="#000000" font-family="sans-serif" font-size="13" lengthAdjust="spacing" textLength="68.6753" x="345.5732" y="309.3564">update data</text><line style="stroke:#000000;stroke-width:1.0;stroke-dasharray:2.0,2.0;" x1="10" x2="436.2485" y1="348.6191" y2="348.6191"/><text fill="#000000" font-family="sans-serif" font-size="11" font-weight="bold" lengthAdjust="spacing" textLength="105.0747" x="15" y="360.4893">[If author not found]</text><polygon fill="#181818" points="87.1172,383.541,77.1172,387.541,87.1172,391.541,83.1172,387.541" style="stroke:#181818;stroke-width:1.0;"/><line style="stroke:#181818;stroke-width:1.0;stroke-dasharray:2.0,2.0;" x1="81.1172" x2="321.3433" y1="387.541" y2="387.541"/><text fill="#000000" font-family="sans-serif" font-size="13" font-weight="bold" lengthAdjust="spacing" textLength="7.23" x="93.1172" y="382.2783">5</text><text fill="#000000" font-family="sans-serif" font-size="13" lengthAdjust="spacing" textLength="127.9307" x="104.3472" y="382.2783">404 - author not found</text><!--SRC=[TL0nJWCn4EpzYbMQL8TFA0rN846QqA08aWTixZOv2vzzs6iQnDzPsuSY8N1XsPwPdHclH-OvTbhF5XsdoTxqVjAHtXEvdfh1u2NWf32nnvxD1pA1T-NkqdIYe1GRjWJ7USWOEX1iz64TGHuGC88rfu31e5DAPlW0gztXi8UjDUHubHd7A8Dc36nwCqiEM7MFthzr9zaAuOKY5tLDKFWgxz3S5x23_SDXkmEDiz4rGTIVzV1SWdw9tZ8ydPU0O2ASVNA3KWfaBI2F52XZqeH24DwGWd4NIALWeUQLJQ4HzvoYWqtRwarx1qqL5HhPIF2Q-fvY_4ztsxQYMH9LY-4NzwTWHSklrl4IlLXSApdFIwS_8swkLbTc7lCD]--></g></svg>