<svg xmlns="http://www.w3.org/2000/svg" xmlns:xlink="http://www.w3.org/1999/xlink" contentStyleType="text/css" height="701px" preserveAspectRatio="none" style="width:986px;height:701px;background:#FFFFFF;" version="1.1" viewBox="0 0 986 701" width="986px" zoomAndPan="magnify"><title>Update an author's data as librarian</title><defs/><g><text fill="#000000" font-family="sans-serif" font-size="14" font-weight="bold" lengthAdjust="spacing" textLength="237.501" x="375.51" y="30.1074">Update an author's data as librarian</text><rect fill="#FFFFFF" height="476.3359" style="stroke:#181818;stroke-width:1.0;" width="10" x="66.1172" y="133.2422"/><rect fill="#FFFFFF" height="334.2012" style="stroke:#181818;stroke-width:1.0;" width="10" x="317.3433" y="156.5332"/><rect fill="#FFFFFF" height="245.3281" style="stroke:#181818;stroke-width:1.0;" width="10" x="517.2866" y="187.8242"/><rect fill="#FFFFFF" height="182.7461" style="stroke:#181818;stroke-width:1.0;" width="10" x="708.5591" y="219.1152"/><rect fill="#FFFFFF" height="31.291" style="stroke:#181818;stroke-width:1.0;" width="10" x="887.4834" y="250.4063"/><rect fill="#FFFFFF" height="31.291" style="stroke:#181818;stroke-width:1.0;" width="10" x="887.4834" y="339.2793"/><rect fill="none" height="304.8809" style="stroke:#000000;stroke-width:1.5;" width="969.521" x="10" y="296.6973"/><rect fill="none" height="98.5039" style="stroke:#000000;stroke-width:1.5;" width="348.5259" x="20" y="448.1523"/><line style="stroke:#181818;stroke-width:0.5;stroke-dasharray:5.0,5.0;" x1="71" x2="71" y1="123.2422" y2="618.5781"/><line style="stroke:#181818;stroke-width:0.5;stroke-dasharray:5.0,5.0;" x1="322.1606" x2="322.1606" y1="123.2422" y2="618.5781"/><line style="stroke:#181818;stroke-width:0.5;stroke-dasharray:5.0,5.0;" x1="521.9146" x2="521.9146" y1="123.2422" y2="618.5781"/><line style="stroke:#181818;stroke-width:0.5;stroke-dasharray:5.0,5.0;" x1="713.4766" x2="713.4766" y1="123.2422" y2="618.5781"/><line style="stroke:#181818;stroke-width:0.5;stroke-dasharray:5.0,5.0;" x1="892.4458" x2="892.4458" y1="123.2422" y2="618.5781"/><text fill="#000000" font-family="sans-serif" font-size="14" lengthAdjust="spacing" textLength="76.2344" x="30" y="119.7285">HTTP Client</text><ellipse cx="71.1172" cy="53.1211" fill="#E2E2F0" rx="8" ry="8" style="stroke:#181818;stroke-width:0.5;"/><path d="M71.1172,61.1211 L71.1172,88.1211 M58.1172,69.1211 L84.1172,69.1211 M71.1172,88.1211 L58.1172,103.1211 M71.1172,88.1211 L84.1172,103.1211 " fill="none" style="stroke:#181818;stroke-width:0.5;"/><text fill="#000000" font-family="sans-serif" font-size="14" lengthAdjust="spacing" textLength="76.2344" x="30" y="632.6855">HTTP Client</text><ellipse cx="71.1172" cy="644.6992" fill="#E2E2F0" rx="8" ry="8" style="stroke:#181818;stroke-width:0.5;"/><path d="M71.1172,652.6992 L71.1172,679.6992 M58.1172,660.6992 L84.1172,660.6992 M71.1172,679.6992 L58.1172,694.6992 M71.1172,679.6992 L84.1172,694.6992 " fill="none" style="stroke:#181818;stroke-width:0.5;"/><rect fill="#E2E2F0" height="32.6211" rx="2.5" ry="2.5" style="stroke:#181818;stroke-width:0.5;" width="72.3652" x="286.1606" y="89.6211"/><text fill="#000000" font-family="sans-serif" font-size="14" lengthAdjust="spacing" textLength="58.3652" x="293.1606" y="111.7285">:BookAPI</text><rect fill="#E2E2F0" height="32.6211" rx="2.5" ry="2.5" style="stroke:#181818;stroke-width:0.5;" width="72.3652" x="286.1606" y="617.5781"/><text fill="#000000" font-family="sans-serif" font-size="14" lengthAdjust="spacing" textLength="58.3652" x="293.1606" y="639.6855">:BookAPI</text><rect fill="#E2E2F0" height="32.6211" rx="2.5" ry="2.5" style="stroke:#181818;stroke-width:0.5;" width="186.7441" x="428.9146" y="89.6211"/><text fill="#000000" font-family="sans-serif" font-size="14" lengthAdjust="spacing" textLength="172.7441" x="435.9146" y="111.7285">Ctrl:UpdateAuthorController</text><rect fill="#E2E2F0" height="32.6211" rx="2.5" ry="2.5" style="stroke:#181818;stroke-width:0.5;" width="186.7441" x="428.9146" y="617.5781"/><text fill="#000000" font-family="sans-serif" font-size="14" lengthAdjust="spacing" textLength="172.7441" x="435.9146" y="639.6855">Ctrl:UpdateAuthorController</text><rect fill="#E2E2F0" height="32.6211" rx="2.5" ry="2.5" style="stroke:#181818;stroke-width:0.5;" width="150.165" x="638.4766" y="89.6211"/><text fill="#000000" font-family="sans-serif" font-size="14" lengthAdjust="spacing" textLength="136.165" x="645.4766" y="111.7285">service:AuthorService</text><rect fill="#E2E2F0" height="32.6211" rx="2.5" ry="2.5" style="stroke:#181818;stroke-width:0.5;" width="150.165" x="638.4766" y="617.5781"/><text fill="#000000" font-family="sans-serif" font-size="14" lengthAdjust="spacing" textLength="136.165" x="645.4766" y="639.6855">service:AuthorService</text><rect fill="#E2E2F0" height="32.6211" rx="2.5" ry="2.5" style="stroke:#181818;stroke-width:0.5;" width="154.0752" x="815.4458" y="89.6211"/><text fill="#000000" font-family="sans-serif" font-size="14" lengthAdjust="spacing" textLength="140.0752" x="822.4458" y="111.7285">repo:AuthorRepository</text><rect fill="#E2E2F0" height="32.6211" rx="2.5" ry="2.5" style="stroke:#181818;stroke-width:0.5;" width="154.0752" x="815.4458" y="617.5781"/><text fill="#000000" font-family="sans-serif" font-size="14" lengthAdjust="spacing" textLength="140.0752" x="822.4458" y="639.6855">repo:AuthorRepository</text><rect fill="#FFFFFF" height="476.3359" style="stroke:#181818;stroke-width:1.0;" width="10" x="66.1172" y="133.2422"/><rect fill="#FFFFFF" height="334.2012" style="stroke:#181818;stroke-width:1.0;" width="10" x="317.3433" y="156.5332"/><rect fill="#FFFFFF" height="245.3281" style="stroke:#181818;stroke-width:1.0;" width="10" x="517.2866" y="187.8242"/><rect fill="#FFFFFF" height="182.7461" style="stroke:#181818;stroke-width:1.0;" width="10" x="708.5591" y="219.1152"/><rect fill="#FFFFFF" height="31.291" style="stroke:#181818;stroke-width:1.0;" width="10" x="887.4834" y="250.4063"/><rect fill="#FFFFFF" height="31.291" style="stroke:#181818;stroke-width:1.0;" width="10" x="887.4834" y="339.2793"/><polygon fill="#181818" points="305.3433,152.5332,315.3433,156.5332,305.3433,160.5332,309.3433,156.5332" style="stroke:#181818;stroke-width:1.0;"/><line style="stroke:#181818;stroke-width:1.0;" x1="76.1172" x2="311.3433" y1="156.5332" y2="156.5332"/><text fill="#000000" font-family="sans-serif" font-size="13" font-weight="bold" lengthAdjust="spacing" textLength="7.23" x="83.1172" y="151.2705">1</text><text fill="#000000" font-family="sans-serif" font-size="13" lengthAdjust="spacing" textLength="210.9961" x="94.3472" y="151.2705">PATCH /api/authors/{authorNumber}</text><polygon fill="#181818" points="505.2866,183.8242,515.2866,187.8242,505.2866,191.8242,509.2866,187.8242" style="stroke:#181818;stroke-width:1.0;"/><line style="stroke:#181818;stroke-width:1.0;" x1="327.3433" x2="511.2866" y1="187.8242" y2="187.8242"/><text fill="#000000" font-family="sans-serif" font-size="13" font-weight="bold" lengthAdjust="spacing" textLength="7.23" x="334.3433" y="182.5615">2</text><text fill="#000000" font-family="sans-serif" font-size="13" lengthAdjust="spacing" textLength="159.7134" x="345.5732" y="182.5615">updateAuthor(requestBody)</text><polygon fill="#181818" points="696.5591,215.1152,706.5591,219.1152,696.5591,223.1152,700.5591,219.1152" style="stroke:#181818;stroke-width:1.0;"/><line style="stroke:#181818;stroke-width:1.0;" x1="527.2866" x2="702.5591" y1="219.1152" y2="219.1152"/><text fill="#000000" font-family="sans-serif" font-size="13" font-weight="bold" lengthAdjust="spacing" textLength="7.23" x="534.2866" y="213.8525">3</text><text fill="#000000" font-family="sans-serif" font-size="13" lengthAdjust="spacing" textLength="151.0425" x="545.5166" y="213.8525">updateAuthor(authorData)</text><polygon fill="#181818" points="875.4834,246.4063,885.4834,250.4063,875.4834,254.4063,879.4834,250.4063" style="stroke:#181818;stroke-width:1.0;"/><line style="stroke:#181818;stroke-width:1.0;" x1="718.5591" x2="881.4834" y1="250.4063" y2="250.4063"/><text fill="#000000" font-family="sans-serif" font-size="13" font-weight="bold" lengthAdjust="spacing" textLength="7.23" x="725.5591" y="245.1436">4</text><text fill="#000000" font-family="sans-serif" font-size="13" lengthAdjust="spacing" textLength="103.3335" x="736.7891" y="245.1436">findById(authorId)</text><polygon fill="#181818" points="729.5591,277.6973,719.5591,281.6973,729.5591,285.6973,725.5591,281.6973" style="stroke:#181818;stroke-width:1.0;"/><line style="stroke:#181818;stroke-width:1.0;stroke-dasharray:2.0,2.0;" x1="723.5591" x2="891.4834" y1="281.6973" y2="281.6973"/><text fill="#000000" font-family="sans-serif" font-size="13" font-weight="bold" lengthAdjust="spacing" textLength="7.23" x="735.5591" y="276.4346">5</text><text fill="#000000" font-family="sans-serif" font-size="13" lengthAdjust="spacing" textLength="83.0908" x="746.7891" y="276.4346">author or error</text><path d="M10,296.6973 L70.1709,296.6973 L70.1709,305.9883 L60.1709,315.9883 L10,315.9883 L10,296.6973 " fill="#EEEEEE" style="stroke:#000000;stroke-width:1.5;"/><rect fill="none" height="304.8809" style="stroke:#000000;stroke-width:1.5;" width="969.521" x="10" y="296.6973"/><text fill="#000000" font-family="sans-serif" font-size="13" font-weight="bold" lengthAdjust="spacing" textLength="15.1709" x="25" y="311.7256">alt</text><text fill="#000000" font-family="sans-serif" font-size="11" font-weight="bold" lengthAdjust="spacing" textLength="97.147" x="85.1709" y="310.5674">[If author is found]</text><polygon fill="#181818" points="875.4834,335.2793,885.4834,339.2793,875.4834,343.2793,879.4834,339.2793" style="stroke:#181818;stroke-width:1.0;"/><line style="stroke:#181818;stroke-width:1.0;" x1="718.5591" x2="881.4834" y1="339.2793" y2="339.2793"/><text fill="#000000" font-family="sans-serif" font-size="13" font-weight="bold" lengthAdjust="spacing" textLength="7.23" x="725.5591" y="334.0166">6</text><text fill="#000000" font-family="sans-serif" font-size="13" lengthAdjust="spacing" textLength="121.4116" x="736.7891" y="334.0166">save(updatedAuthor)</text><polygon fill="#181818" points="729.5591,366.5703,719.5591,370.5703,729.5591,374.5703,725.5591,370.5703" style="stroke:#181818;stroke-width:1.0;"/><line style="stroke:#181818;stroke-width:1.0;stroke-dasharray:2.0,2.0;" x1="723.5591" x2="891.4834" y1="370.5703" y2="370.5703"/><text fill="#000000" font-family="sans-serif" font-size="13" font-weight="bold" lengthAdjust="spacing" textLength="7.23" x="735.5591" y="365.3076">7</text><text fill="#000000" font-family="sans-serif" font-size="13" lengthAdjust="spacing" textLength="133.6943" x="746.7891" y="365.3076">updated author or error</text><polygon fill="#181818" points="538.2866,397.8613,528.2866,401.8613,538.2866,405.8613,534.2866,401.8613" style="stroke:#181818;stroke-width:1.0;"/><line style="stroke:#181818;stroke-width:1.0;stroke-dasharray:2.0,2.0;" x1="532.2866" x2="712.5591" y1="401.8613" y2="401.8613"/><text fill="#000000" font-family="sans-serif" font-size="13" font-weight="bold" lengthAdjust="spacing" textLength="7.23" x="544.2866" y="396.5986">8</text><text fill="#000000" font-family="sans-serif" font-size="13" lengthAdjust="spacing" textLength="133.6943" x="555.5166" y="396.5986">updated author or error</text><polygon fill="#181818" points="338.3433,429.1523,328.3433,433.1523,338.3433,437.1523,334.3433,433.1523" style="stroke:#181818;stroke-width:1.0;"/><line style="stroke:#181818;stroke-width:1.0;stroke-dasharray:2.0,2.0;" x1="332.3433" x2="521.2866" y1="433.1523" y2="433.1523"/><text fill="#000000" font-family="sans-serif" font-size="13" font-weight="bold" lengthAdjust="spacing" textLength="7.23" x="344.3433" y="427.8896">9</text><text fill="#000000" font-family="sans-serif" font-size="13" lengthAdjust="spacing" textLength="133.6943" x="355.5732" y="427.8896">updated author or error</text><path d="M20,448.1523 L80.1709,448.1523 L80.1709,457.4434 L70.1709,467.4434 L20,467.4434 L20,448.1523 " fill="#EEEEEE" style="stroke:#000000;stroke-width:1.5;"/><rect fill="none" height="98.5039" style="stroke:#000000;stroke-width:1.5;" width="348.5259" x="20" y="448.1523"/><text fill="#000000" font-family="sans-serif" font-size="13" font-weight="bold" lengthAdjust="spacing" textLength="15.1709" x="35" y="463.1807">alt</text><text fill="#000000" font-family="sans-serif" font-size="11" font-weight="bold" lengthAdjust="spacing" textLength="177.2407" x="95.1709" y="462.0225">[If there is an error during update]</text><polygon fill="#181818" points="87.1172,486.7344,77.1172,490.7344,87.1172,494.7344,83.1172,490.7344" style="stroke:#181818;stroke-width:1.0;"/><line style="stroke:#181818;stroke-width:1.0;stroke-dasharray:2.0,2.0;" x1="81.1172" x2="321.3433" y1="490.7344" y2="490.7344"/><text fill="#000000" font-family="sans-serif" font-size="13" font-weight="bold" lengthAdjust="spacing" textLength="14.46" x="93.1172" y="485.4717">10</text><text fill="#000000" font-family="sans-serif" font-size="13" lengthAdjust="spacing" textLength="85.9917" x="111.5771" y="485.4717">400/409 - error</text><line style="stroke:#000000;stroke-width:1.0;stroke-dasharray:2.0,2.0;" x1="20" x2="368.5259" y1="499.7344" y2="499.7344"/><text fill="#000000" font-family="sans-serif" font-size="11" font-weight="bold" lengthAdjust="spacing" textLength="51.9707" x="25" y="511.6045">[Success]</text><polygon fill="#181818" points="87.1172,534.6563,77.1172,538.6563,87.1172,542.6563,83.1172,538.6563" style="stroke:#181818;stroke-width:1.0;"/><line style="stroke:#181818;stroke-width:1.0;stroke-dasharray:2.0,2.0;" x1="81.1172" x2="321.3433" y1="538.6563" y2="538.6563"/><text fill="#000000" font-family="sans-serif" font-size="13" font-weight="bold" lengthAdjust="spacing" textLength="14.46" x="93.1172" y="533.3936">11</text><text fill="#000000" font-family="sans-serif" font-size="13" lengthAdjust="spacing" textLength="120.707" x="111.5771" y="533.3936">200 - author updated</text><line style="stroke:#000000;stroke-width:1.0;stroke-dasharray:2.0,2.0;" x1="10" x2="979.521" y1="554.6563" y2="554.6563"/><text fill="#000000" font-family="sans-serif" font-size="11" font-weight="bold" lengthAdjust="spacing" textLength="105.0747" x="15" y="566.5264">[If author not found]</text><polygon fill="#181818" points="87.1172,589.5781,77.1172,593.5781,87.1172,597.5781,83.1172,593.5781" style="stroke:#181818;stroke-width:1.0;"/><line style="stroke:#181818;stroke-width:1.0;stroke-dasharray:2.0,2.0;" x1="81.1172" x2="321.3433" y1="593.5781" y2="593.5781"/><text fill="#000000" font-family="sans-serif" font-size="13" font-weight="bold" lengthAdjust="spacing" textLength="14.46" x="93.1172" y="588.3154">12</text><text fill="#000000" font-family="sans-serif" font-size="13" lengthAdjust="spacing" textLength="127.9307" x="111.5771" y="588.3154">404 - author not found</text><!--SRC=[TPBFJi904CRl-nGJBi81snWkzc02U92B8OWFi7O7sRZirjqf2J6-kxD_511jIBFj_EQRRxvojINgGbDLdP6M-fsvRjsk2lZUesrnhBHyzN8dP4zEjgJtaX2SJS-stxsW5u8q6OJdJiMQjC2rhVDN0VY511d0w1SllPPM2DPm7WOFw_KIvaQZfK4adWCBTTAJRdN7Fc3Gp9nxcouNgRp2GEVbENdJv97JD6xkB7bd3FhK4Uld7JnXhrjiClwKdn9RpkUunyuLTiN7eDdtePZfN5eaXv6iYtY7yLrosi1okfu_G2KxNUKmGlMH3uyfiqyX8XWRqYBGdsmoz37yG3Ed3YCX8X31ul8NcrNlEUYHA4IsmUvXewsQ7HQgK0ir4h40urEvN0F-eVUELv66OB7vVgy3R5nlbG2-BYO4kSTXDgIoer42BySKw6BScUolFFwcSo0_MV-79hRiGblq65VXVsUgWkgzjg-bEQ7PTlmeB1q_PmEJkguczIsCJwQZ2GXFVTjY2F_rtTGrznH3nLzkvXoJm35Vw-Wau0i3awFGaOmoNm00]--></g></svg>