<svg xmlns="http://www.w3.org/2000/svg" xmlns:xlink="http://www.w3.org/1999/xlink" contentStyleType="text/css" height="242px" preserveAspectRatio="none" style="width:1053px;height:242px;background:#FFFFFF;" version="1.1" viewBox="0 0 1053 242" width="1053px" zoomAndPan="magnify"><title>Vista F&#237;sica - N&#237;vel 2</title><defs/><g><text fill="#000000" font-family="sans-serif" font-size="14" font-weight="bold" lengthAdjust="spacing" textLength="134.6201" x="452.1899" y="25.1074">Vista F&#237;sica - N&#237;vel 2</text><!--cluster Auth--><g id="cluster_Auth"><polygon fill="#87CEEB" points="16,55.6211,26,45.6211,199,45.6211,199,215.6211,189,225.6211,16,225.6211,16,55.6211" style="stroke:#181818;stroke-width:1.0;"/><line style="stroke:#181818;stroke-width:1.0;" x1="189" x2="199" y1="55.6211" y2="45.6211"/><line style="stroke:#181818;stroke-width:1.0;" x1="16" x2="189" y1="55.6211" y2="55.6211"/><line style="stroke:#181818;stroke-width:1.0;" x1="189" x2="189" y1="55.6211" y2="225.6211"/><text fill="#000000" font-family="sans-serif" font-size="14" font-style="italic" lengthAdjust="spacing" textLength="84.8408" x="61.0796" y="73.7285">&#171;component&#187;</text><text fill="#000000" font-family="sans-serif" font-size="14" font-style="italic" lengthAdjust="spacing" textLength="107.3857" x="49.8071" y="92.3496">&#171;Container (C4)&#187;</text><text fill="#000000" font-family="sans-serif" font-size="14" font-weight="bold" lengthAdjust="spacing" textLength="31.876" x="87.562" y="110.9707">Auth</text></g><!--cluster Readers--><g id="cluster_Readers"><polygon fill="#87CEEB" points="295,55.6211,305,45.6211,478,45.6211,478,215.6211,468,225.6211,295,225.6211,295,55.6211" style="stroke:#181818;stroke-width:1.0;"/><line style="stroke:#181818;stroke-width:1.0;" x1="468" x2="478" y1="55.6211" y2="45.6211"/><line style="stroke:#181818;stroke-width:1.0;" x1="295" x2="468" y1="55.6211" y2="55.6211"/><line style="stroke:#181818;stroke-width:1.0;" x1="468" x2="468" y1="55.6211" y2="225.6211"/><text fill="#000000" font-family="sans-serif" font-size="14" font-style="italic" lengthAdjust="spacing" textLength="84.8408" x="340.0796" y="73.7285">&#171;component&#187;</text><text fill="#000000" font-family="sans-serif" font-size="14" font-style="italic" lengthAdjust="spacing" textLength="107.3857" x="328.8071" y="92.3496">&#171;Container (C4)&#187;</text><text fill="#000000" font-family="sans-serif" font-size="14" font-weight="bold" lengthAdjust="spacing" textLength="55.2549" x="354.8726" y="110.9707">Readers</text></g><!--cluster Books--><g id="cluster_Books"><polygon fill="#87CEEB" points="574,55.6211,584,45.6211,757,45.6211,757,215.6211,747,225.6211,574,225.6211,574,55.6211" style="stroke:#181818;stroke-width:1.0;"/><line style="stroke:#181818;stroke-width:1.0;" x1="747" x2="757" y1="55.6211" y2="45.6211"/><line style="stroke:#181818;stroke-width:1.0;" x1="574" x2="747" y1="55.6211" y2="55.6211"/><line style="stroke:#181818;stroke-width:1.0;" x1="747" x2="747" y1="55.6211" y2="225.6211"/><text fill="#000000" font-family="sans-serif" font-size="14" font-style="italic" lengthAdjust="spacing" textLength="84.8408" x="619.0796" y="73.7285">&#171;component&#187;</text><text fill="#000000" font-family="sans-serif" font-size="14" font-style="italic" lengthAdjust="spacing" textLength="107.3857" x="607.8071" y="92.3496">&#171;Container (C4)&#187;</text><text fill="#000000" font-family="sans-serif" font-size="14" font-weight="bold" lengthAdjust="spacing" textLength="42.7861" x="640.1069" y="110.9707">Books</text></g><!--cluster Lendings--><g id="cluster_Lendings"><polygon fill="#87CEEB" points="853,55.6211,863,45.6211,1036,45.6211,1036,215.6211,1026,225.6211,853,225.6211,853,55.6211" style="stroke:#181818;stroke-width:1.0;"/><line style="stroke:#181818;stroke-width:1.0;" x1="1026" x2="1036" y1="55.6211" y2="45.6211"/><line style="stroke:#181818;stroke-width:1.0;" x1="853" x2="1026" y1="55.6211" y2="55.6211"/><line style="stroke:#181818;stroke-width:1.0;" x1="1026" x2="1026" y1="55.6211" y2="225.6211"/><text fill="#000000" font-family="sans-serif" font-size="14" font-style="italic" lengthAdjust="spacing" textLength="84.8408" x="898.0796" y="73.7285">&#171;component&#187;</text><text fill="#000000" font-family="sans-serif" font-size="14" font-style="italic" lengthAdjust="spacing" textLength="107.3857" x="886.8071" y="92.3496">&#171;Container (C4)&#187;</text><text fill="#000000" font-family="sans-serif" font-size="14" font-weight="bold" lengthAdjust="spacing" textLength="62.2207" x="909.3896" y="110.9707">Lendings</text></g><!--entity *auth*--><g id="elem_*auth*"><rect fill="#87CEEB" height="48.6211" rx="2.5" ry="2.5" style="stroke:#181818;stroke-width:0.5;" width="78.1445" x="68" y="133.1211"/><rect fill="#87CEEB" height="10" style="stroke:#181818;stroke-width:0.5;" width="15" x="126.1445" y="138.1211"/><rect fill="#87CEEB" height="2" style="stroke:#181818;stroke-width:0.5;" width="4" x="124.1445" y="140.1211"/><rect fill="#87CEEB" height="2" style="stroke:#181818;stroke-width:0.5;" width="4" x="124.1445" y="144.1211"/><text fill="#000000" font-family="sans-serif" font-size="14" lengthAdjust="spacing" textLength="38.1445" x="83" y="168.2285">*auth*</text></g><!--entity *readers*--><g id="elem_*readers*"><rect fill="#87CEEB" height="48.6211" rx="2.5" ry="2.5" style="stroke:#181818;stroke-width:0.5;" width="98.3652" x="337" y="133.1211"/><rect fill="#87CEEB" height="10" style="stroke:#181818;stroke-width:0.5;" width="15" x="415.3652" y="138.1211"/><rect fill="#87CEEB" height="2" style="stroke:#181818;stroke-width:0.5;" width="4" x="413.3652" y="140.1211"/><rect fill="#87CEEB" height="2" style="stroke:#181818;stroke-width:0.5;" width="4" x="413.3652" y="144.1211"/><text fill="#000000" font-family="sans-serif" font-size="14" lengthAdjust="spacing" textLength="58.3652" x="352" y="168.2285">*readers*</text></g><!--entity *books*--><g id="elem_*books*"><rect fill="#87CEEB" height="48.6211" rx="2.5" ry="2.5" style="stroke:#181818;stroke-width:0.5;" width="88.2549" x="621" y="133.1211"/><rect fill="#87CEEB" height="10" style="stroke:#181818;stroke-width:0.5;" width="15" x="689.2549" y="138.1211"/><rect fill="#87CEEB" height="2" style="stroke:#181818;stroke-width:0.5;" width="4" x="687.2549" y="140.1211"/><rect fill="#87CEEB" height="2" style="stroke:#181818;stroke-width:0.5;" width="4" x="687.2549" y="144.1211"/><text fill="#000000" font-family="sans-serif" font-size="14" lengthAdjust="spacing" textLength="48.2549" x="636" y="168.2285">*books*</text></g><!--entity *lendings*--><g id="elem_*lendings*"><rect fill="#87CEEB" height="48.6211" rx="2.5" ry="2.5" style="stroke:#181818;stroke-width:0.5;" width="103.0479" x="893" y="133.1211"/><rect fill="#87CEEB" height="10" style="stroke:#181818;stroke-width:0.5;" width="15" x="976.0479" y="138.1211"/><rect fill="#87CEEB" height="2" style="stroke:#181818;stroke-width:0.5;" width="4" x="974.0479" y="140.1211"/><rect fill="#87CEEB" height="2" style="stroke:#181818;stroke-width:0.5;" width="4" x="974.0479" y="144.1211"/><text fill="#000000" font-family="sans-serif" font-size="14" lengthAdjust="spacing" textLength="63.0479" x="908" y="168.2285">*lendings*</text></g><!--link Auth to Readers--><g id="link_Auth_Readers"><path d="M199.431,217.6211 C200.4395,217.6211 201.4518,217.6211 202.4676,217.6211 C204.4993,217.6211 206.5451,217.6211 208.6029,217.6211 C212.7187,217.6211 216.8828,217.6211 221.0791,217.6211 C229.4718,217.6211 237.9934,217.6211 246.515,217.6211 C255.0366,217.6211 263.558,217.6211 271.9504,217.6211 C276.1466,217.6211 280.3105,217.6211 284.426,217.6211 C286.4837,217.6211 288.5294,217.6211 290.5609,217.6211 C291.5767,217.6211 292.5889,217.6211 293.5974,217.6211 C293.8495,217.6211 294.1014,217.6211 294.353,217.6211 " fill="none" id="Auth-Readers" style="stroke:#181818;stroke-width:1.0;"/><text fill="#000000" font-family="sans-serif" font-size="13" lengthAdjust="spacing" textLength="46.2236" x="224" y="213.6494">HTTP/S</text></g><!--link Readers to Books--><g id="link_Readers_Books"><path d="M478.431,217.6211 C479.4395,217.6211 480.4518,217.6211 481.4676,217.6211 C483.4993,217.6211 485.5451,217.6211 487.6029,217.6211 C491.7187,217.6211 495.8828,217.6211 500.0791,217.6211 C508.4718,217.6211 516.9934,217.6211 525.515,217.6211 C534.0366,217.6211 542.558,217.6211 550.9504,217.6211 C555.1466,217.6211 559.3105,217.6211 563.426,217.6211 C565.4837,217.6211 567.5294,217.6211 569.5609,217.6211 C570.5767,217.6211 571.5889,217.6211 572.5974,217.6211 C572.8495,217.6211 573.1014,217.6211 573.353,217.6211 " fill="none" id="Readers-Books" style="stroke:#181818;stroke-width:1.0;"/><text fill="#000000" font-family="sans-serif" font-size="13" lengthAdjust="spacing" textLength="46.2236" x="503" y="213.6494">HTTP/S</text></g><!--link Books to Lendings--><g id="link_Books_Lendings"><path d="M757.5964,217.6211 C758.6067,217.6211 759.6208,217.6211 760.6385,217.6211 C762.6738,217.6211 764.7232,217.6211 766.7848,217.6211 C770.9079,217.6211 775.0795,217.6211 779.2834,217.6211 C787.6912,217.6211 796.2281,217.6211 804.765,217.6211 C813.3019,217.6211 821.8387,217.6211 830.2461,217.6211 C834.4498,217.6211 838.6212,217.6211 842.7441,217.6211 C844.8056,217.6211 846.8549,217.6211 848.8901,217.6211 C849.9077,217.6211 850.9217,217.6211 851.932,217.6211 C852.1846,217.6211 852.4369,217.6211 852.689,217.6211 " fill="none" id="Books-Lendings" style="stroke:#181818;stroke-width:1.0;"/><text fill="#000000" font-family="sans-serif" font-size="13" lengthAdjust="spacing" textLength="46.2236" x="782" y="213.6494">HTTP/S</text></g><!--SRC=[dP51QiCm44NtEiN7tRG14mXT5HDe0o6B448RkbVigIsYI4MQ14BfaNAANAooPGiAMNdt_tpDl974YZNXKtcMMDwkNfKIEJQtwvaqPaBJ5uCjdAeRHgKSbQoi4SBOYf2zdhZ983rQWQ8exV7R6Z8ydmUti8QbCkJmk7X-2gK7VxZizOb-192E8fl8q3t9KYn- -_7l92jolYFqUZp4nG7tE6_M7YAbK-CP-xRz7c5DfbAcZf31ZEVeVi9_bEX-8S_JMxrWjTjjfnzYA8GitZ0bqOPwMcg8_W00]--></g></svg>