<svg xmlns="http://www.w3.org/2000/svg" xmlns:xlink="http://www.w3.org/1999/xlink" contentStyleType="text/css" height="557px" preserveAspectRatio="none" style="width:979px;height:557px;background:#FFFFFF;" version="1.1" viewBox="0 0 979 557" width="979px" zoomAndPan="magnify"><title>POST register user as anonymous user</title><defs/><g><text fill="#000000" font-family="sans-serif" font-size="14" font-weight="bold" lengthAdjust="spacing" textLength="262.2061" x="357.4448" y="30.1074">POST register user as anonymous user</text><rect fill="#FFFFFF" height="332.541" style="stroke:#181818;stroke-width:1.0;" width="10" x="56.1172" y="133.2422"/><rect fill="#FFFFFF" height="245.3281" style="stroke:#181818;stroke-width:1.0;" width="10" x="240.8516" y="156.5332"/><rect fill="#FFFFFF" height="156.4551" style="stroke:#181818;stroke-width:1.0;" width="10" x="406.0796" y="187.8242"/><rect fill="#FFFFFF" height="93.873" style="stroke:#181818;stroke-width:1.0;" width="10" x="646.4321" y="219.1152"/><rect fill="#FFFFFF" height="31.291" style="stroke:#181818;stroke-width:1.0;" width="10" x="896.9028" y="250.4063"/><rect fill="none" height="98.5039" style="stroke:#000000;stroke-width:1.5;" width="280.479" x="10" y="359.2793"/><line style="stroke:#181818;stroke-width:0.5;stroke-dasharray:5.0,5.0;" x1="61" x2="61" y1="123.2422" y2="474.7832"/><line style="stroke:#181818;stroke-width:0.5;stroke-dasharray:5.0,5.0;" x1="245.2241" x2="245.2241" y1="123.2422" y2="474.7832"/><line style="stroke:#181818;stroke-width:0.5;stroke-dasharray:5.0,5.0;" x1="410.1245" x2="410.1245" y1="123.2422" y2="474.7832"/><line style="stroke:#181818;stroke-width:0.5;stroke-dasharray:5.0,5.0;" x1="651.1943" x2="651.1943" y1="123.2422" y2="474.7832"/><line style="stroke:#181818;stroke-width:0.5;stroke-dasharray:5.0,5.0;" x1="901.71" x2="901.71" y1="123.2422" y2="474.7832"/><text fill="#000000" font-family="sans-serif" font-size="14" lengthAdjust="spacing" textLength="76.2344" x="20" y="119.7285">HTTP Client</text><ellipse cx="61.1172" cy="53.1211" fill="#E2E2F0" rx="8" ry="8" style="stroke:#181818;stroke-width:0.5;"/><path d="M61.1172,61.1211 L61.1172,88.1211 M48.1172,69.1211 L74.1172,69.1211 M61.1172,88.1211 L48.1172,103.1211 M61.1172,88.1211 L74.1172,103.1211 " fill="none" style="stroke:#181818;stroke-width:0.5;"/><text fill="#000000" font-family="sans-serif" font-size="14" lengthAdjust="spacing" textLength="76.2344" x="20" y="488.8906">HTTP Client</text><ellipse cx="61.1172" cy="500.9043" fill="#E2E2F0" rx="8" ry="8" style="stroke:#181818;stroke-width:0.5;"/><path d="M61.1172,508.9043 L61.1172,535.9043 M48.1172,516.9043 L74.1172,516.9043 M61.1172,535.9043 L48.1172,550.9043 M61.1172,535.9043 L74.1172,550.9043 " fill="none" style="stroke:#181818;stroke-width:0.5;"/><rect fill="#E2E2F0" height="32.6211" rx="2.5" ry="2.5" style="stroke:#181818;stroke-width:0.5;" width="69.2549" x="211.2241" y="89.6211"/><text fill="#000000" font-family="sans-serif" font-size="14" lengthAdjust="spacing" textLength="55.2549" x="218.2241" y="111.7285">:AuthAPI</text><rect fill="#E2E2F0" height="32.6211" rx="2.5" ry="2.5" style="stroke:#181818;stroke-width:0.5;" width="69.2549" x="211.2241" y="473.7832"/><text fill="#000000" font-family="sans-serif" font-size="14" lengthAdjust="spacing" textLength="55.2549" x="218.2241" y="495.8906">:AuthAPI</text><rect fill="#E2E2F0" height="32.6211" rx="2.5" ry="2.5" style="stroke:#181818;stroke-width:0.5;" width="129.9102" x="346.1245" y="89.6211"/><text fill="#000000" font-family="sans-serif" font-size="14" lengthAdjust="spacing" textLength="115.9102" x="353.1245" y="111.7285">Ctrl:UserController</text><rect fill="#E2E2F0" height="32.6211" rx="2.5" ry="2.5" style="stroke:#181818;stroke-width:0.5;" width="129.9102" x="346.1245" y="473.7832"/><text fill="#000000" font-family="sans-serif" font-size="14" lengthAdjust="spacing" textLength="115.9102" x="353.1245" y="495.8906">Ctrl:UserController</text><rect fill="#E2E2F0" height="32.6211" rx="2.5" ry="2.5" style="stroke:#181818;stroke-width:0.5;" width="138.4756" x="582.1943" y="89.6211"/><text fill="#000000" font-family="sans-serif" font-size="14" lengthAdjust="spacing" textLength="124.4756" x="589.1943" y="111.7285">service:UserService</text><rect fill="#E2E2F0" height="32.6211" rx="2.5" ry="2.5" style="stroke:#181818;stroke-width:0.5;" width="138.4756" x="582.1943" y="473.7832"/><text fill="#000000" font-family="sans-serif" font-size="14" lengthAdjust="spacing" textLength="124.4756" x="589.1943" y="495.8906">service:UserService</text><rect fill="#E2E2F0" height="32.6211" rx="2.5" ry="2.5" style="stroke:#181818;stroke-width:0.5;" width="142.3857" x="830.71" y="89.6211"/><text fill="#000000" font-family="sans-serif" font-size="14" lengthAdjust="spacing" textLength="128.3857" x="837.71" y="111.7285">repo:UserRepository</text><rect fill="#E2E2F0" height="32.6211" rx="2.5" ry="2.5" style="stroke:#181818;stroke-width:0.5;" width="142.3857" x="830.71" y="473.7832"/><text fill="#000000" font-family="sans-serif" font-size="14" lengthAdjust="spacing" textLength="128.3857" x="837.71" y="495.8906">repo:UserRepository</text><rect fill="#FFFFFF" height="332.541" style="stroke:#181818;stroke-width:1.0;" width="10" x="56.1172" y="133.2422"/><rect fill="#FFFFFF" height="245.3281" style="stroke:#181818;stroke-width:1.0;" width="10" x="240.8516" y="156.5332"/><rect fill="#FFFFFF" height="156.4551" style="stroke:#181818;stroke-width:1.0;" width="10" x="406.0796" y="187.8242"/><rect fill="#FFFFFF" height="93.873" style="stroke:#181818;stroke-width:1.0;" width="10" x="646.4321" y="219.1152"/><rect fill="#FFFFFF" height="31.291" style="stroke:#181818;stroke-width:1.0;" width="10" x="896.9028" y="250.4063"/><polygon fill="#181818" points="228.8516,152.5332,238.8516,156.5332,228.8516,160.5332,232.8516,156.5332" style="stroke:#181818;stroke-width:1.0;"/><line style="stroke:#181818;stroke-width:1.0;" x1="66.1172" x2="234.8516" y1="156.5332" y2="156.5332"/><text fill="#000000" font-family="sans-serif" font-size="13" font-weight="bold" lengthAdjust="spacing" textLength="7.23" x="73.1172" y="151.2705">1</text><text fill="#000000" font-family="sans-serif" font-size="13" lengthAdjust="spacing" textLength="144.5044" x="84.3472" y="151.2705">POST /api/public/register</text><polygon fill="#181818" points="394.0796,183.8242,404.0796,187.8242,394.0796,191.8242,398.0796,187.8242" style="stroke:#181818;stroke-width:1.0;"/><line style="stroke:#181818;stroke-width:1.0;" x1="250.8516" x2="400.0796" y1="187.8242" y2="187.8242"/><text fill="#000000" font-family="sans-serif" font-size="13" font-weight="bold" lengthAdjust="spacing" textLength="7.23" x="257.8516" y="182.5615">2</text><text fill="#000000" font-family="sans-serif" font-size="13" lengthAdjust="spacing" textLength="124.998" x="269.0815" y="182.5615">register(requestBody)</text><polygon fill="#181818" points="634.4321,215.1152,644.4321,219.1152,634.4321,223.1152,638.4321,219.1152" style="stroke:#181818;stroke-width:1.0;"/><line style="stroke:#181818;stroke-width:1.0;" x1="416.0796" x2="640.4321" y1="219.1152" y2="219.1152"/><text fill="#000000" font-family="sans-serif" font-size="13" font-weight="bold" lengthAdjust="spacing" textLength="7.23" x="423.0796" y="213.8525">3</text><text fill="#000000" font-family="sans-serif" font-size="13" lengthAdjust="spacing" textLength="200.1226" x="434.3096" y="213.8525">registerUser(username, password)</text><polygon fill="#181818" points="884.9028,246.4063,894.9028,250.4063,884.9028,254.4063,888.9028,250.4063" style="stroke:#181818;stroke-width:1.0;"/><line style="stroke:#181818;stroke-width:1.0;" x1="656.4321" x2="890.9028" y1="250.4063" y2="250.4063"/><text fill="#000000" font-family="sans-serif" font-size="13" font-weight="bold" lengthAdjust="spacing" textLength="7.23" x="663.4321" y="245.1436">4</text><text fill="#000000" font-family="sans-serif" font-size="13" lengthAdjust="spacing" textLength="210.2407" x="674.6621" y="245.1436">saveNewUser(username, password)</text><polygon fill="#181818" points="667.4321,277.6973,657.4321,281.6973,667.4321,285.6973,663.4321,281.6973" style="stroke:#181818;stroke-width:1.0;"/><line style="stroke:#181818;stroke-width:1.0;stroke-dasharray:2.0,2.0;" x1="661.4321" x2="900.9028" y1="281.6973" y2="281.6973"/><text fill="#000000" font-family="sans-serif" font-size="13" font-weight="bold" lengthAdjust="spacing" textLength="7.23" x="673.4321" y="276.4346">5</text><text fill="#000000" font-family="sans-serif" font-size="13" lengthAdjust="spacing" textLength="118.4917" x="684.6621" y="276.4346">user created or error</text><polygon fill="#181818" points="427.0796,308.9883,417.0796,312.9883,427.0796,316.9883,423.0796,312.9883" style="stroke:#181818;stroke-width:1.0;"/><line style="stroke:#181818;stroke-width:1.0;stroke-dasharray:2.0,2.0;" x1="421.0796" x2="650.4321" y1="312.9883" y2="312.9883"/><text fill="#000000" font-family="sans-serif" font-size="13" font-weight="bold" lengthAdjust="spacing" textLength="7.23" x="433.0796" y="307.7256">6</text><text fill="#000000" font-family="sans-serif" font-size="13" lengthAdjust="spacing" textLength="93.1899" x="444.3096" y="307.7256">success or error</text><polygon fill="#181818" points="261.8516,340.2793,251.8516,344.2793,261.8516,348.2793,257.8516,344.2793" style="stroke:#181818;stroke-width:1.0;"/><line style="stroke:#181818;stroke-width:1.0;stroke-dasharray:2.0,2.0;" x1="255.8516" x2="410.0796" y1="344.2793" y2="344.2793"/><text fill="#000000" font-family="sans-serif" font-size="13" font-weight="bold" lengthAdjust="spacing" textLength="7.23" x="267.8516" y="339.0166">7</text><text fill="#000000" font-family="sans-serif" font-size="13" lengthAdjust="spacing" textLength="93.1899" x="279.0815" y="339.0166">success or error</text><path d="M10,359.2793 L70.1709,359.2793 L70.1709,368.5703 L60.1709,378.5703 L10,378.5703 L10,359.2793 " fill="#EEEEEE" style="stroke:#000000;stroke-width:1.5;"/><rect fill="none" height="98.5039" style="stroke:#000000;stroke-width:1.5;" width="280.479" x="10" y="359.2793"/><text fill="#000000" font-family="sans-serif" font-size="13" font-weight="bold" lengthAdjust="spacing" textLength="15.1709" x="25" y="374.3076">alt</text><text fill="#000000" font-family="sans-serif" font-size="11" font-weight="bold" lengthAdjust="spacing" textLength="100.8584" x="85.1709" y="373.1494">[If there is an error]</text><polygon fill="#181818" points="77.1172,397.8613,67.1172,401.8613,77.1172,405.8613,73.1172,401.8613" style="stroke:#181818;stroke-width:1.0;"/><line style="stroke:#181818;stroke-width:1.0;stroke-dasharray:2.0,2.0;" x1="71.1172" x2="244.8516" y1="401.8613" y2="401.8613"/><text fill="#000000" font-family="sans-serif" font-size="13" font-weight="bold" lengthAdjust="spacing" textLength="7.23" x="83.1172" y="396.5986">8</text><text fill="#000000" font-family="sans-serif" font-size="13" lengthAdjust="spacing" textLength="108.4053" x="94.3472" y="396.5986">400 - Bad Request</text><line style="stroke:#000000;stroke-width:1.0;stroke-dasharray:2.0,2.0;" x1="10" x2="290.479" y1="410.8613" y2="410.8613"/><text fill="#000000" font-family="sans-serif" font-size="11" font-weight="bold" lengthAdjust="spacing" textLength="51.9707" x="15" y="422.7314">[Success]</text><polygon fill="#181818" points="77.1172,445.7832,67.1172,449.7832,77.1172,453.7832,73.1172,449.7832" style="stroke:#181818;stroke-width:1.0;"/><line style="stroke:#181818;stroke-width:1.0;stroke-dasharray:2.0,2.0;" x1="71.1172" x2="244.8516" y1="449.7832" y2="449.7832"/><text fill="#000000" font-family="sans-serif" font-size="13" font-weight="bold" lengthAdjust="spacing" textLength="7.23" x="83.1172" y="444.5205">9</text><text fill="#000000" font-family="sans-serif" font-size="13" lengthAdjust="spacing" textLength="107.6626" x="94.3472" y="444.5205">201 - User created</text><!--SRC=[TPBBRiCW44NtVCKecoPIKwTLLrvKIh9fDcsKnmTGF4sGCD1XI9I_Bs0t3xNr0c7k6JYCVRTdzg6kAc-avTYQ1-NQAk1NHAjmt6Yv8zaA6Tb9nVeW6S7PycvZ-u4a16is2CltzGO8Tpem4iIG1Xb0McTFhOkXh0YHzd04WzVDPWbpez7o86FR77f9h9NsoGC6zJJoVhfSb7Y5WM_ZEPEfSzNSMIPd358Xy_ejcPY3LbZWTJSlP3-_XGczA-GgJO9EhgTUmBiYtpMWw8eymlYbsDNT_IlfTUNZXz6g-kc541d8O94-zsX8kSc1PwuvZOJ8OOPwhmkNZndcxbdPuZru6SBHKJCIFTaf96y8ye1lUFot85CmlZwZV2P5c2xLGFemIEJeil7PEKIbC8GBqjcUB_yh5z8mB3w1zqW8Ely8VGBfwHgIghDg3S-J2OnX9fiKb9O8D05XtMtwLyNJv35LRA_i1Tf6V0C0]--></g></svg>