<svg xmlns="http://www.w3.org/2000/svg" xmlns:xlink="http://www.w3.org/1999/xlink" contentStyleType="text/css" height="249px" preserveAspectRatio="none" style="width:215px;height:249px;background:#FFFFFF;" version="1.1" viewBox="0 0 215 249" width="215px" zoomAndPan="magnify"><defs/><g><rect fill="#FFFFFF" height="63.582" style="stroke:#181818;stroke-width:1.0;" width="10" x="41.1172" y="93.6211"/><rect fill="#FFFFFF" height="40.291" style="stroke:#181818;stroke-width:1.0;" width="10" x="180.6807" y="116.9121"/><line style="stroke:#181818;stroke-width:0.5;stroke-dasharray:5.0,5.0;" x1="46" x2="46" y1="83.6211" y2="166.2031"/><line style="stroke:#181818;stroke-width:0.5;stroke-dasharray:5.0,5.0;" x1="185.3428" x2="185.3428" y1="83.6211" y2="166.2031"/><text fill="#000000" font-family="sans-serif" font-size="14" lengthAdjust="spacing" textLength="76.2344" x="5" y="80.1074">HTTP Client</text><ellipse cx="46.1172" cy="13.5" fill="#E2E2F0" rx="8" ry="8" style="stroke:#181818;stroke-width:0.5;"/><path d="M46.1172,21.5 L46.1172,48.5 M33.1172,29.5 L59.1172,29.5 M46.1172,48.5 L33.1172,63.5 M46.1172,48.5 L59.1172,63.5 " fill="none" style="stroke:#181818;stroke-width:0.5;"/><text fill="#000000" font-family="sans-serif" font-size="14" lengthAdjust="spacing" textLength="76.2344" x="5" y="180.3105">HTTP Client</text><ellipse cx="46.1172" cy="192.3242" fill="#E2E2F0" rx="8" ry="8" style="stroke:#181818;stroke-width:0.5;"/><path d="M46.1172,200.3242 L46.1172,227.3242 M33.1172,208.3242 L59.1172,208.3242 M46.1172,227.3242 L33.1172,242.3242 M46.1172,227.3242 L59.1172,242.3242 " fill="none" style="stroke:#181818;stroke-width:0.5;"/><rect fill="#E2E2F0" height="32.6211" rx="2.5" ry="2.5" style="stroke:#181818;stroke-width:0.5;" width="46.6758" x="162.3428" y="50"/><text fill="#000000" font-family="sans-serif" font-size="14" lengthAdjust="spacing" textLength="32.6758" x="169.3428" y="72.1074">:LMS</text><rect fill="#E2E2F0" height="32.6211" rx="2.5" ry="2.5" style="stroke:#181818;stroke-width:0.5;" width="46.6758" x="162.3428" y="165.2031"/><text fill="#000000" font-family="sans-serif" font-size="14" lengthAdjust="spacing" textLength="32.6758" x="169.3428" y="187.3105">:LMS</text><rect fill="#FFFFFF" height="63.582" style="stroke:#181818;stroke-width:1.0;" width="10" x="41.1172" y="93.6211"/><rect fill="#FFFFFF" height="40.291" style="stroke:#181818;stroke-width:1.0;" width="10" x="180.6807" y="116.9121"/><polygon fill="#181818" points="168.6807,112.9121,178.6807,116.9121,168.6807,120.9121,172.6807,116.9121" style="stroke:#181818;stroke-width:1.0;"/><line style="stroke:#181818;stroke-width:1.0;" x1="51.1172" x2="174.6807" y1="116.9121" y2="116.9121"/><text fill="#000000" font-family="sans-serif" font-size="13" lengthAdjust="spacing" textLength="110.5635" x="58.1172" y="111.6494">regist a new author</text><polygon fill="#181818" points="62.1172,144.2031,52.1172,148.2031,62.1172,152.2031,58.1172,148.2031" style="stroke:#181818;stroke-width:1.0;"/><line style="stroke:#181818;stroke-width:1.0;stroke-dasharray:2.0,2.0;" x1="56.1172" x2="179.6807" y1="148.2031" y2="148.2031"/><text fill="#000000" font-family="sans-serif" font-size="13" lengthAdjust="spacing" textLength="46.9727" x="68.1172" y="142.9404">201 - ok</text><!--SRC=[JOmn2W8n44NxESKdVK0jKzZOMAmWx5vWDWGTr6IPp2hUtaN2QlVXl_SuMb6uup2SSRXBokR05PsCoYgSQM8rYJ9nDhZGdVhltx-hfGSHSJHvigK_WzO9lsya0ZHTf1eOERt0irsB_kpMQx1Vl3KIiDjiuL5kH1y0]--></g></svg>