<svg xmlns="http://www.w3.org/2000/svg" xmlns:xlink="http://www.w3.org/1999/xlink" contentStyleType="text/css" height="481px" preserveAspectRatio="none" style="width:772px;height:481px;background:#FFFFFF;" version="1.1" viewBox="0 0 772 481" width="772px" zoomAndPan="magnify"><defs/><g><rect fill="#FFFFFF" height="295.6191" style="stroke:#181818;stroke-width:1.0;" width="10" x="41.1172" y="93.6211"/><rect fill="#FFFFFF" height="272.3281" style="stroke:#181818;stroke-width:1.0;" width="10" x="206.6406" y="116.9121"/><rect fill="#FFFFFF" height="232.0371" style="stroke:#181818;stroke-width:1.0;" width="10" x="370.0332" y="148.2031"/><rect fill="#FFFFFF" height="93.873" style="stroke:#181818;stroke-width:1.0;" width="10" x="533.4258" y="179.4941"/><rect fill="#FFFFFF" height="31.291" style="stroke:#181818;stroke-width:1.0;" width="10" x="696.8184" y="210.7852"/><line style="stroke:#181818;stroke-width:0.5;stroke-dasharray:5.0,5.0;" x1="46" x2="46" y1="83.6211" y2="398.2402"/><line style="stroke:#181818;stroke-width:0.5;stroke-dasharray:5.0,5.0;" x1="211.458" x2="211.458" y1="83.6211" y2="398.2402"/><line style="stroke:#181818;stroke-width:0.5;stroke-dasharray:5.0,5.0;" x1="374.5645" x2="374.5645" y1="83.6211" y2="398.2402"/><line style="stroke:#181818;stroke-width:0.5;stroke-dasharray:5.0,5.0;" x1="537.9604" x2="537.9604" y1="83.6211" y2="398.2402"/><line style="stroke:#181818;stroke-width:0.5;stroke-dasharray:5.0,5.0;" x1="701.2358" x2="701.2358" y1="83.6211" y2="398.2402"/><text fill="#000000" font-family="sans-serif" font-size="14" lengthAdjust="spacing" textLength="76.2344" x="5" y="80.1074">HTTP Client</text><ellipse cx="46.1172" cy="13.5" fill="#E2E2F0" rx="8" ry="8" style="stroke:#181818;stroke-width:0.5;"/><path d="M46.1172,21.5 L46.1172,48.5 M33.1172,29.5 L59.1172,29.5 M46.1172,48.5 L33.1172,63.5 M46.1172,48.5 L59.1172,63.5 " fill="none" style="stroke:#181818;stroke-width:0.5;"/><text fill="#000000" font-family="sans-serif" font-size="14" lengthAdjust="spacing" textLength="76.2344" x="5" y="412.3477">HTTP Client</text><ellipse cx="46.1172" cy="424.3613" fill="#E2E2F0" rx="8" ry="8" style="stroke:#181818;stroke-width:0.5;"/><path d="M46.1172,432.3613 L46.1172,459.3613 M33.1172,440.3613 L59.1172,440.3613 M46.1172,459.3613 L33.1172,474.3613 M46.1172,459.3613 L59.1172,474.3613 " fill="none" style="stroke:#181818;stroke-width:0.5;"/><rect fill="#E2E2F0" height="32.6211" rx="2.5" ry="2.5" style="stroke:#181818;stroke-width:0.5;" width="72.3652" x="175.458" y="50"/><text fill="#000000" font-family="sans-serif" font-size="14" lengthAdjust="spacing" textLength="58.3652" x="182.458" y="72.1074">:BookAPI</text><rect fill="#E2E2F0" height="32.6211" rx="2.5" ry="2.5" style="stroke:#181818;stroke-width:0.5;" width="72.3652" x="175.458" y="397.2402"/><text fill="#000000" font-family="sans-serif" font-size="14" lengthAdjust="spacing" textLength="58.3652" x="182.458" y="419.3477">:BookAPI</text><rect fill="#E2E2F0" height="32.6211" rx="2.5" ry="2.5" style="stroke:#181818;stroke-width:0.5;" width="122.9375" x="313.5645" y="50"/><text fill="#000000" font-family="sans-serif" font-size="14" lengthAdjust="spacing" textLength="108.9375" x="320.5645" y="72.1074">AuthorsController</text><rect fill="#E2E2F0" height="32.6211" rx="2.5" ry="2.5" style="stroke:#181818;stroke-width:0.5;" width="122.9375" x="313.5645" y="397.2402"/><text fill="#000000" font-family="sans-serif" font-size="14" lengthAdjust="spacing" textLength="108.9375" x="320.5645" y="419.3477">AuthorsController</text><rect fill="#E2E2F0" height="32.6211" rx="2.5" ry="2.5" style="stroke:#181818;stroke-width:0.5;" width="108.9307" x="483.9604" y="50"/><text fill="#000000" font-family="sans-serif" font-size="14" lengthAdjust="spacing" textLength="94.9307" x="490.9604" y="72.1074">AuthorsService</text><rect fill="#E2E2F0" height="32.6211" rx="2.5" ry="2.5" style="stroke:#181818;stroke-width:0.5;" width="108.9307" x="483.9604" y="397.2402"/><text fill="#000000" font-family="sans-serif" font-size="14" lengthAdjust="spacing" textLength="94.9307" x="490.9604" y="419.3477">AuthorsService</text><rect fill="#E2E2F0" height="32.6211" rx="2.5" ry="2.5" style="stroke:#181818;stroke-width:0.5;" width="129.165" x="637.2358" y="50"/><text fill="#000000" font-family="sans-serif" font-size="14" lengthAdjust="spacing" textLength="115.165" x="644.2358" y="72.1074">AuthorsRepository</text><rect fill="#E2E2F0" height="32.6211" rx="2.5" ry="2.5" style="stroke:#181818;stroke-width:0.5;" width="129.165" x="637.2358" y="397.2402"/><text fill="#000000" font-family="sans-serif" font-size="14" lengthAdjust="spacing" textLength="115.165" x="644.2358" y="419.3477">AuthorsRepository</text><rect fill="#FFFFFF" height="295.6191" style="stroke:#181818;stroke-width:1.0;" width="10" x="41.1172" y="93.6211"/><rect fill="#FFFFFF" height="272.3281" style="stroke:#181818;stroke-width:1.0;" width="10" x="206.6406" y="116.9121"/><rect fill="#FFFFFF" height="232.0371" style="stroke:#181818;stroke-width:1.0;" width="10" x="370.0332" y="148.2031"/><rect fill="#FFFFFF" height="93.873" style="stroke:#181818;stroke-width:1.0;" width="10" x="533.4258" y="179.4941"/><rect fill="#FFFFFF" height="31.291" style="stroke:#181818;stroke-width:1.0;" width="10" x="696.8184" y="210.7852"/><polygon fill="#181818" points="194.6406,112.9121,204.6406,116.9121,194.6406,120.9121,198.6406,116.9121" style="stroke:#181818;stroke-width:1.0;"/><line style="stroke:#181818;stroke-width:1.0;" x1="51.1172" x2="200.6406" y1="116.9121" y2="116.9121"/><text fill="#000000" font-family="sans-serif" font-size="13" lengthAdjust="spacing" textLength="106.939" x="58.1172" y="111.6494">POST /api/authors</text><polygon fill="#181818" points="358.0332,144.2031,368.0332,148.2031,358.0332,152.2031,362.0332,148.2031" style="stroke:#181818;stroke-width:1.0;"/><line style="stroke:#181818;stroke-width:1.0;" x1="216.6406" x2="364.0332" y1="148.2031" y2="148.2031"/><text fill="#000000" font-family="sans-serif" font-size="13" lengthAdjust="spacing" textLength="134.3926" x="223.6406" y="142.9404">create(name, short bio)</text><polygon fill="#181818" points="521.4258,175.4941,531.4258,179.4941,521.4258,183.4941,525.4258,179.4941" style="stroke:#181818;stroke-width:1.0;"/><line style="stroke:#181818;stroke-width:1.0;" x1="380.0332" x2="527.4258" y1="179.4941" y2="179.4941"/><text fill="#000000" font-family="sans-serif" font-size="13" lengthAdjust="spacing" textLength="134.3926" x="387.0332" y="174.2314">create(name, short bio)</text><polygon fill="#181818" points="684.8184,206.7852,694.8184,210.7852,684.8184,214.7852,688.8184,210.7852" style="stroke:#181818;stroke-width:1.0;"/><line style="stroke:#181818;stroke-width:1.0;" x1="543.4258" x2="690.8184" y1="210.7852" y2="210.7852"/><text fill="#000000" font-family="sans-serif" font-size="13" lengthAdjust="spacing" textLength="134.3926" x="550.4258" y="205.5225">create(name, short bio)</text><polygon fill="#181818" points="554.4258,238.0762,544.4258,242.0762,554.4258,246.0762,550.4258,242.0762" style="stroke:#181818;stroke-width:1.0;"/><line style="stroke:#181818;stroke-width:1.0;stroke-dasharray:2.0,2.0;" x1="548.4258" x2="700.8184" y1="242.0762" y2="242.0762"/><text fill="#000000" font-family="sans-serif" font-size="13" lengthAdjust="spacing" textLength="44.8018" x="560.4258" y="236.8135">Authors</text><polygon fill="#181818" points="391.0332,269.3672,381.0332,273.3672,391.0332,277.3672,387.0332,273.3672" style="stroke:#181818;stroke-width:1.0;"/><line style="stroke:#181818;stroke-width:1.0;stroke-dasharray:2.0,2.0;" x1="385.0332" x2="537.4258" y1="273.3672" y2="273.3672"/><text fill="#000000" font-family="sans-serif" font-size="13" lengthAdjust="spacing" textLength="44.8018" x="397.0332" y="268.1045">Authors</text><line style="stroke:#181818;stroke-width:1.0;" x1="380.0332" x2="422.0332" y1="304.6582" y2="304.6582"/><line style="stroke:#181818;stroke-width:1.0;" x1="422.0332" x2="422.0332" y1="304.6582" y2="317.6582"/><line style="stroke:#181818;stroke-width:1.0;" x1="381.0332" x2="422.0332" y1="317.6582" y2="317.6582"/><polygon fill="#181818" points="391.0332,313.6582,381.0332,317.6582,391.0332,321.6582,387.0332,317.6582" style="stroke:#181818;stroke-width:1.0;"/><text fill="#000000" font-family="sans-serif" font-size="13" lengthAdjust="spacing" textLength="120.6689" x="387.0332" y="299.3955">saveCreatedAuthor()</text><polygon fill="#181818" points="227.6406,344.9492,217.6406,348.9492,227.6406,352.9492,223.6406,348.9492" style="stroke:#181818;stroke-width:1.0;"/><line style="stroke:#181818;stroke-width:1.0;stroke-dasharray:2.0,2.0;" x1="221.6406" x2="369.0332" y1="348.9492" y2="348.9492"/><text fill="#000000" font-family="sans-serif" font-size="13" lengthAdjust="spacing" textLength="36.8608" x="233.6406" y="343.6865">author</text><polygon fill="#181818" points="62.1172,376.2402,52.1172,380.2402,62.1172,384.2402,58.1172,380.2402" style="stroke:#181818;stroke-width:1.0;"/><line style="stroke:#181818;stroke-width:1.0;stroke-dasharray:2.0,2.0;" x1="56.1172" x2="205.6406" y1="380.2402" y2="380.2402"/><text fill="#000000" font-family="sans-serif" font-size="13" lengthAdjust="spacing" textLength="131.5234" x="68.1172" y="374.9775">201 - registered author</text><!--SRC=[ZP71ReCm38RlF8N5gPM6skt8OLB7PPCc5GrUm0tMPeqIv6H8VVkb14YGEFGKH_a_v_zjL5OBfEzrNKBHCdKs1JJmoHT1OUoI7iMouXux2sd-flNlgVmODTNDMBgk1QS_-wF55BgpejkMP5I6wwQw8XbOaM_gwqtT5_NQiFDx6wNXcYIeB0zeAJAUB2LahvDPoA4yLpKSiES3-gw1dG9DKWS5tmvKGawqw_1AJs0SQU72UX_mA6K4tl_scHveCQUVpZiSKZx0HoC99MInXscMIKDRrFBnAlqcDNjTPuqXWmCLe-N6yxlzIXslnIzZcRrxMjQNmyln6J8G-cRtAjJCwiXDDFn_]--></g></svg>