<svg xmlns="http://www.w3.org/2000/svg" xmlns:xlink="http://www.w3.org/1999/xlink" contentStyleType="text/css" height="414px" preserveAspectRatio="none" style="width:496px;height:414px;background:#FFFFFF;" version="1.1" viewBox="0 0 496 414" width="496px" zoomAndPan="magnify"><title>GET co-authors and their books by authorNumber as Reader</title><defs/><g><text fill="#000000" font-family="sans-serif" font-size="14" font-weight="bold" lengthAdjust="spacing" textLength="404.5166" x="47.1287" y="30.1074">GET co-authors and their books by authorNumber as Reader</text><rect fill="#FFFFFF" height="189.0859" style="stroke:#181818;stroke-width:1.0;" width="10" x="56.1172" y="133.2422"/><rect fill="#FFFFFF" height="149.7949" style="stroke:#181818;stroke-width:1.0;" width="10" x="350.7104" y="156.5332"/><rect fill="#FFFFFF" height="36.291" style="stroke:#181818;stroke-width:1.0;" width="10" x="355.7104" y="222.1152"/><rect fill="none" height="142.7949" style="stroke:#000000;stroke-width:1.5;" width="479.7739" x="10" y="171.5332"/><line style="stroke:#181818;stroke-width:0.5;stroke-dasharray:5.0,5.0;" x1="61" x2="61" y1="123.2422" y2="331.3281"/><line style="stroke:#181818;stroke-width:0.5;stroke-dasharray:5.0,5.0;" x1="355.6865" x2="355.6865" y1="123.2422" y2="331.3281"/><text fill="#000000" font-family="sans-serif" font-size="14" lengthAdjust="spacing" textLength="76.2344" x="20" y="119.7285">HTTP Client</text><ellipse cx="61.1172" cy="53.1211" fill="#E2E2F0" rx="8" ry="8" style="stroke:#181818;stroke-width:0.5;"/><path d="M61.1172,61.1211 L61.1172,88.1211 M48.1172,69.1211 L74.1172,69.1211 M61.1172,88.1211 L48.1172,103.1211 M61.1172,88.1211 L74.1172,103.1211 " fill="none" style="stroke:#181818;stroke-width:0.5;"/><text fill="#000000" font-family="sans-serif" font-size="14" lengthAdjust="spacing" textLength="76.2344" x="20" y="345.4355">HTTP Client</text><ellipse cx="61.1172" cy="357.4492" fill="#E2E2F0" rx="8" ry="8" style="stroke:#181818;stroke-width:0.5;"/><path d="M61.1172,365.4492 L61.1172,392.4492 M48.1172,373.4492 L74.1172,373.4492 M61.1172,392.4492 L48.1172,407.4492 M61.1172,392.4492 L74.1172,407.4492 " fill="none" style="stroke:#181818;stroke-width:0.5;"/><rect fill="#E2E2F0" height="32.6211" rx="2.5" ry="2.5" style="stroke:#181818;stroke-width:0.5;" width="84.0479" x="313.6865" y="89.6211"/><text fill="#000000" font-family="sans-serif" font-size="14" lengthAdjust="spacing" textLength="70.0479" x="320.6865" y="111.7285">:Book:book</text><rect fill="#E2E2F0" height="32.6211" rx="2.5" ry="2.5" style="stroke:#181818;stroke-width:0.5;" width="84.0479" x="313.6865" y="330.3281"/><text fill="#000000" font-family="sans-serif" font-size="14" lengthAdjust="spacing" textLength="70.0479" x="320.6865" y="352.4355">:Book:book</text><rect fill="#FFFFFF" height="189.0859" style="stroke:#181818;stroke-width:1.0;" width="10" x="56.1172" y="133.2422"/><rect fill="#FFFFFF" height="149.7949" style="stroke:#181818;stroke-width:1.0;" width="10" x="350.7104" y="156.5332"/><rect fill="#FFFFFF" height="36.291" style="stroke:#181818;stroke-width:1.0;" width="10" x="355.7104" y="222.1152"/><polygon fill="#181818" points="338.7104,152.5332,348.7104,156.5332,338.7104,160.5332,342.7104,156.5332" style="stroke:#181818;stroke-width:1.0;"/><line style="stroke:#181818;stroke-width:1.0;" x1="66.1172" x2="344.7104" y1="156.5332" y2="156.5332"/><text fill="#000000" font-family="sans-serif" font-size="13" font-weight="bold" lengthAdjust="spacing" textLength="7.23" x="73.1172" y="151.2705">1</text><text fill="#000000" font-family="sans-serif" font-size="13" lengthAdjust="spacing" textLength="254.3633" x="84.3472" y="151.2705">GET /api/authors/{authorNumber}/coauthors</text><path d="M10,171.5332 L70.1709,171.5332 L70.1709,180.8242 L60.1709,190.8242 L10,190.8242 L10,171.5332 " fill="#EEEEEE" style="stroke:#000000;stroke-width:1.5;"/><rect fill="none" height="142.7949" style="stroke:#000000;stroke-width:1.5;" width="479.7739" x="10" y="171.5332"/><text fill="#000000" font-family="sans-serif" font-size="13" font-weight="bold" lengthAdjust="spacing" textLength="15.1709" x="25" y="186.5615">alt</text><text fill="#000000" font-family="sans-serif" font-size="11" font-weight="bold" lengthAdjust="spacing" textLength="76.9678" x="85.1709" y="185.4033">[Author found]</text><line style="stroke:#181818;stroke-width:1.0;" x1="360.7104" x2="407.7104" y1="209.1152" y2="209.1152"/><line style="stroke:#181818;stroke-width:1.0;" x1="407.7104" x2="407.7104" y1="209.1152" y2="222.1152"/><line style="stroke:#181818;stroke-width:1.0;" x1="366.7104" x2="407.7104" y1="222.1152" y2="222.1152"/><polygon fill="#181818" points="376.7104,218.1152,366.7104,222.1152,376.7104,226.1152,372.7104,222.1152" style="stroke:#181818;stroke-width:1.0;"/><text fill="#000000" font-family="sans-serif" font-size="13" font-weight="bold" lengthAdjust="spacing" textLength="7.23" x="372.7104" y="203.8525">2</text><text fill="#000000" font-family="sans-serif" font-size="13" lengthAdjust="spacing" textLength="83.8335" x="383.9404" y="203.8525">Resquest data</text><polygon fill="#181818" points="77.1172,254.4063,67.1172,258.4063,77.1172,262.4063,73.1172,258.4063" style="stroke:#181818;stroke-width:1.0;"/><line style="stroke:#181818;stroke-width:1.0;stroke-dasharray:2.0,2.0;" x1="71.1172" x2="349.7104" y1="258.4063" y2="258.4063"/><text fill="#000000" font-family="sans-serif" font-size="13" font-weight="bold" lengthAdjust="spacing" textLength="7.23" x="83.1172" y="253.1436">3</text><text fill="#000000" font-family="sans-serif" font-size="13" lengthAdjust="spacing" textLength="104.7871" x="94.3472" y="253.1436">200 - List&lt;Books&gt;</text><line style="stroke:#000000;stroke-width:1.0;stroke-dasharray:2.0,2.0;" x1="10" x2="489.7739" y1="267.4063" y2="267.4063"/><text fill="#000000" font-family="sans-serif" font-size="11" font-weight="bold" lengthAdjust="spacing" textLength="97.1255" x="15" y="279.2764">[Author not found]</text><polygon fill="#181818" points="77.1172,302.3281,67.1172,306.3281,77.1172,310.3281,73.1172,306.3281" style="stroke:#181818;stroke-width:1.0;"/><line style="stroke:#181818;stroke-width:1.0;stroke-dasharray:2.0,2.0;" x1="71.1172" x2="354.7104" y1="306.3281" y2="306.3281"/><text fill="#000000" font-family="sans-serif" font-size="13" font-weight="bold" lengthAdjust="spacing" textLength="7.23" x="83.1172" y="301.0654">4</text><text fill="#000000" font-family="sans-serif" font-size="13" lengthAdjust="spacing" textLength="147.4243" x="94.3472" y="301.0654">404 - NotFoundException</text><!--SRC=[PP11IyGm48Nl-HL3BvvgYkofo8BAgWTPHFe7fkcu3QP9JAQYYF_T9ErYmHmI9k-zBuzSZCm-jb9wWvRdoLmgDyb8xpDPHVMWyHHm4ZYpGyNw0vd0sJBRUUef2C6Q3S73eGFbwYICBaH0Em2Ff0Fqphr5wBzWaOub1HZXXN38-SHr0Qh7hdk6EwF9ShMHFGRMIllK3ghsDi7QJ5mjaKj-wNK6BYVK-s9eIpM9NikrdFpULlcHogs2I333S5CcU7Mp7GIabJ5_kBIdtqat0p9kz6B8BxTmrJHGmvEEV9qRnxqW4-aCjex_mJVXNRDBuQFZ- -mvV2hohDEVKmhy0W00]--></g></svg>