<svg xmlns="http://www.w3.org/2000/svg" xmlns:xlink="http://www.w3.org/1999/xlink" contentStyleType="text/css" height="778px" preserveAspectRatio="none" style="width:1265px;height:778px;background:#FFFFFF;" version="1.1" viewBox="0 0 1265 778" width="1265px" zoomAndPan="magnify"><title>GET co-authors and their books by authorNumber as Reader</title><defs/><g><text fill="#000000" font-family="sans-serif" font-size="14" font-weight="bold" lengthAdjust="spacing" textLength="404.5166" x="431.2874" y="30.1074">GET co-authors and their books by authorNumber as Reader</text><rect fill="#FFFFFF" height="553.5781" style="stroke:#181818;stroke-width:1.0;" width="10" x="56.1172" y="133.2422"/><rect fill="#FFFFFF" height="466.3652" style="stroke:#181818;stroke-width:1.0;" width="10" x="350.7104" y="156.5332"/><rect fill="#FFFFFF" height="403.7832" style="stroke:#181818;stroke-width:1.0;" width="10" x="615.6602" y="187.8242"/><rect fill="#FFFFFF" height="31.291" style="stroke:#181818;stroke-width:1.0;" width="10" x="960.0889" y="219.1152"/><rect fill="#FFFFFF" height="31.291" style="stroke:#181818;stroke-width:1.0;" width="10" x="960.0889" y="307.9883"/><rect fill="#FFFFFF" height="31.291" style="stroke:#181818;stroke-width:1.0;" width="10" x="960.0889" y="396.8613"/><rect fill="#FFFFFF" height="31.291" style="stroke:#181818;stroke-width:1.0;" width="10" x="1140.8813" y="459.4434"/><rect fill="#FFFFFF" height="31.291" style="stroke:#181818;stroke-width:1.0;" width="10" x="1140.8813" y="529.0254"/><rect fill="none" height="413.4141" style="stroke:#000000;stroke-width:1.5;" width="1248.0913" x="10" y="265.4063"/><rect fill="none" height="144.4551" style="stroke:#000000;stroke-width:1.5;" width="711.731" x="536.3604" y="354.2793"/><line style="stroke:#181818;stroke-width:0.5;stroke-dasharray:5.0,5.0;" x1="61" x2="61" y1="123.2422" y2="695.8203"/><line style="stroke:#181818;stroke-width:0.5;stroke-dasharray:5.0,5.0;" x1="355.5278" x2="355.5278" y1="123.2422" y2="695.8203"/><line style="stroke:#181818;stroke-width:0.5;stroke-dasharray:5.0,5.0;" x1="620.3604" x2="620.3604" y1="123.2422" y2="695.8203"/><line style="stroke:#181818;stroke-width:0.5;stroke-dasharray:5.0,5.0;" x1="964.5063" x2="964.5063" y1="123.2422" y2="695.8203"/><line style="stroke:#181818;stroke-width:0.5;stroke-dasharray:5.0,5.0;" x1="1145.6714" x2="1145.6714" y1="123.2422" y2="695.8203"/><text fill="#000000" font-family="sans-serif" font-size="14" lengthAdjust="spacing" textLength="76.2344" x="20" y="119.7285">HTTP Client</text><ellipse cx="61.1172" cy="53.1211" fill="#E2E2F0" rx="8" ry="8" style="stroke:#181818;stroke-width:0.5;"/><path d="M61.1172,61.1211 L61.1172,88.1211 M48.1172,69.1211 L74.1172,69.1211 M61.1172,88.1211 L48.1172,103.1211 M61.1172,88.1211 L74.1172,103.1211 " fill="none" style="stroke:#181818;stroke-width:0.5;"/><text fill="#000000" font-family="sans-serif" font-size="14" lengthAdjust="spacing" textLength="76.2344" x="20" y="709.9277">HTTP Client</text><ellipse cx="61.1172" cy="721.9414" fill="#E2E2F0" rx="8" ry="8" style="stroke:#181818;stroke-width:0.5;"/><path d="M61.1172,729.9414 L61.1172,756.9414 M48.1172,737.9414 L74.1172,737.9414 M61.1172,756.9414 L48.1172,771.9414 M61.1172,756.9414 L74.1172,771.9414 " fill="none" style="stroke:#181818;stroke-width:0.5;"/><rect fill="#E2E2F0" height="32.6211" rx="2.5" ry="2.5" style="stroke:#181818;stroke-width:0.5;" width="72.3652" x="319.5278" y="89.6211"/><text fill="#000000" font-family="sans-serif" font-size="14" lengthAdjust="spacing" textLength="58.3652" x="326.5278" y="111.7285">:BookAPI</text><rect fill="#E2E2F0" height="32.6211" rx="2.5" ry="2.5" style="stroke:#181818;stroke-width:0.5;" width="72.3652" x="319.5278" y="694.8203"/><text fill="#000000" font-family="sans-serif" font-size="14" lengthAdjust="spacing" textLength="58.3652" x="326.5278" y="716.9277">:BookAPI</text><rect fill="#E2E2F0" height="32.6211" rx="2.5" ry="2.5" style="stroke:#181818;stroke-width:0.5;" width="148.5996" x="546.3604" y="89.6211"/><text fill="#000000" font-family="sans-serif" font-size="14" lengthAdjust="spacing" textLength="134.5996" x="553.3604" y="111.7285">Ctrl:AuthorsController</text><rect fill="#E2E2F0" height="32.6211" rx="2.5" ry="2.5" style="stroke:#181818;stroke-width:0.5;" width="148.5996" x="546.3604" y="694.8203"/><text fill="#000000" font-family="sans-serif" font-size="14" lengthAdjust="spacing" textLength="134.5996" x="553.3604" y="716.9277">Ctrl:AuthorsController</text><rect fill="#E2E2F0" height="32.6211" rx="2.5" ry="2.5" style="stroke:#181818;stroke-width:0.5;" width="157.165" x="886.5063" y="89.6211"/><text fill="#000000" font-family="sans-serif" font-size="14" lengthAdjust="spacing" textLength="143.165" x="893.5063" y="111.7285">service:AuthorsService</text><rect fill="#E2E2F0" height="32.6211" rx="2.5" ry="2.5" style="stroke:#181818;stroke-width:0.5;" width="157.165" x="886.5063" y="694.8203"/><text fill="#000000" font-family="sans-serif" font-size="14" lengthAdjust="spacing" textLength="143.165" x="893.5063" y="716.9277">service:AuthorsService</text><rect fill="#E2E2F0" height="32.6211" rx="2.5" ry="2.5" style="stroke:#181818;stroke-width:0.5;" width="184.4199" x="1053.6714" y="89.6211"/><text fill="#000000" font-family="sans-serif" font-size="14" lengthAdjust="spacing" textLength="170.4199" x="1060.6714" y="111.7285">mapper:AuthorViewMapper</text><rect fill="#E2E2F0" height="32.6211" rx="2.5" ry="2.5" style="stroke:#181818;stroke-width:0.5;" width="184.4199" x="1053.6714" y="694.8203"/><text fill="#000000" font-family="sans-serif" font-size="14" lengthAdjust="spacing" textLength="170.4199" x="1060.6714" y="716.9277">mapper:AuthorViewMapper</text><rect fill="#FFFFFF" height="553.5781" style="stroke:#181818;stroke-width:1.0;" width="10" x="56.1172" y="133.2422"/><rect fill="#FFFFFF" height="466.3652" style="stroke:#181818;stroke-width:1.0;" width="10" x="350.7104" y="156.5332"/><rect fill="#FFFFFF" height="403.7832" style="stroke:#181818;stroke-width:1.0;" width="10" x="615.6602" y="187.8242"/><rect fill="#FFFFFF" height="31.291" style="stroke:#181818;stroke-width:1.0;" width="10" x="960.0889" y="219.1152"/><rect fill="#FFFFFF" height="31.291" style="stroke:#181818;stroke-width:1.0;" width="10" x="960.0889" y="307.9883"/><rect fill="#FFFFFF" height="31.291" style="stroke:#181818;stroke-width:1.0;" width="10" x="960.0889" y="396.8613"/><rect fill="#FFFFFF" height="31.291" style="stroke:#181818;stroke-width:1.0;" width="10" x="1140.8813" y="459.4434"/><rect fill="#FFFFFF" height="31.291" style="stroke:#181818;stroke-width:1.0;" width="10" x="1140.8813" y="529.0254"/><polygon fill="#181818" points="338.7104,152.5332,348.7104,156.5332,338.7104,160.5332,342.7104,156.5332" style="stroke:#181818;stroke-width:1.0;"/><line style="stroke:#181818;stroke-width:1.0;" x1="66.1172" x2="344.7104" y1="156.5332" y2="156.5332"/><text fill="#000000" font-family="sans-serif" font-size="13" font-weight="bold" lengthAdjust="spacing" textLength="7.23" x="73.1172" y="151.2705">1</text><text fill="#000000" font-family="sans-serif" font-size="13" lengthAdjust="spacing" textLength="254.3633" x="84.3472" y="151.2705">GET /api/authors/{authorNumber}/coauthors</text><polygon fill="#181818" points="603.6602,183.8242,613.6602,187.8242,603.6602,191.8242,607.6602,187.8242" style="stroke:#181818;stroke-width:1.0;"/><line style="stroke:#181818;stroke-width:1.0;" x1="360.7104" x2="609.6602" y1="187.8242" y2="187.8242"/><text fill="#000000" font-family="sans-serif" font-size="13" font-weight="bold" lengthAdjust="spacing" textLength="7.23" x="367.7104" y="182.5615">2</text><text fill="#000000" font-family="sans-serif" font-size="13" lengthAdjust="spacing" textLength="224.7197" x="378.9404" y="182.5615">getCoAuthorsByAuthor(authorNumber)</text><polygon fill="#181818" points="948.0889,215.1152,958.0889,219.1152,948.0889,223.1152,952.0889,219.1152" style="stroke:#181818;stroke-width:1.0;"/><line style="stroke:#181818;stroke-width:1.0;" x1="625.6602" x2="954.0889" y1="219.1152" y2="219.1152"/><text fill="#000000" font-family="sans-serif" font-size="13" font-weight="bold" lengthAdjust="spacing" textLength="7.23" x="632.6602" y="213.8525">3</text><text fill="#000000" font-family="sans-serif" font-size="13" lengthAdjust="spacing" textLength="212.4243" x="643.8901" y="213.8525">findByAuthorNumber(authorNumber)</text><polygon fill="#181818" points="636.6602,246.4063,626.6602,250.4063,636.6602,254.4063,632.6602,250.4063" style="stroke:#181818;stroke-width:1.0;"/><line style="stroke:#181818;stroke-width:1.0;stroke-dasharray:2.0,2.0;" x1="630.6602" x2="964.0889" y1="250.4063" y2="250.4063"/><text fill="#000000" font-family="sans-serif" font-size="13" font-weight="bold" lengthAdjust="spacing" textLength="7.23" x="642.6602" y="245.1436">4</text><text fill="#000000" font-family="sans-serif" font-size="13" lengthAdjust="spacing" textLength="171.2661" x="653.8901" y="245.1436">Author or NotFoundException</text><path d="M10,265.4063 L70.1709,265.4063 L70.1709,274.6973 L60.1709,284.6973 L10,284.6973 L10,265.4063 " fill="#EEEEEE" style="stroke:#000000;stroke-width:1.5;"/><rect fill="none" height="413.4141" style="stroke:#000000;stroke-width:1.5;" width="1248.0913" x="10" y="265.4063"/><text fill="#000000" font-family="sans-serif" font-size="13" font-weight="bold" lengthAdjust="spacing" textLength="15.1709" x="25" y="280.4346">alt</text><text fill="#000000" font-family="sans-serif" font-size="11" font-weight="bold" lengthAdjust="spacing" textLength="76.9678" x="85.1709" y="279.2764">[Author found]</text><polygon fill="#181818" points="948.0889,303.9883,958.0889,307.9883,948.0889,311.9883,952.0889,307.9883" style="stroke:#181818;stroke-width:1.0;"/><line style="stroke:#181818;stroke-width:1.0;" x1="625.6602" x2="954.0889" y1="307.9883" y2="307.9883"/><text fill="#000000" font-family="sans-serif" font-size="13" font-weight="bold" lengthAdjust="spacing" textLength="7.23" x="632.6602" y="302.7256">5</text><text fill="#000000" font-family="sans-serif" font-size="13" lengthAdjust="spacing" textLength="273.8442" x="643.8901" y="302.7256">findCoAuthorsByAuthorNumber(authorNumber)</text><polygon fill="#181818" points="636.6602,335.2793,626.6602,339.2793,636.6602,343.2793,632.6602,339.2793" style="stroke:#181818;stroke-width:1.0;"/><line style="stroke:#181818;stroke-width:1.0;stroke-dasharray:2.0,2.0;" x1="630.6602" x2="964.0889" y1="339.2793" y2="339.2793"/><text fill="#000000" font-family="sans-serif" font-size="13" font-weight="bold" lengthAdjust="spacing" textLength="7.23" x="642.6602" y="334.0166">6</text><text fill="#000000" font-family="sans-serif" font-size="13" lengthAdjust="spacing" textLength="73.7153" x="653.8901" y="334.0166">List&lt;Author&gt;</text><path d="M536.3604,354.2793 L608.7949,354.2793 L608.7949,363.5703 L598.7949,373.5703 L536.3604,373.5703 L536.3604,354.2793 " fill="#EEEEEE" style="stroke:#000000;stroke-width:1.5;"/><rect fill="none" height="144.4551" style="stroke:#000000;stroke-width:1.5;" width="711.731" x="536.3604" y="354.2793"/><text fill="#000000" font-family="sans-serif" font-size="13" font-weight="bold" lengthAdjust="spacing" textLength="27.4346" x="551.3604" y="369.3076">loop</text><text fill="#000000" font-family="sans-serif" font-size="11" font-weight="bold" lengthAdjust="spacing" textLength="103.8931" x="623.7949" y="368.1494">[for each co-author]</text><polygon fill="#181818" points="948.0889,392.8613,958.0889,396.8613,948.0889,400.8613,952.0889,396.8613" style="stroke:#181818;stroke-width:1.0;"/><line style="stroke:#181818;stroke-width:1.0;" x1="625.6602" x2="954.0889" y1="396.8613" y2="396.8613"/><text fill="#000000" font-family="sans-serif" font-size="13" font-weight="bold" lengthAdjust="spacing" textLength="7.23" x="632.6602" y="391.5986">7</text><text fill="#000000" font-family="sans-serif" font-size="13" lengthAdjust="spacing" textLength="304.1987" x="643.8901" y="391.5986">findBooksByAuthorNumber(coAuthor.authorNumber)</text><polygon fill="#181818" points="636.6602,424.1523,626.6602,428.1523,636.6602,432.1523,632.6602,428.1523" style="stroke:#181818;stroke-width:1.0;"/><line style="stroke:#181818;stroke-width:1.0;stroke-dasharray:2.0,2.0;" x1="630.6602" x2="964.0889" y1="428.1523" y2="428.1523"/><text fill="#000000" font-family="sans-serif" font-size="13" font-weight="bold" lengthAdjust="spacing" textLength="7.23" x="642.6602" y="422.8896">8</text><text fill="#000000" font-family="sans-serif" font-size="13" lengthAdjust="spacing" textLength="65.0444" x="653.8901" y="422.8896">List&lt;Book&gt;</text><polygon fill="#181818" points="1128.8813,455.4434,1138.8813,459.4434,1128.8813,463.4434,1132.8813,459.4434" style="stroke:#181818;stroke-width:1.0;"/><line style="stroke:#181818;stroke-width:1.0;" x1="625.6602" x2="1134.8813" y1="459.4434" y2="459.4434"/><text fill="#000000" font-family="sans-serif" font-size="13" font-weight="bold" lengthAdjust="spacing" textLength="7.23" x="632.6602" y="454.1807">9</text><text fill="#000000" font-family="sans-serif" font-size="13" lengthAdjust="spacing" textLength="196.5425" x="643.8901" y="454.1807">toCoAuthorView(coAuthor, books)</text><polygon fill="#181818" points="636.6602,486.7344,626.6602,490.7344,636.6602,494.7344,632.6602,490.7344" style="stroke:#181818;stroke-width:1.0;"/><line style="stroke:#181818;stroke-width:1.0;stroke-dasharray:2.0,2.0;" x1="630.6602" x2="1144.8813" y1="490.7344" y2="490.7344"/><text fill="#000000" font-family="sans-serif" font-size="13" font-weight="bold" lengthAdjust="spacing" textLength="14.46" x="642.6602" y="485.4717">10</text><text fill="#000000" font-family="sans-serif" font-size="13" lengthAdjust="spacing" textLength="83.0972" x="661.1201" y="485.4717">CoAuthorView</text><polygon fill="#181818" points="1128.8813,525.0254,1138.8813,529.0254,1128.8813,533.0254,1132.8813,529.0254" style="stroke:#181818;stroke-width:1.0;"/><line style="stroke:#181818;stroke-width:1.0;" x1="625.6602" x2="1134.8813" y1="529.0254" y2="529.0254"/><text fill="#000000" font-family="sans-serif" font-size="13" font-weight="bold" lengthAdjust="spacing" textLength="14.46" x="632.6602" y="523.7627">11</text><text fill="#000000" font-family="sans-serif" font-size="13" lengthAdjust="spacing" textLength="307.8232" x="651.1201" y="523.7627">toAuthorCoAuthorBooksView(author, coAuthorViews)</text><polygon fill="#181818" points="636.6602,556.3164,626.6602,560.3164,636.6602,564.3164,632.6602,560.3164" style="stroke:#181818;stroke-width:1.0;"/><line style="stroke:#181818;stroke-width:1.0;stroke-dasharray:2.0,2.0;" x1="630.6602" x2="1144.8813" y1="560.3164" y2="560.3164"/><text fill="#000000" font-family="sans-serif" font-size="13" font-weight="bold" lengthAdjust="spacing" textLength="14.46" x="642.6602" y="555.0537">12</text><text fill="#000000" font-family="sans-serif" font-size="13" lengthAdjust="spacing" textLength="157.5298" x="661.1201" y="555.0537">AuthorCoAuthorBooksView</text><polygon fill="#181818" points="371.7104,587.6074,361.7104,591.6074,371.7104,595.6074,367.7104,591.6074" style="stroke:#181818;stroke-width:1.0;"/><line style="stroke:#181818;stroke-width:1.0;stroke-dasharray:2.0,2.0;" x1="365.7104" x2="619.6602" y1="591.6074" y2="591.6074"/><text fill="#000000" font-family="sans-serif" font-size="13" font-weight="bold" lengthAdjust="spacing" textLength="14.46" x="377.7104" y="586.3447">13</text><text fill="#000000" font-family="sans-serif" font-size="13" lengthAdjust="spacing" textLength="157.5298" x="396.1704" y="586.3447">AuthorCoAuthorBooksView</text><polygon fill="#181818" points="77.1172,618.8984,67.1172,622.8984,77.1172,626.8984,73.1172,622.8984" style="stroke:#181818;stroke-width:1.0;"/><line style="stroke:#181818;stroke-width:1.0;stroke-dasharray:2.0,2.0;" x1="71.1172" x2="354.7104" y1="622.8984" y2="622.8984"/><text fill="#000000" font-family="sans-serif" font-size="13" font-weight="bold" lengthAdjust="spacing" textLength="14.46" x="83.1172" y="617.6357">14</text><text fill="#000000" font-family="sans-serif" font-size="13" lengthAdjust="spacing" textLength="104.7871" x="101.5771" y="617.6357">200 - List&lt;Books&gt;</text><line style="stroke:#000000;stroke-width:1.0;stroke-dasharray:2.0,2.0;" x1="10" x2="1258.0913" y1="631.8984" y2="631.8984"/><text fill="#000000" font-family="sans-serif" font-size="11" font-weight="bold" lengthAdjust="spacing" textLength="97.1255" x="15" y="643.7686">[Author not found]</text><polygon fill="#181818" points="77.1172,666.8203,67.1172,670.8203,77.1172,674.8203,73.1172,670.8203" style="stroke:#181818;stroke-width:1.0;"/><line style="stroke:#181818;stroke-width:1.0;stroke-dasharray:2.0,2.0;" x1="71.1172" x2="354.7104" y1="670.8203" y2="670.8203"/><text fill="#000000" font-family="sans-serif" font-size="13" font-weight="bold" lengthAdjust="spacing" textLength="14.46" x="83.1172" y="665.5576">15</text><text fill="#000000" font-family="sans-serif" font-size="13" lengthAdjust="spacing" textLength="147.4243" x="101.5771" y="665.5576">404 - NotFoundException</text><!--SRC=[ZPFRRjim38RlzHH4RhO1SnqClJA606tGmu2jABPWzuhCDa9bIPFe7Z3itQU3NTlncYKm48laH_saoNSx8kkhihIAQseRTI9CKthyrQ8MMDIItplUCDwIuOBa8oS4ezDPjyqM7MCaII5SNMn0c28uTiPvuBe6sg5qi3NcmSFs1RBh9b70FNn7NaS-v3KE5jURpIsibKHDYv7RSaTII1lKmQ8w3ydERhzq0PwcxZKvLPrb1MkZoHcbqANWuJX5FBf7AR2dVkHZGhAfiqofXbkBheD-IdpwbWmZR32c0dFZ-ehpFnIhL4ELUbToAykkU-NlSQ_-bC9qZeXwYk1GJmNtI6lJ5N3-ab_UZpDyO6o8Z_Iaj0hkfAvxC1Dx-2GUYhtxinV2SsFeqhIwldWMQ4c6GM5SKHzm5rqCmk-_QcRr_5DMJ7LOsbVfwNCEMR4KhuonGOa3v68tJ6po7IKjZk2-BD79FPdhEr9ZpBewA6AOg0h8z0sArjVhF-Pbsxzu86TtZzCa2iFUnXOnTfoERElJfDuaIRmJ94ON-F4NEo3gZPmpHQ_xynQGYBmnAJPkNGMVbaieXgxxC1YeFFPJgWsD9dL6dovF0pqVzD0uzXS0]--></g></svg>