<svg xmlns="http://www.w3.org/2000/svg" xmlns:xlink="http://www.w3.org/1999/xlink" contentStyleType="text/css" height="397px" preserveAspectRatio="none" style="width:392px;height:397px;background:#FFFFFF;" version="1.1" viewBox="0 0 392 397" width="392px" zoomAndPan="magnify"><title>Register a new book as librarian</title><defs/><g><text fill="#000000" font-family="sans-serif" font-size="14" font-weight="bold" lengthAdjust="spacing" textLength="214.7373" x="93.2925" y="30.1074">Register a new book as librarian</text><rect fill="#FFFFFF" height="172.4551" style="stroke:#181818;stroke-width:1.0;" width="10" x="56.1172" y="133.2422"/><rect fill="#FFFFFF" height="91.582" style="stroke:#181818;stroke-width:1.0;" width="10" x="61.1172" y="214.1152"/><rect fill="#FFFFFF" height="149.1641" style="stroke:#181818;stroke-width:1.0;" width="10" x="279.8306" y="156.5332"/><rect fill="#FFFFFF" height="36.291" style="stroke:#181818;stroke-width:1.0;" width="10" x="284.8306" y="260.4063"/><rect fill="none" height="50.582" style="stroke:#000000;stroke-width:1.5;" width="326.8545" x="10" y="171.5332"/><line style="stroke:#181818;stroke-width:0.5;stroke-dasharray:5.0,5.0;" x1="61" x2="61" y1="123.2422" y2="314.6973"/><line style="stroke:#181818;stroke-width:0.5;stroke-dasharray:5.0,5.0;" x1="284.8066" x2="284.8066" y1="123.2422" y2="314.6973"/><text fill="#000000" font-family="sans-serif" font-size="14" lengthAdjust="spacing" textLength="76.2344" x="20" y="119.7285">HTTP Client</text><ellipse cx="61.1172" cy="53.1211" fill="#E2E2F0" rx="8" ry="8" style="stroke:#181818;stroke-width:0.5;"/><path d="M61.1172,61.1211 L61.1172,88.1211 M48.1172,69.1211 L74.1172,69.1211 M61.1172,88.1211 L48.1172,103.1211 M61.1172,88.1211 L74.1172,103.1211 " fill="none" style="stroke:#181818;stroke-width:0.5;"/><text fill="#000000" font-family="sans-serif" font-size="14" lengthAdjust="spacing" textLength="76.2344" x="20" y="328.8047">HTTP Client</text><ellipse cx="61.1172" cy="340.8184" fill="#E2E2F0" rx="8" ry="8" style="stroke:#181818;stroke-width:0.5;"/><path d="M61.1172,348.8184 L61.1172,375.8184 M48.1172,356.8184 L74.1172,356.8184 M61.1172,375.8184 L48.1172,390.8184 M61.1172,375.8184 L74.1172,390.8184 " fill="none" style="stroke:#181818;stroke-width:0.5;"/><rect fill="#E2E2F0" height="32.6211" rx="2.5" ry="2.5" style="stroke:#181818;stroke-width:0.5;" width="84.0479" x="242.8066" y="89.6211"/><text fill="#000000" font-family="sans-serif" font-size="14" lengthAdjust="spacing" textLength="70.0479" x="249.8066" y="111.7285">:Book:book</text><rect fill="#E2E2F0" height="32.6211" rx="2.5" ry="2.5" style="stroke:#181818;stroke-width:0.5;" width="84.0479" x="242.8066" y="313.6973"/><text fill="#000000" font-family="sans-serif" font-size="14" lengthAdjust="spacing" textLength="70.0479" x="249.8066" y="335.8047">:Book:book</text><rect fill="#FFFFFF" height="172.4551" style="stroke:#181818;stroke-width:1.0;" width="10" x="56.1172" y="133.2422"/><rect fill="#FFFFFF" height="91.582" style="stroke:#181818;stroke-width:1.0;" width="10" x="61.1172" y="214.1152"/><rect fill="#FFFFFF" height="149.1641" style="stroke:#181818;stroke-width:1.0;" width="10" x="279.8306" y="156.5332"/><rect fill="#FFFFFF" height="36.291" style="stroke:#181818;stroke-width:1.0;" width="10" x="284.8306" y="260.4063"/><polygon fill="#181818" points="267.8306,152.5332,277.8306,156.5332,267.8306,160.5332,271.8306,156.5332" style="stroke:#181818;stroke-width:1.0;"/><line style="stroke:#181818;stroke-width:1.0;" x1="66.1172" x2="273.8306" y1="156.5332" y2="156.5332"/><text fill="#000000" font-family="sans-serif" font-size="13" font-weight="bold" lengthAdjust="spacing" textLength="7.23" x="73.1172" y="151.2705">1</text><text fill="#000000" font-family="sans-serif" font-size="13" lengthAdjust="spacing" textLength="161.1606" x="84.3472" y="151.2705">PUT /api/books/{isbn}/photo</text><path d="M10,171.5332 L70.1709,171.5332 L70.1709,180.8242 L60.1709,190.8242 L10,190.8242 L10,171.5332 " fill="#EEEEEE" style="stroke:#000000;stroke-width:1.5;"/><rect fill="none" height="50.582" style="stroke:#000000;stroke-width:1.5;" width="326.8545" x="10" y="171.5332"/><text fill="#000000" font-family="sans-serif" font-size="13" font-weight="bold" lengthAdjust="spacing" textLength="15.1709" x="25" y="186.5615">alt</text><text fill="#000000" font-family="sans-serif" font-size="11" font-weight="bold" lengthAdjust="spacing" textLength="128.353" x="85.1709" y="185.4033">[If exception is returned]</text><polygon fill="#181818" points="82.1172,210.1152,72.1172,214.1152,82.1172,218.1152,78.1172,214.1152" style="stroke:#181818;stroke-width:1.0;"/><line style="stroke:#181818;stroke-width:1.0;" x1="76.1172" x2="278.8306" y1="214.1152" y2="214.1152"/><text fill="#000000" font-family="sans-serif" font-size="13" font-weight="bold" lengthAdjust="spacing" textLength="7.23" x="88.1172" y="208.8525">2</text><text fill="#000000" font-family="sans-serif" font-size="13" lengthAdjust="spacing" textLength="178.4834" x="99.3472" y="208.8525">409 Conflict - Book is duplicate</text><line style="stroke:#181818;stroke-width:1.0;" x1="289.8306" x2="336.8306" y1="247.4063" y2="247.4063"/><line style="stroke:#181818;stroke-width:1.0;" x1="336.8306" x2="336.8306" y1="247.4063" y2="260.4063"/><line style="stroke:#181818;stroke-width:1.0;" x1="295.8306" x2="336.8306" y1="260.4063" y2="260.4063"/><polygon fill="#181818" points="305.8306,256.4063,295.8306,260.4063,305.8306,264.4063,301.8306,260.4063" style="stroke:#181818;stroke-width:1.0;"/><text fill="#000000" font-family="sans-serif" font-size="13" font-weight="bold" lengthAdjust="spacing" textLength="7.23" x="301.8306" y="242.1436">3</text><text fill="#000000" font-family="sans-serif" font-size="13" lengthAdjust="spacing" textLength="72.2617" x="313.0605" y="242.1436">register data</text><polygon fill="#181818" points="82.1172,292.6973,72.1172,296.6973,82.1172,300.6973,78.1172,296.6973" style="stroke:#181818;stroke-width:1.0;"/><line style="stroke:#181818;stroke-width:1.0;stroke-dasharray:2.0,2.0;" x1="76.1172" x2="278.8306" y1="296.6973" y2="296.6973"/><text fill="#000000" font-family="sans-serif" font-size="13" font-weight="bold" lengthAdjust="spacing" textLength="7.23" x="88.1172" y="291.4346">4</text><text fill="#000000" font-family="sans-serif" font-size="13" lengthAdjust="spacing" textLength="122.8525" x="99.3472" y="291.4346">201 - registered book</text><!--SRC=[LP31JiCm38RlUGfh5qub0t6X1oJO1MuJb0TmMs-pI9sGEC24U7VIZdOYfyJv_q-VV75G3QcsDZWKpOExxFnW4xrdaewgdd4VSJ2OrMEd_85Au6LwInvQYiOegoDufZqdfGW8Gf_GUly6cC1n6p4oYZ6bxoEi7fjc2nl79BeQ4_VYvJZud4p0gDnnA2AmgXyAeHunK-hbME23cIWdYtFFB5UexlwIDMnV6x0Os8wCPByvjV9Zmy6hBnIdyBG3-keeA7i1JX19SnJg3PHpeeoy1Lx3pVeMDbvsZZk52aR3iTZdK2R5oP3qvjoSJUAycXuLb___wElrLI7EIUgd1PfV]--></g></svg>