<svg xmlns="http://www.w3.org/2000/svg" xmlns:xlink="http://www.w3.org/1999/xlink" contentStyleType="text/css" height="635px" preserveAspectRatio="none" style="width:977px;height:635px;background:#FFFFFF;" version="1.1" viewBox="0 0 977 635" width="977px" zoomAndPan="magnify"><title>Register a new book as librarian</title><defs/><g><text fill="#000000" font-family="sans-serif" font-size="14" font-weight="bold" lengthAdjust="spacing" textLength="214.7373" x="380.27" y="30.1074">Register a new book as librarian</text><rect fill="#FFFFFF" height="409.7832" style="stroke:#181818;stroke-width:1.0;" width="10" x="41.1172" y="133.2422"/><rect fill="#FFFFFF" height="386.4922" style="stroke:#181818;stroke-width:1.0;" width="10" x="242.5078" y="156.5332"/><rect fill="#FFFFFF" height="194.7461" style="stroke:#181818;stroke-width:1.0;" width="10" x="247.5078" y="339.2793"/><rect fill="#FFFFFF" height="314.9102" style="stroke:#181818;stroke-width:1.0;" width="10" x="494.4448" y="187.8242"/><rect fill="#FFFFFF" height="62.582" style="stroke:#181818;stroke-width:1.0;" width="10" x="650.9683" y="219.1152"/><rect fill="#FFFFFF" height="93.873" style="stroke:#181818;stroke-width:1.0;" width="10" x="650.9683" y="377.5703"/><rect fill="#FFFFFF" height="31.291" style="stroke:#181818;stroke-width:1.0;" width="10" x="803.7505" y="408.8613"/><rect fill="#FFFFFF" height="292.6191" style="stroke:#181818;stroke-width:1.0;" width="10" x="926.1982" y="250.4063"/><rect fill="none" height="50.582" style="stroke:#000000;stroke-width:1.5;" width="374.2505" x="201.3252" y="296.6973"/><line style="stroke:#181818;stroke-width:0.5;stroke-dasharray:5.0,5.0;" x1="46" x2="46" y1="123.2422" y2="552.0254"/><line style="stroke:#181818;stroke-width:0.5;stroke-dasharray:5.0,5.0;" x1="247.3252" x2="247.3252" y1="123.2422" y2="552.0254"/><line style="stroke:#181818;stroke-width:0.5;stroke-dasharray:5.0,5.0;" x1="499.314" x2="499.314" y1="123.2422" y2="552.0254"/><line style="stroke:#181818;stroke-width:0.5;stroke-dasharray:5.0,5.0;" x1="655.5547" x2="655.5547" y1="123.2422" y2="552.0254"/><line style="stroke:#181818;stroke-width:0.5;stroke-dasharray:5.0,5.0;" x1="808.3818" x2="808.3818" y1="123.2422" y2="552.0254"/><line style="stroke:#181818;stroke-width:0.5;stroke-dasharray:5.0,5.0;" x1="931.1191" x2="931.1191" y1="123.2422" y2="552.0254"/><text fill="#000000" font-family="sans-serif" font-size="14" lengthAdjust="spacing" textLength="76.2344" x="5" y="119.7285">HTTP Client</text><ellipse cx="46.1172" cy="53.1211" fill="#E2E2F0" rx="8" ry="8" style="stroke:#181818;stroke-width:0.5;"/><path d="M46.1172,61.1211 L46.1172,88.1211 M33.1172,69.1211 L59.1172,69.1211 M46.1172,88.1211 L33.1172,103.1211 M46.1172,88.1211 L59.1172,103.1211 " fill="none" style="stroke:#181818;stroke-width:0.5;"/><text fill="#000000" font-family="sans-serif" font-size="14" lengthAdjust="spacing" textLength="76.2344" x="5" y="566.1328">HTTP Client</text><ellipse cx="46.1172" cy="578.1465" fill="#E2E2F0" rx="8" ry="8" style="stroke:#181818;stroke-width:0.5;"/><path d="M46.1172,586.1465 L46.1172,613.1465 M33.1172,594.1465 L59.1172,594.1465 M46.1172,613.1465 L33.1172,628.1465 M46.1172,613.1465 L59.1172,628.1465 " fill="none" style="stroke:#181818;stroke-width:0.5;"/><rect fill="#E2E2F0" height="32.6211" rx="2.5" ry="2.5" style="stroke:#181818;stroke-width:0.5;" width="72.3652" x="211.3252" y="89.6211"/><text fill="#000000" font-family="sans-serif" font-size="14" lengthAdjust="spacing" textLength="58.3652" x="218.3252" y="111.7285">:BookAPI</text><rect fill="#E2E2F0" height="32.6211" rx="2.5" ry="2.5" style="stroke:#181818;stroke-width:0.5;" width="72.3652" x="211.3252" y="551.0254"/><text fill="#000000" font-family="sans-serif" font-size="14" lengthAdjust="spacing" textLength="58.3652" x="218.3252" y="573.1328">:BookAPI</text><rect fill="#E2E2F0" height="32.6211" rx="2.5" ry="2.5" style="stroke:#181818;stroke-width:0.5;" width="132.2617" x="433.314" y="89.6211"/><text fill="#000000" font-family="sans-serif" font-size="14" lengthAdjust="spacing" textLength="118.2617" x="440.314" y="111.7285">Ctrl:BookController</text><rect fill="#E2E2F0" height="32.6211" rx="2.5" ry="2.5" style="stroke:#181818;stroke-width:0.5;" width="132.2617" x="433.314" y="551.0254"/><text fill="#000000" font-family="sans-serif" font-size="14" lengthAdjust="spacing" textLength="118.2617" x="440.314" y="573.1328">Ctrl:BookController</text><rect fill="#E2E2F0" height="32.6211" rx="2.5" ry="2.5" style="stroke:#181818;stroke-width:0.5;" width="140.8271" x="585.5547" y="89.6211"/><text fill="#000000" font-family="sans-serif" font-size="14" lengthAdjust="spacing" textLength="126.8271" x="592.5547" y="111.7285">service:BookService</text><rect fill="#E2E2F0" height="32.6211" rx="2.5" ry="2.5" style="stroke:#181818;stroke-width:0.5;" width="140.8271" x="585.5547" y="551.0254"/><text fill="#000000" font-family="sans-serif" font-size="14" lengthAdjust="spacing" textLength="126.8271" x="592.5547" y="573.1328">service:BookService</text><rect fill="#E2E2F0" height="32.6211" rx="2.5" ry="2.5" style="stroke:#181818;stroke-width:0.5;" width="144.7373" x="736.3818" y="89.6211"/><text fill="#000000" font-family="sans-serif" font-size="14" lengthAdjust="spacing" textLength="130.7373" x="743.3818" y="111.7285">repo:BookRepository</text><rect fill="#E2E2F0" height="32.6211" rx="2.5" ry="2.5" style="stroke:#181818;stroke-width:0.5;" width="144.7373" x="736.3818" y="551.0254"/><text fill="#000000" font-family="sans-serif" font-size="14" lengthAdjust="spacing" textLength="130.7373" x="743.3818" y="573.1328">repo:BookRepository</text><rect fill="#E2E2F0" height="32.6211" rx="2.5" ry="2.5" style="stroke:#181818;stroke-width:0.5;" width="80.1582" x="891.1191" y="89.6211"/><text fill="#000000" font-family="sans-serif" font-size="14" lengthAdjust="spacing" textLength="66.1582" x="898.1191" y="111.7285">book:Book</text><rect fill="#E2E2F0" height="32.6211" rx="2.5" ry="2.5" style="stroke:#181818;stroke-width:0.5;" width="80.1582" x="891.1191" y="551.0254"/><text fill="#000000" font-family="sans-serif" font-size="14" lengthAdjust="spacing" textLength="66.1582" x="898.1191" y="573.1328">book:Book</text><rect fill="#FFFFFF" height="409.7832" style="stroke:#181818;stroke-width:1.0;" width="10" x="41.1172" y="133.2422"/><rect fill="#FFFFFF" height="386.4922" style="stroke:#181818;stroke-width:1.0;" width="10" x="242.5078" y="156.5332"/><rect fill="#FFFFFF" height="194.7461" style="stroke:#181818;stroke-width:1.0;" width="10" x="247.5078" y="339.2793"/><rect fill="#FFFFFF" height="314.9102" style="stroke:#181818;stroke-width:1.0;" width="10" x="494.4448" y="187.8242"/><rect fill="#FFFFFF" height="62.582" style="stroke:#181818;stroke-width:1.0;" width="10" x="650.9683" y="219.1152"/><rect fill="#FFFFFF" height="93.873" style="stroke:#181818;stroke-width:1.0;" width="10" x="650.9683" y="377.5703"/><rect fill="#FFFFFF" height="31.291" style="stroke:#181818;stroke-width:1.0;" width="10" x="803.7505" y="408.8613"/><rect fill="#FFFFFF" height="292.6191" style="stroke:#181818;stroke-width:1.0;" width="10" x="926.1982" y="250.4063"/><polygon fill="#181818" points="230.5078,152.5332,240.5078,156.5332,230.5078,160.5332,234.5078,156.5332" style="stroke:#181818;stroke-width:1.0;"/><line style="stroke:#181818;stroke-width:1.0;" x1="51.1172" x2="236.5078" y1="156.5332" y2="156.5332"/><text fill="#000000" font-family="sans-serif" font-size="13" font-weight="bold" lengthAdjust="spacing" textLength="7.23" x="58.1172" y="151.2705">1</text><text fill="#000000" font-family="sans-serif" font-size="13" lengthAdjust="spacing" textLength="161.1606" x="69.3472" y="151.2705">PUT /api/books/{isbn}/photo</text><polygon fill="#181818" points="482.4448,183.8242,492.4448,187.8242,482.4448,191.8242,486.4448,187.8242" style="stroke:#181818;stroke-width:1.0;"/><line style="stroke:#181818;stroke-width:1.0;" x1="252.5078" x2="488.4448" y1="187.8242" y2="187.8242"/><text fill="#000000" font-family="sans-serif" font-size="13" font-weight="bold" lengthAdjust="spacing" textLength="7.23" x="259.5078" y="182.5615">2</text><text fill="#000000" font-family="sans-serif" font-size="13" lengthAdjust="spacing" textLength="211.707" x="270.7378" y="182.5615">registerBook(RegisterBookRequest);</text><polygon fill="#181818" points="638.9683,215.1152,648.9683,219.1152,638.9683,223.1152,642.9683,219.1152" style="stroke:#181818;stroke-width:1.0;"/><line style="stroke:#181818;stroke-width:1.0;" x1="504.4448" x2="644.9683" y1="219.1152" y2="219.1152"/><text fill="#000000" font-family="sans-serif" font-size="13" font-weight="bold" lengthAdjust="spacing" textLength="7.23" x="511.4448" y="213.8525">3</text><text fill="#000000" font-family="sans-serif" font-size="13" lengthAdjust="spacing" textLength="114.1499" x="522.6748" y="213.8525">create(title, isbn, ...)</text><polygon fill="#181818" points="914.1982,246.4063,924.1982,250.4063,914.1982,254.4063,918.1982,250.4063" style="stroke:#181818;stroke-width:1.0;"/><line style="stroke:#181818;stroke-width:1.0;" x1="660.9683" x2="920.1982" y1="250.4063" y2="250.4063"/><text fill="#000000" font-family="sans-serif" font-size="13" font-weight="bold" lengthAdjust="spacing" textLength="7.23" x="667.9683" y="245.1436">4</text><text fill="#000000" font-family="sans-serif" font-size="13" lengthAdjust="spacing" textLength="107.6499" x="679.1982" y="245.1436">Book(title, isbn, ...)</text><polygon fill="#181818" points="515.4448,277.6973,505.4448,281.6973,515.4448,285.6973,511.4448,281.6973" style="stroke:#181818;stroke-width:1.0;"/><line style="stroke:#181818;stroke-width:1.0;stroke-dasharray:2.0,2.0;" x1="509.4448" x2="654.9683" y1="281.6973" y2="281.6973"/><text fill="#000000" font-family="sans-serif" font-size="13" font-weight="bold" lengthAdjust="spacing" textLength="7.23" x="521.4448" y="276.4346">5</text><text fill="#000000" font-family="sans-serif" font-size="13" lengthAdjust="spacing" textLength="104.0635" x="532.6748" y="276.4346">Book or exception</text><path d="M201.3252,296.6973 L261.4961,296.6973 L261.4961,305.9883 L251.4961,315.9883 L201.3252,315.9883 L201.3252,296.6973 " fill="#EEEEEE" style="stroke:#000000;stroke-width:1.5;"/><rect fill="none" height="50.582" style="stroke:#000000;stroke-width:1.5;" width="374.2505" x="201.3252" y="296.6973"/><text fill="#000000" font-family="sans-serif" font-size="13" font-weight="bold" lengthAdjust="spacing" textLength="15.1709" x="216.3252" y="311.7256">alt</text><text fill="#000000" font-family="sans-serif" font-size="11" font-weight="bold" lengthAdjust="spacing" textLength="128.353" x="276.4961" y="310.5674">[If exception is returned]</text><polygon fill="#181818" points="268.5078,335.2793,258.5078,339.2793,268.5078,343.2793,264.5078,339.2793" style="stroke:#181818;stroke-width:1.0;"/><line style="stroke:#181818;stroke-width:1.0;" x1="262.5078" x2="493.4448" y1="339.2793" y2="339.2793"/><text fill="#000000" font-family="sans-serif" font-size="13" font-weight="bold" lengthAdjust="spacing" textLength="7.23" x="274.5078" y="334.0166">6</text><text fill="#000000" font-family="sans-serif" font-size="13" lengthAdjust="spacing" textLength="98.2808" x="285.7378" y="334.0166">Book is duplicate</text><polygon fill="#181818" points="638.9683,373.5703,648.9683,377.5703,638.9683,381.5703,642.9683,377.5703" style="stroke:#181818;stroke-width:1.0;"/><line style="stroke:#181818;stroke-width:1.0;" x1="504.4448" x2="644.9683" y1="377.5703" y2="377.5703"/><text fill="#000000" font-family="sans-serif" font-size="13" font-weight="bold" lengthAdjust="spacing" textLength="7.23" x="511.4448" y="372.3076">7</text><text fill="#000000" font-family="sans-serif" font-size="13" lengthAdjust="spacing" textLength="64.3081" x="522.6748" y="372.3076">save(book)</text><polygon fill="#181818" points="791.7505,404.8613,801.7505,408.8613,791.7505,412.8613,795.7505,408.8613" style="stroke:#181818;stroke-width:1.0;"/><line style="stroke:#181818;stroke-width:1.0;" x1="660.9683" x2="797.7505" y1="408.8613" y2="408.8613"/><text fill="#000000" font-family="sans-serif" font-size="13" font-weight="bold" lengthAdjust="spacing" textLength="7.23" x="667.9683" y="403.5986">8</text><text fill="#000000" font-family="sans-serif" font-size="13" lengthAdjust="spacing" textLength="64.3081" x="679.1982" y="403.5986">save(book)</text><polygon fill="#181818" points="671.9683,436.1523,661.9683,440.1523,671.9683,444.1523,667.9683,440.1523" style="stroke:#181818;stroke-width:1.0;"/><line style="stroke:#181818;stroke-width:1.0;stroke-dasharray:2.0,2.0;" x1="665.9683" x2="807.7505" y1="440.1523" y2="440.1523"/><text fill="#000000" font-family="sans-serif" font-size="13" font-weight="bold" lengthAdjust="spacing" textLength="7.23" x="677.9683" y="434.8896">9</text><text fill="#000000" font-family="sans-serif" font-size="13" lengthAdjust="spacing" textLength="104.0635" x="689.1982" y="434.8896">Book or exception</text><polygon fill="#181818" points="515.4448,467.4434,505.4448,471.4434,515.4448,475.4434,511.4448,471.4434" style="stroke:#181818;stroke-width:1.0;"/><line style="stroke:#181818;stroke-width:1.0;stroke-dasharray:2.0,2.0;" x1="509.4448" x2="654.9683" y1="471.4434" y2="471.4434"/><text fill="#000000" font-family="sans-serif" font-size="13" font-weight="bold" lengthAdjust="spacing" textLength="14.46" x="521.4448" y="466.1807">10</text><text fill="#000000" font-family="sans-serif" font-size="13" lengthAdjust="spacing" textLength="104.0635" x="539.9048" y="466.1807">Book or exception</text><polygon fill="#181818" points="268.5078,498.7344,258.5078,502.7344,268.5078,506.7344,264.5078,502.7344" style="stroke:#181818;stroke-width:1.0;"/><line style="stroke:#181818;stroke-width:1.0;stroke-dasharray:2.0,2.0;" x1="262.5078" x2="498.4448" y1="502.7344" y2="502.7344"/><text fill="#000000" font-family="sans-serif" font-size="13" font-weight="bold" lengthAdjust="spacing" textLength="14.46" x="274.5078" y="497.4717">11</text><text fill="#000000" font-family="sans-serif" font-size="13" lengthAdjust="spacing" textLength="28.1899" x="292.9678" y="497.4717">book</text><polygon fill="#181818" points="62.1172,530.0254,52.1172,534.0254,62.1172,538.0254,58.1172,534.0254" style="stroke:#181818;stroke-width:1.0;"/><line style="stroke:#181818;stroke-width:1.0;stroke-dasharray:2.0,2.0;" x1="56.1172" x2="241.5078" y1="534.0254" y2="534.0254"/><text fill="#000000" font-family="sans-serif" font-size="13" font-weight="bold" lengthAdjust="spacing" textLength="14.46" x="68.1172" y="528.7627">12</text><text fill="#000000" font-family="sans-serif" font-size="13" lengthAdjust="spacing" textLength="122.8525" x="86.5771" y="528.7627">201 - registered book</text><!--SRC=[ZP51JiCm44NtFiMe6rg99i0oI4Yb6xghqd80DnbQ2ySszgHG8UwEnudIHY145j5u_Fpzl-VgGEH2aUTEIqDjexFADdd0jnPDXVDQoRsNZP0jMLcHEaf2i2QjJTliq0j1YZH2YNiL23r8CFWEEsjVGGRGQkUbLz884SzR3vEdxNODIwtGq8I9XR7crDWs22SzgKgvQ0GcnMDKMAnNYTcSedGp1fRaTOAMrf2tMgDFBFV7P41_L1KcUDFLdMfNZs6FpYQoZ4LGqV8fmRmSanmnaMcVYvInUwDpAZ6KC7_eanImVjv2BftAMINadohip5Vk3fQi41t4U0e9ldzRlcDQNYnAdbEWsRqGJAOB-h1GUOn6fcawry3wrv1bsKpq1CEiKQJ_NzpWWq68CyIF2XqfoqFL1AkNSoSAHBlKUeErWFWDllhWIID2TUkqgg93WQR-nNwGHvpouumCynH6Uzn83eU3Fqt-AqXduC8ewm-JYFrXZ0NStTp2V9WArXtx3G00]--></g></svg>