<svg xmlns="http://www.w3.org/2000/svg" xmlns:xlink="http://www.w3.org/1999/xlink" contentStyleType="text/css" height="414px" preserveAspectRatio="none" style="width:468px;height:414px;background:#FFFFFF;" version="1.1" viewBox="0 0 468 414" width="468px" zoomAndPan="magnify"><title>GET authors by name as Librarian or Reader</title><defs/><g><text fill="#000000" font-family="sans-serif" font-size="14" font-weight="bold" lengthAdjust="spacing" textLength="297.1992" x="86.6064" y="30.1074">GET authors by name as Librarian or Reader</text><rect fill="#FFFFFF" height="189.0859" style="stroke:#181818;stroke-width:1.0;" width="10" x="56.1172" y="133.2422"/><rect fill="#FFFFFF" height="57.582" style="stroke:#181818;stroke-width:1.0;" width="10" x="325.7896" y="156.5332"/><rect fill="#FFFFFF" height="36.291" style="stroke:#181818;stroke-width:1.0;" width="10" x="325.7896" y="270.0371"/><rect fill="none" height="142.7949" style="stroke:#000000;stroke-width:1.5;" width="451.4121" x="10" y="171.5332"/><line style="stroke:#181818;stroke-width:0.5;stroke-dasharray:5.0,5.0;" x1="61" x2="61" y1="123.2422" y2="331.3281"/><line style="stroke:#181818;stroke-width:0.5;stroke-dasharray:5.0,5.0;" x1="330.7656" x2="330.7656" y1="123.2422" y2="331.3281"/><text fill="#000000" font-family="sans-serif" font-size="14" lengthAdjust="spacing" textLength="76.2344" x="20" y="119.7285">HTTP Client</text><ellipse cx="61.1172" cy="53.1211" fill="#E2E2F0" rx="8" ry="8" style="stroke:#181818;stroke-width:0.5;"/><path d="M61.1172,61.1211 L61.1172,88.1211 M48.1172,69.1211 L74.1172,69.1211 M61.1172,88.1211 L48.1172,103.1211 M61.1172,88.1211 L74.1172,103.1211 " fill="none" style="stroke:#181818;stroke-width:0.5;"/><text fill="#000000" font-family="sans-serif" font-size="14" lengthAdjust="spacing" textLength="76.2344" x="20" y="345.4355">HTTP Client</text><ellipse cx="61.1172" cy="357.4492" fill="#E2E2F0" rx="8" ry="8" style="stroke:#181818;stroke-width:0.5;"/><path d="M61.1172,365.4492 L61.1172,392.4492 M48.1172,373.4492 L74.1172,373.4492 M61.1172,392.4492 L48.1172,407.4492 M61.1172,392.4492 L74.1172,407.4492 " fill="none" style="stroke:#181818;stroke-width:0.5;"/><rect fill="#E2E2F0" height="32.6211" rx="2.5" ry="2.5" style="stroke:#181818;stroke-width:0.5;" width="84.0479" x="288.7656" y="89.6211"/><text fill="#000000" font-family="sans-serif" font-size="14" lengthAdjust="spacing" textLength="70.0479" x="295.7656" y="111.7285">:Book:book</text><rect fill="#E2E2F0" height="32.6211" rx="2.5" ry="2.5" style="stroke:#181818;stroke-width:0.5;" width="84.0479" x="288.7656" y="330.3281"/><text fill="#000000" font-family="sans-serif" font-size="14" lengthAdjust="spacing" textLength="70.0479" x="295.7656" y="352.4355">:Book:book</text><rect fill="#FFFFFF" height="189.0859" style="stroke:#181818;stroke-width:1.0;" width="10" x="56.1172" y="133.2422"/><rect fill="#FFFFFF" height="57.582" style="stroke:#181818;stroke-width:1.0;" width="10" x="325.7896" y="156.5332"/><rect fill="#FFFFFF" height="36.291" style="stroke:#181818;stroke-width:1.0;" width="10" x="325.7896" y="270.0371"/><polygon fill="#181818" points="313.7896,152.5332,323.7896,156.5332,313.7896,160.5332,317.7896,156.5332" style="stroke:#181818;stroke-width:1.0;"/><line style="stroke:#181818;stroke-width:1.0;" x1="66.1172" x2="319.7896" y1="156.5332" y2="156.5332"/><text fill="#000000" font-family="sans-serif" font-size="13" font-weight="bold" lengthAdjust="spacing" textLength="7.23" x="73.1172" y="151.2705">1</text><text fill="#000000" font-family="sans-serif" font-size="13" lengthAdjust="spacing" textLength="229.4424" x="84.3472" y="151.2705">GET /api/authors/search?name={name}</text><path d="M10,171.5332 L70.1709,171.5332 L70.1709,180.8242 L60.1709,190.8242 L10,190.8242 L10,171.5332 " fill="#EEEEEE" style="stroke:#000000;stroke-width:1.5;"/><rect fill="none" height="142.7949" style="stroke:#000000;stroke-width:1.5;" width="451.4121" x="10" y="171.5332"/><text fill="#000000" font-family="sans-serif" font-size="13" font-weight="bold" lengthAdjust="spacing" textLength="15.1709" x="25" y="186.5615">alt</text><text fill="#000000" font-family="sans-serif" font-size="11" font-weight="bold" lengthAdjust="spacing" textLength="100.8584" x="85.1709" y="185.4033">[If there is an error]</text><polygon fill="#181818" points="77.1172,210.1152,67.1172,214.1152,77.1172,218.1152,73.1172,214.1152" style="stroke:#181818;stroke-width:1.0;"/><line style="stroke:#181818;stroke-width:1.0;stroke-dasharray:2.0,2.0;" x1="71.1172" x2="329.7896" y1="214.1152" y2="214.1152"/><text fill="#000000" font-family="sans-serif" font-size="13" font-weight="bold" lengthAdjust="spacing" textLength="7.23" x="83.1172" y="208.8525">2</text><text fill="#000000" font-family="sans-serif" font-size="13" lengthAdjust="spacing" textLength="111.2935" x="94.3472" y="208.8525">400/404/409 - error</text><line style="stroke:#000000;stroke-width:1.0;stroke-dasharray:2.0,2.0;" x1="10" x2="461.4121" y1="223.1152" y2="223.1152"/><text fill="#000000" font-family="sans-serif" font-size="11" font-weight="bold" lengthAdjust="spacing" textLength="51.9707" x="15" y="234.9854">[Success]</text><line style="stroke:#181818;stroke-width:1.0;" x1="330.7896" x2="377.7896" y1="257.0371" y2="257.0371"/><line style="stroke:#181818;stroke-width:1.0;" x1="377.7896" x2="377.7896" y1="257.0371" y2="270.0371"/><line style="stroke:#181818;stroke-width:1.0;" x1="336.7896" x2="377.7896" y1="270.0371" y2="270.0371"/><polygon fill="#181818" points="346.7896,266.0371,336.7896,270.0371,346.7896,274.0371,342.7896,270.0371" style="stroke:#181818;stroke-width:1.0;"/><text fill="#000000" font-family="sans-serif" font-size="13" font-weight="bold" lengthAdjust="spacing" textLength="7.23" x="342.7896" y="251.7744">3</text><text fill="#000000" font-family="sans-serif" font-size="13" lengthAdjust="spacing" textLength="95.3926" x="354.0195" y="251.7744">Resquest author</text><polygon fill="#181818" points="77.1172,302.3281,67.1172,306.3281,77.1172,310.3281,73.1172,306.3281" style="stroke:#181818;stroke-width:1.0;"/><line style="stroke:#181818;stroke-width:1.0;stroke-dasharray:2.0,2.0;" x1="71.1172" x2="329.7896" y1="306.3281" y2="306.3281"/><text fill="#000000" font-family="sans-serif" font-size="13" font-weight="bold" lengthAdjust="spacing" textLength="7.23" x="83.1172" y="301.0654">4</text><text fill="#000000" font-family="sans-serif" font-size="13" lengthAdjust="spacing" textLength="111.2935" x="94.3472" y="301.0654">200 - author details</text><!--SRC=[RP31IiKm44Nt-OhXRLpL5Ed6WWgAgE12dlK3fkay6qoJEfaA8lwxa_O9BWpamipSkPpaP1IPSslj733ACeLJboQRwNsXwAWQFBuoJWONIUZ4Vw0GfBZMSPbwOcF4Io2uk-r0ksFY3FqdH9m8CCEZxndPOuJ4i2SSoeOcQRMxxxedk0cUekoAzoNhS4OMx_oiDB1hhrDwQtkLrR2dBElsnh7wJL6eBjTXks9OdBqzikXJaDruLNWklef-6uq80Wy7a96Om6TGF69ER41F2O9A4qjo2qrTswPkz9v3TRHHo0JFYtEKyv-TNmXL_J_jR13_fPxLjQPjSnX8q8TiA0xc1m00]--></g></svg>