<svg xmlns="http://www.w3.org/2000/svg" xmlns:xlink="http://www.w3.org/1999/xlink" contentStyleType="text/css" height="351px" preserveAspectRatio="none" style="width:480px;height:351px;background:#FFFFFF;" version="1.1" viewBox="0 0 480 351" width="480px" zoomAndPan="magnify"><title>GET Top 5 Books as a Librarian</title><defs/><g><text fill="#000000" font-family="sans-serif" font-size="14" font-weight="bold" lengthAdjust="spacing" textLength="211.6064" x="133.6462" y="30.1074">GET Top 5 Books as a Librarian</text><rect fill="#FFFFFF" height="126.1641" style="stroke:#181818;stroke-width:1.0;" width="10" x="41.1172" y="133.2422"/><rect fill="#FFFFFF" height="93.873" style="stroke:#181818;stroke-width:1.0;" width="10" x="235.936" y="156.5332"/><rect fill="#FFFFFF" height="31.291" style="stroke:#181818;stroke-width:1.0;" width="10" x="408.4131" y="187.8242"/><line style="stroke:#181818;stroke-width:0.5;stroke-dasharray:5.0,5.0;" x1="46" x2="46" y1="123.2422" y2="268.4063"/><line style="stroke:#181818;stroke-width:0.5;stroke-dasharray:5.0,5.0;" x1="240.9121" x2="240.9121" y1="123.2422" y2="268.4063"/><line style="stroke:#181818;stroke-width:0.5;stroke-dasharray:5.0,5.0;" x1="412.9272" x2="412.9272" y1="123.2422" y2="268.4063"/><text fill="#000000" font-family="sans-serif" font-size="14" lengthAdjust="spacing" textLength="76.2344" x="5" y="119.7285">HTTP Client</text><ellipse cx="46.1172" cy="53.1211" fill="#E2E2F0" rx="8" ry="8" style="stroke:#181818;stroke-width:0.5;"/><path d="M46.1172,61.1211 L46.1172,88.1211 M33.1172,69.1211 L59.1172,69.1211 M46.1172,88.1211 L33.1172,103.1211 M46.1172,88.1211 L59.1172,103.1211 " fill="none" style="stroke:#181818;stroke-width:0.5;"/><text fill="#000000" font-family="sans-serif" font-size="14" lengthAdjust="spacing" textLength="76.2344" x="5" y="282.5137">HTTP Client</text><ellipse cx="46.1172" cy="294.5273" fill="#E2E2F0" rx="8" ry="8" style="stroke:#181818;stroke-width:0.5;"/><path d="M46.1172,302.5273 L46.1172,329.5273 M33.1172,310.5273 L59.1172,310.5273 M46.1172,329.5273 L33.1172,344.5273 M46.1172,329.5273 L59.1172,344.5273 " fill="none" style="stroke:#181818;stroke-width:0.5;"/><rect fill="#E2E2F0" height="32.6211" rx="2.5" ry="2.5" style="stroke:#181818;stroke-width:0.5;" width="84.0479" x="198.9121" y="89.6211"/><text fill="#000000" font-family="sans-serif" font-size="14" lengthAdjust="spacing" textLength="70.0479" x="205.9121" y="111.7285">:Book:book</text><rect fill="#E2E2F0" height="32.6211" rx="2.5" ry="2.5" style="stroke:#181818;stroke-width:0.5;" width="84.0479" x="198.9121" y="267.4063"/><text fill="#000000" font-family="sans-serif" font-size="14" lengthAdjust="spacing" textLength="70.0479" x="205.9121" y="289.5137">:Book:book</text><rect fill="#E2E2F0" height="32.6211" rx="2.5" ry="2.5" style="stroke:#181818;stroke-width:0.5;" width="122.9717" x="351.9272" y="89.6211"/><text fill="#000000" font-family="sans-serif" font-size="14" lengthAdjust="spacing" textLength="108.9717" x="358.9272" y="111.7285">:Lendings:ledings</text><rect fill="#E2E2F0" height="32.6211" rx="2.5" ry="2.5" style="stroke:#181818;stroke-width:0.5;" width="122.9717" x="351.9272" y="267.4063"/><text fill="#000000" font-family="sans-serif" font-size="14" lengthAdjust="spacing" textLength="108.9717" x="358.9272" y="289.5137">:Lendings:ledings</text><rect fill="#FFFFFF" height="126.1641" style="stroke:#181818;stroke-width:1.0;" width="10" x="41.1172" y="133.2422"/><rect fill="#FFFFFF" height="93.873" style="stroke:#181818;stroke-width:1.0;" width="10" x="235.936" y="156.5332"/><rect fill="#FFFFFF" height="31.291" style="stroke:#181818;stroke-width:1.0;" width="10" x="408.4131" y="187.8242"/><polygon fill="#181818" points="223.936,152.5332,233.936,156.5332,223.936,160.5332,227.936,156.5332" style="stroke:#181818;stroke-width:1.0;"/><line style="stroke:#181818;stroke-width:1.0;" x1="51.1172" x2="229.936" y1="156.5332" y2="156.5332"/><text fill="#000000" font-family="sans-serif" font-size="13" font-weight="bold" lengthAdjust="spacing" textLength="7.23" x="58.1172" y="151.2705">1</text><text fill="#000000" font-family="sans-serif" font-size="13" lengthAdjust="spacing" textLength="118.5107" x="69.3472" y="151.2705">GET /api/books/top5</text><polygon fill="#181818" points="396.4131,183.8242,406.4131,187.8242,396.4131,191.8242,400.4131,187.8242" style="stroke:#181818;stroke-width:1.0;"/><line style="stroke:#181818;stroke-width:1.0;" x1="245.936" x2="402.4131" y1="187.8242" y2="187.8242"/><text fill="#000000" font-family="sans-serif" font-size="13" font-weight="bold" lengthAdjust="spacing" textLength="7.23" x="252.936" y="182.5615">2</text><text fill="#000000" font-family="sans-serif" font-size="13" lengthAdjust="spacing" textLength="132.2471" x="264.166" y="182.5615">GET /api/lendings/top5</text><polygon fill="#181818" points="256.936,215.1152,246.936,219.1152,256.936,223.1152,252.936,219.1152" style="stroke:#181818;stroke-width:1.0;"/><line style="stroke:#181818;stroke-width:1.0;stroke-dasharray:2.0,2.0;" x1="250.936" x2="412.4131" y1="219.1152" y2="219.1152"/><text fill="#000000" font-family="sans-serif" font-size="13" font-weight="bold" lengthAdjust="spacing" textLength="7.23" x="262.936" y="213.8525">3</text><text fill="#000000" font-family="sans-serif" font-size="13" lengthAdjust="spacing" textLength="93.9517" x="274.166" y="213.8525">ListResponse&lt;&gt;</text><polygon fill="#181818" points="62.1172,246.4063,52.1172,250.4063,62.1172,254.4063,58.1172,250.4063" style="stroke:#181818;stroke-width:1.0;"/><line style="stroke:#181818;stroke-width:1.0;stroke-dasharray:2.0,2.0;" x1="56.1172" x2="239.936" y1="250.4063" y2="250.4063"/><text fill="#000000" font-family="sans-serif" font-size="13" font-weight="bold" lengthAdjust="spacing" textLength="7.23" x="68.1172" y="245.1436">4</text><text fill="#000000" font-family="sans-serif" font-size="13" lengthAdjust="spacing" textLength="149.5889" x="79.3472" y="245.1436">200 OK - ListResponse&lt;&gt;</text><!--SRC=[NOxHIWCn44NVynN3llYqfWXz2L9GaHPSK6JzWDdjK0UpIKmcukURf4kHGfWat3FttfjFaP2Cri6YaxpOszalEj5t9ZTJVsGyHLmKPl4u2_-W47ZN_Yul4qMbXCKIx9z767s0BJnw_vK0ou61fuYHqIbLjds4xZ2ER_1acPnqbVb8nI9W59uvb0RGcRflfZ8Qy4v9he21t97TAHbBxMxSG_vjQ4iwzspUgaxeTyt8j9eQ0-iQaBJui5LLgSHgyG-oQzAPMtNeBsu39oclu5sY-vswg3NJmDrc0wylq5zZwWy0]--></g></svg>