<svg xmlns="http://www.w3.org/2000/svg" xmlns:xlink="http://www.w3.org/1999/xlink" contentStyleType="text/css" height="539px" preserveAspectRatio="none" style="width:938px;height:539px;background:#FFFFFF;" version="1.1" viewBox="0 0 938 539" width="938px" zoomAndPan="magnify"><title>GET Top 5 Books as a Librarian</title><defs/><g><text fill="#000000" font-family="sans-serif" font-size="14" font-weight="bold" lengthAdjust="spacing" textLength="211.6064" x="362.3101" y="30.1074">GET Top 5 Books as a Librarian</text><rect fill="#FFFFFF" height="313.9102" style="stroke:#181818;stroke-width:1.0;" width="10" x="41.1172" y="133.2422"/><rect fill="#FFFFFF" height="281.6191" style="stroke:#181818;stroke-width:1.0;" width="10" x="243.166" y="156.5332"/><rect fill="#FFFFFF" height="219.0371" style="stroke:#181818;stroke-width:1.0;" width="10" x="382.3477" y="187.8242"/><rect fill="#FFFFFF" height="93.873" style="stroke:#181818;stroke-width:1.0;" width="10" x="528.8921" y="250.4063"/><rect fill="#FFFFFF" height="31.291" style="stroke:#181818;stroke-width:1.0;" width="10" x="717.2446" y="281.6973"/><rect fill="#FFFFFF" height="156.4551" style="stroke:#181818;stroke-width:1.0;" width="10" x="863.4199" y="219.1152"/><line style="stroke:#181818;stroke-width:0.5;stroke-dasharray:5.0,5.0;" x1="46" x2="46" y1="123.2422" y2="456.1523"/><line style="stroke:#181818;stroke-width:0.5;stroke-dasharray:5.0,5.0;" x1="247.9834" x2="247.9834" y1="123.2422" y2="456.1523"/><line style="stroke:#181818;stroke-width:0.5;stroke-dasharray:5.0,5.0;" x1="387.2168" x2="387.2168" y1="123.2422" y2="456.1523"/><line style="stroke:#181818;stroke-width:0.5;stroke-dasharray:5.0,5.0;" x1="533.4785" x2="533.4785" y1="123.2422" y2="456.1523"/><line style="stroke:#181818;stroke-width:0.5;stroke-dasharray:5.0,5.0;" x1="721.876" x2="721.876" y1="123.2422" y2="456.1523"/><line style="stroke:#181818;stroke-width:0.5;stroke-dasharray:5.0,5.0;" x1="867.6133" x2="867.6133" y1="123.2422" y2="456.1523"/><text fill="#000000" font-family="sans-serif" font-size="14" lengthAdjust="spacing" textLength="76.2344" x="5" y="119.7285">HTTP Client</text><ellipse cx="46.1172" cy="53.1211" fill="#E2E2F0" rx="8" ry="8" style="stroke:#181818;stroke-width:0.5;"/><path d="M46.1172,61.1211 L46.1172,88.1211 M33.1172,69.1211 L59.1172,69.1211 M46.1172,88.1211 L33.1172,103.1211 M46.1172,88.1211 L59.1172,103.1211 " fill="none" style="stroke:#181818;stroke-width:0.5;"/><text fill="#000000" font-family="sans-serif" font-size="14" lengthAdjust="spacing" textLength="76.2344" x="5" y="470.2598">HTTP Client</text><ellipse cx="46.1172" cy="482.2734" fill="#E2E2F0" rx="8" ry="8" style="stroke:#181818;stroke-width:0.5;"/><path d="M46.1172,490.2734 L46.1172,517.2734 M33.1172,498.2734 L59.1172,498.2734 M46.1172,517.2734 L33.1172,532.2734 M46.1172,517.2734 L59.1172,532.2734 " fill="none" style="stroke:#181818;stroke-width:0.5;"/><rect fill="#E2E2F0" height="32.6211" rx="2.5" ry="2.5" style="stroke:#181818;stroke-width:0.5;" width="72.3652" x="211.9834" y="89.6211"/><text fill="#000000" font-family="sans-serif" font-size="14" lengthAdjust="spacing" textLength="58.3652" x="218.9834" y="111.7285">:BookAPI</text><rect fill="#E2E2F0" height="32.6211" rx="2.5" ry="2.5" style="stroke:#181818;stroke-width:0.5;" width="72.3652" x="211.9834" y="455.1523"/><text fill="#000000" font-family="sans-serif" font-size="14" lengthAdjust="spacing" textLength="58.3652" x="218.9834" y="477.2598">:BookAPI</text><rect fill="#E2E2F0" height="32.6211" rx="2.5" ry="2.5" style="stroke:#181818;stroke-width:0.5;" width="132.2617" x="321.2168" y="89.6211"/><text fill="#000000" font-family="sans-serif" font-size="14" lengthAdjust="spacing" textLength="118.2617" x="328.2168" y="111.7285">Ctrl:BookController</text><rect fill="#E2E2F0" height="32.6211" rx="2.5" ry="2.5" style="stroke:#181818;stroke-width:0.5;" width="132.2617" x="321.2168" y="455.1523"/><text fill="#000000" font-family="sans-serif" font-size="14" lengthAdjust="spacing" textLength="118.2617" x="328.2168" y="477.2598">Ctrl:BookController</text><rect fill="#E2E2F0" height="32.6211" rx="2.5" ry="2.5" style="stroke:#181818;stroke-width:0.5;" width="140.8271" x="463.4785" y="89.6211"/><text fill="#000000" font-family="sans-serif" font-size="14" lengthAdjust="spacing" textLength="126.8271" x="470.4785" y="111.7285">service:BookService</text><rect fill="#E2E2F0" height="32.6211" rx="2.5" ry="2.5" style="stroke:#181818;stroke-width:0.5;" width="140.8271" x="463.4785" y="455.1523"/><text fill="#000000" font-family="sans-serif" font-size="14" lengthAdjust="spacing" textLength="126.8271" x="470.4785" y="477.2598">service:BookService</text><rect fill="#E2E2F0" height="32.6211" rx="2.5" ry="2.5" style="stroke:#181818;stroke-width:0.5;" width="144.7373" x="649.876" y="89.6211"/><text fill="#000000" font-family="sans-serif" font-size="14" lengthAdjust="spacing" textLength="130.7373" x="656.876" y="111.7285">repo:BookRepository</text><rect fill="#E2E2F0" height="32.6211" rx="2.5" ry="2.5" style="stroke:#181818;stroke-width:0.5;" width="144.7373" x="649.876" y="455.1523"/><text fill="#000000" font-family="sans-serif" font-size="14" lengthAdjust="spacing" textLength="130.7373" x="656.876" y="477.2598">repo:BookRepository</text><rect fill="#E2E2F0" height="32.6211" rx="2.5" ry="2.5" style="stroke:#181818;stroke-width:0.5;" width="127.6133" x="804.6133" y="89.6211"/><text fill="#000000" font-family="sans-serif" font-size="14" lengthAdjust="spacing" textLength="113.6133" x="811.6133" y="111.7285">:BookViewMapper</text><rect fill="#E2E2F0" height="32.6211" rx="2.5" ry="2.5" style="stroke:#181818;stroke-width:0.5;" width="127.6133" x="804.6133" y="455.1523"/><text fill="#000000" font-family="sans-serif" font-size="14" lengthAdjust="spacing" textLength="113.6133" x="811.6133" y="477.2598">:BookViewMapper</text><rect fill="#FFFFFF" height="313.9102" style="stroke:#181818;stroke-width:1.0;" width="10" x="41.1172" y="133.2422"/><rect fill="#FFFFFF" height="281.6191" style="stroke:#181818;stroke-width:1.0;" width="10" x="243.166" y="156.5332"/><rect fill="#FFFFFF" height="219.0371" style="stroke:#181818;stroke-width:1.0;" width="10" x="382.3477" y="187.8242"/><rect fill="#FFFFFF" height="93.873" style="stroke:#181818;stroke-width:1.0;" width="10" x="528.8921" y="250.4063"/><rect fill="#FFFFFF" height="31.291" style="stroke:#181818;stroke-width:1.0;" width="10" x="717.2446" y="281.6973"/><rect fill="#FFFFFF" height="156.4551" style="stroke:#181818;stroke-width:1.0;" width="10" x="863.4199" y="219.1152"/><polygon fill="#181818" points="231.166,152.5332,241.166,156.5332,231.166,160.5332,235.166,156.5332" style="stroke:#181818;stroke-width:1.0;"/><line style="stroke:#181818;stroke-width:1.0;" x1="51.1172" x2="237.166" y1="156.5332" y2="156.5332"/><text fill="#000000" font-family="sans-serif" font-size="13" font-weight="bold" lengthAdjust="spacing" textLength="7.23" x="58.1172" y="151.2705">1</text><text fill="#000000" font-family="sans-serif" font-size="13" lengthAdjust="spacing" textLength="118.5107" x="69.3472" y="151.2705">GET /api/books/top5</text><polygon fill="#181818" points="370.3477,183.8242,380.3477,187.8242,370.3477,191.8242,374.3477,187.8242" style="stroke:#181818;stroke-width:1.0;"/><line style="stroke:#181818;stroke-width:1.0;" x1="253.166" x2="376.3477" y1="187.8242" y2="187.8242"/><text fill="#000000" font-family="sans-serif" font-size="13" font-weight="bold" lengthAdjust="spacing" textLength="7.23" x="260.166" y="182.5615">2</text><text fill="#000000" font-family="sans-serif" font-size="13" lengthAdjust="spacing" textLength="41.9009" x="271.396" y="182.5615">Top5();</text><polygon fill="#181818" points="851.4199,215.1152,861.4199,219.1152,851.4199,223.1152,855.4199,219.1152" style="stroke:#181818;stroke-width:1.0;"/><line style="stroke:#181818;stroke-width:1.0;" x1="392.3477" x2="857.4199" y1="219.1152" y2="219.1152"/><text fill="#000000" font-family="sans-serif" font-size="13" font-weight="bold" lengthAdjust="spacing" textLength="7.23" x="399.3477" y="213.8525">3</text><text fill="#000000" font-family="sans-serif" font-size="13" lengthAdjust="spacing" textLength="312.1587" x="410.5776" y="213.8525">toBookCountView(bookService.findTop5BooksLent()))</text><polygon fill="#181818" points="549.8921,246.4063,539.8921,250.4063,549.8921,254.4063,545.8921,250.4063" style="stroke:#181818;stroke-width:1.0;"/><line style="stroke:#181818;stroke-width:1.0;" x1="543.8921" x2="862.4199" y1="250.4063" y2="250.4063"/><text fill="#000000" font-family="sans-serif" font-size="13" font-weight="bold" lengthAdjust="spacing" textLength="7.23" x="555.8921" y="245.1436">4</text><text fill="#000000" font-family="sans-serif" font-size="13" lengthAdjust="spacing" textLength="120.6816" x="567.1221" y="245.1436">findTop5BooksLent()</text><polygon fill="#181818" points="705.2446,277.6973,715.2446,281.6973,705.2446,285.6973,709.2446,281.6973" style="stroke:#181818;stroke-width:1.0;"/><line style="stroke:#181818;stroke-width:1.0;" x1="538.8921" x2="711.2446" y1="281.6973" y2="281.6973"/><text fill="#000000" font-family="sans-serif" font-size="13" font-weight="bold" lengthAdjust="spacing" textLength="7.23" x="545.8921" y="276.4346">5</text><text fill="#000000" font-family="sans-serif" font-size="13" lengthAdjust="spacing" textLength="148.1226" x="557.1221" y="276.4346">getTop5(BookCountDTO)</text><polygon fill="#181818" points="549.8921,308.9883,539.8921,312.9883,549.8921,316.9883,545.8921,312.9883" style="stroke:#181818;stroke-width:1.0;"/><line style="stroke:#181818;stroke-width:1.0;stroke-dasharray:2.0,2.0;" x1="543.8921" x2="721.2446" y1="312.9883" y2="312.9883"/><text fill="#000000" font-family="sans-serif" font-size="13" font-weight="bold" lengthAdjust="spacing" textLength="7.23" x="555.8921" y="307.7256">6</text><text fill="#000000" font-family="sans-serif" font-size="13" lengthAdjust="spacing" textLength="122.8335" x="567.1221" y="307.7256">list&lt;BookCountDTO&gt;</text><polygon fill="#181818" points="851.4199,340.2793,861.4199,344.2793,851.4199,348.2793,855.4199,344.2793" style="stroke:#181818;stroke-width:1.0;"/><line style="stroke:#181818;stroke-width:1.0;stroke-dasharray:2.0,2.0;" x1="533.8921" x2="857.4199" y1="344.2793" y2="344.2793"/><text fill="#000000" font-family="sans-serif" font-size="13" font-weight="bold" lengthAdjust="spacing" textLength="7.23" x="540.8921" y="339.0166">7</text><text fill="#000000" font-family="sans-serif" font-size="13" lengthAdjust="spacing" textLength="122.8335" x="552.1221" y="339.0166">list&lt;BookCountDTO&gt;</text><polygon fill="#181818" points="403.3477,371.5703,393.3477,375.5703,403.3477,379.5703,399.3477,375.5703" style="stroke:#181818;stroke-width:1.0;"/><line style="stroke:#181818;stroke-width:1.0;stroke-dasharray:2.0,2.0;" x1="397.3477" x2="867.4199" y1="375.5703" y2="375.5703"/><text fill="#000000" font-family="sans-serif" font-size="13" font-weight="bold" lengthAdjust="spacing" textLength="7.23" x="409.3477" y="370.3076">8</text><text fill="#000000" font-family="sans-serif" font-size="13" lengthAdjust="spacing" textLength="93.9517" x="420.5776" y="370.3076">ListResponse&lt;&gt;</text><polygon fill="#181818" points="264.166,402.8613,254.166,406.8613,264.166,410.8613,260.166,406.8613" style="stroke:#181818;stroke-width:1.0;"/><line style="stroke:#181818;stroke-width:1.0;stroke-dasharray:2.0,2.0;" x1="258.166" x2="386.3477" y1="406.8613" y2="406.8613"/><text fill="#000000" font-family="sans-serif" font-size="13" font-weight="bold" lengthAdjust="spacing" textLength="7.23" x="270.166" y="401.5986">9</text><text fill="#000000" font-family="sans-serif" font-size="13" lengthAdjust="spacing" textLength="93.9517" x="281.396" y="401.5986">ListResponse&lt;&gt;</text><polygon fill="#181818" points="62.1172,434.1523,52.1172,438.1523,62.1172,442.1523,58.1172,438.1523" style="stroke:#181818;stroke-width:1.0;"/><line style="stroke:#181818;stroke-width:1.0;stroke-dasharray:2.0,2.0;" x1="56.1172" x2="247.166" y1="438.1523" y2="438.1523"/><text fill="#000000" font-family="sans-serif" font-size="13" font-weight="bold" lengthAdjust="spacing" textLength="14.46" x="68.1172" y="432.8896">10</text><text fill="#000000" font-family="sans-serif" font-size="13" lengthAdjust="spacing" textLength="149.5889" x="86.5771" y="432.8896">200 OK - ListResponse&lt;&gt;</text><!--SRC=[RP3DJiCm48JlVefLBpI7D1LIBw6g10K1egXL2ToTr1GBnpRsfeYtnsk7_g1AKRJsVhkUcOiFHElBeh2AQ-nQDMfCMtZnrGdTY7mZ-TRnbl4E3MzGxZWAC3gUTTVMmZ664fM0-xiAAcDX0ZV6V7hWuOE5h1rtacl6mhHnC7YegXNCbHGQ1yIy-h32SeUoaJOeW459yzUhnzXU2u-dxJaw5P6vqUYCKi95akvFoR1v9niHuPTKHxAlJs4dh8daEXHU1gq_lG1hpkXxa-BxcLlRFvvA5bscZA8lHd_8Pz566ICgk9L5JGaLQEo4CMeH4drHWfDXTXKsqPdkq-eIq2JJdKPwV5WVN8tUfTxGP4n-4Q8TPbd6qYJjwBaIpe2iRoQP8GJO2emozk_TLikCKG_ousLAUfmUGxF3hYFXPx0_PNlRYy248ApHNandlVTzRl-wAR7GfNHBk1oFOVa4-N_i5m00]--></g></svg>